<svg width="32" height="32" viewBox="0 0 32 32" fill="none" xmlns="http://www.w3.org/2000/svg">
<path d="M20 3.62685V28.9602H5.33333C4.53333 28.9602 4 28.4269 4 27.6269V7.36018C4 6.69352 4.4 6.16018 5.06667 6.02685L18.4 2.69352C19.0667 2.56018 19.7333 2.96018 20 3.62685V3.62685ZM21.3333 15.6268L27.2 17.8935C27.7333 18.1602 28 18.5602 28 19.0935V27.6269C28 28.4269 27.4667 28.9602 26.6667 28.9602H21.3333V15.6268V15.6268ZM14.6667 16.9602H9.33333C8.53333 16.9602 8 17.4935 8 18.2935C8 18.9602 8.53333 19.4935 9.2 19.6269H14.6667C15.4667 19.6269 16 19.0935 16 18.2935C16 17.4935 15.4667 16.9602 14.6667 16.9602V16.9602ZM14.6667 10.2935H9.33333C8.53333 10.2935 8 10.8268 8 11.6268C8 12.2935 8.53333 12.8268 9.2 12.9602H14.6667C15.4667 12.9602 16 12.4268 16 11.6268C16 10.8268 15.4667 10.2935 14.6667 10.2935V10.2935Z" fill="#F5222D"/>
</svg>
