<svg width="46" height="46" viewBox="0 0 46 46" fill="none" xmlns="http://www.w3.org/2000/svg">
<path d="M9 15.5C9 11.9101 11.9101 9 15.5 9V9C19.0899 9 22 11.9101 22 15.5V22H15.5C11.9101 22 9 19.0899 9 15.5V15.5Z" fill="#41C5F2"/>
<path d="M37 30.5C37 34.0899 34.0899 37 30.5 37V37C26.9101 37 24 34.0899 24 30.5L24 24L30.5 24C34.0898 24 37 26.9101 37 30.5V30.5Z" fill="#41C5F2"/>
<path d="M24 15.5C24 11.9101 26.9101 9 30.5 9V9C34.0899 9 37 11.9101 37 15.5V15.5C37 19.0899 34.0899 22 30.5 22H24V15.5Z" fill="#41C5F2"/>
<path d="M22 30.5C22 34.0899 19.0899 37 15.5 37V37C11.9101 37 9 34.0899 9 30.5V30.5C9 26.9102 11.9101 24 15.5 24L22 24L22 30.5Z" fill="#41C5F2"/>
</svg>
