<svg width="13" height="13" viewBox="0 0 13 13" fill="none" xmlns="http://www.w3.org/2000/svg">
<path d="M7.84432 7.91916C7.84432 7.75485 7.71215 7.62023 7.54784 7.62023H3.63193C3.46883 7.62023 3.33541 7.75358 3.33541 7.91916C3.33541 8.08347 3.46762 8.21809 3.63193 8.21809H7.54784C7.71215 8.21809 7.84432 8.08468 7.84432 7.91916ZM9.66519 6.04272C9.66519 5.87715 9.53304 5.74372 9.36873 5.74372H3.63193C3.46883 5.74372 3.33541 5.87715 3.33541 6.04272C3.33541 6.20697 3.46762 6.34166 3.63193 6.34166H9.36873C9.53177 6.34166 9.66519 6.20697 9.66519 6.04272ZM9.66519 4.16502C9.66519 3.9995 9.53304 3.86607 9.36873 3.86607H3.63193C3.46883 3.86607 3.33541 3.9995 3.33541 4.16502C3.33541 4.32932 3.46762 4.46395 3.63193 4.46395H9.36873C9.53177 4.46395 9.66519 4.33054 9.66519 4.16502ZM1.68999 2.58752C1.68999 1.72033 2.38672 1.01744 3.2465 1.01744H9.7529C10.6127 1.01744 11.3094 1.72033 11.3094 2.58752V11.7115C11.3094 11.8771 11.1797 12.0117 11.0191 12.0117C10.9894 12.0117 10.961 12.0068 10.9351 11.9982C10.8684 12.0006 10.7992 11.9809 10.7424 11.9339L9.26493 10.9444L8.07038 11.9154C8.01961 11.9568 7.95614 11.9793 7.89066 11.9793C7.82519 11.9793 7.76172 11.9568 7.71095 11.9154L6.50772 10.937L5.26746 11.9463C5.21668 11.9876 5.15319 12.0102 5.08771 12.0102C5.02222 12.0102 4.95874 11.9876 4.90795 11.9463L3.71221 10.9741L2.25698 11.9475C2.20389 11.9908 2.14086 12.0117 2.07789 12.0117C2.06179 12.0117 2.04454 12.0105 2.02849 12.0068C2.01239 12.0093 1.99761 12.0117 1.9803 12.0117C1.81966 12.0117 1.68999 11.8771 1.68999 11.7115V2.58752Z" fill="#A8A8A8"/>
</svg>
