<svg width="16" height="16" viewBox="0 0 16 16" fill="none" xmlns="http://www.w3.org/2000/svg">
<path fill-rule="evenodd" clip-rule="evenodd" d="M15.3939 4.78711V2.90459C15.3939 2.90459 15.4083 2.11505 14.2923 2H0.998178C0.765988 2.01265 0.544822 2.10309 0.370292 2.25675C0.195761 2.41041 0.0780358 2.61835 0.0360721 2.84706L0.00585923 4.77992L15.3939 4.78711ZM0.0301953 12.916L0 6.76941H15.3938V12.834C15.3938 12.834 15.3363 13.8551 14.3296 13.9989H0.988C0.988 13.9989 0.18839 13.9515 0.0301953 12.916ZM10.1331 12.0589H11.262V10.9371H10.1331V12.0589ZM11.5209 12.0589H12.6484V10.9371H11.5209V12.0589ZM12.9217 12.0589H14.0492V10.9371H12.9217V12.0589Z" fill="black" fill-opacity="0.45"/>
</svg>
