<svg width="36" height="36" viewBox="0 0 36 36" fill="none" xmlns="http://www.w3.org/2000/svg">
<path d="M24.875 10.8125H18.9375C18.7656 10.8125 18.625 10.9531 18.625 11.125V17.0625C18.625 17.2344 18.7656 17.375 18.9375 17.375H24.875C25.0469 17.375 25.1875 17.2344 25.1875 17.0625V11.125C25.1875 10.9531 25.0469 10.8125 24.875 10.8125ZM24.875 18.625H18.9375C18.7656 18.625 18.625 18.7656 18.625 18.9375V24.875C18.625 25.0469 18.7656 25.1875 18.9375 25.1875H24.875C25.0469 25.1875 25.1875 25.0469 25.1875 24.875V18.9375C25.1875 18.7656 25.0469 18.625 24.875 18.625ZM17.0625 10.8125H11.125C10.9531 10.8125 10.8125 10.9531 10.8125 11.125V17.0625C10.8125 17.2344 10.9531 17.375 11.125 17.375H17.0625C17.2344 17.375 17.375 17.2344 17.375 17.0625V11.125C17.375 10.9531 17.2344 10.8125 17.0625 10.8125ZM17.0625 18.625H11.125C10.9531 18.625 10.8125 18.7656 10.8125 18.9375V24.875C10.8125 25.0469 10.9531 25.1875 11.125 25.1875H17.0625C17.2344 25.1875 17.375 25.0469 17.375 24.875V18.9375C17.375 18.7656 17.2344 18.625 17.0625 18.625Z" fill="black" fill-opacity="0.45"/>
</svg>
