<svg width="36" height="36" viewBox="0 0 36 36" fill="none" xmlns="http://www.w3.org/2000/svg">
<rect width="36" height="36" rx="18" fill="black" fill-opacity="0.45"/>
<path d="M23.5 12.25H18.75C18.6125 12.25 18.5 12.3625 18.5 12.5V17.25C18.5 17.3875 18.6125 17.5 18.75 17.5H23.5C23.6375 17.5 23.75 17.3875 23.75 17.25V12.5C23.75 12.3625 23.6375 12.25 23.5 12.25ZM23.5 18.5H18.75C18.6125 18.5 18.5 18.6125 18.5 18.75V23.5C18.5 23.6375 18.6125 23.75 18.75 23.75H23.5C23.6375 23.75 23.75 23.6375 23.75 23.5V18.75C23.75 18.6125 23.6375 18.5 23.5 18.5ZM17.25 12.25H12.5C12.3625 12.25 12.25 12.3625 12.25 12.5V17.25C12.25 17.3875 12.3625 17.5 12.5 17.5H17.25C17.3875 17.5 17.5 17.3875 17.5 17.25V12.5C17.5 12.3625 17.3875 12.25 17.25 12.25ZM17.25 18.5H12.5C12.3625 18.5 12.25 18.6125 12.25 18.75V23.5C12.25 23.6375 12.3625 23.75 12.5 23.75H17.25C17.3875 23.75 17.5 23.6375 17.5 23.5V18.75C17.5 18.6125 17.3875 18.5 17.25 18.5Z" fill="white"/>
</svg>
