<svg width="16" height="16" viewBox="0 0 16 16" fill="none" xmlns="http://www.w3.org/2000/svg">
<path d="M13.106 4.54159L10.2974 1.76758L10.306 4.54159H13.106Z" fill="black" fill-opacity="0.45"/>
<path d="M9.75964 5.07068V1.50781H2.67725V14.4937H13.3225V5.07068H9.75964ZM4.83577 6.08493C4.83577 6.01558 4.89645 5.9549 4.9658 5.9549H8.79741C8.86676 5.9549 8.92744 6.01558 8.92744 6.08493V6.60506C8.92744 6.67441 8.86676 6.73509 8.79741 6.73509H4.9658C4.89645 6.73509 4.83577 6.67441 4.83577 6.60506V6.08493ZM11.034 11.0001C11.034 11.0695 10.9733 11.1302 10.9039 11.1302H4.9658C4.89645 11.1302 4.83577 11.0695 4.83577 11.0001V10.48C4.83577 10.4107 4.89645 10.35 4.9658 10.35H10.9039C10.9733 10.35 11.034 10.4107 11.034 10.48V11.0001ZM11.034 8.78959C11.034 8.85894 10.9733 8.91962 10.9039 8.91962H4.9658C4.89645 8.91962 4.83577 8.85894 4.83577 8.78959V8.26946C4.83577 8.20011 4.89645 8.13943 4.9658 8.13943H10.9039C10.9733 8.13943 11.034 8.20011 11.034 8.26946V8.78959Z" fill="black" fill-opacity="0.45"/>
</svg>
