<svg width="24" height="24" viewBox="0 0 24 24" fill="none" xmlns="http://www.w3.org/2000/svg">
<path d="M0 12C0 18.6274 5.37257 24 12 24C18.6274 24 24 18.6274 24 12C24 5.37257 18.6274 0 12 0C5.37257 0 0 5.37257 0 12Z" fill="#E9F4FF"/>
<path d="M15.8355 6.51429C17.1233 6.51223 18.1694 7.54971 18.1714 8.832C18.1717 9.33601 18.0081 9.82643 17.7052 10.2293C17.4024 10.6322 16.9767 10.9256 16.4925 11.0654V14.2419C16.4925 15.6134 15.3761 16.7253 13.9989 16.7253C12.6216 16.7253 11.5049 15.6134 11.5049 14.2419V9.25543C11.5042 8.9485 11.3816 8.65443 11.1641 8.43789C10.9466 8.22134 10.652 8.10005 10.345 8.10068C10.0381 8.10005 9.74349 8.22134 9.52598 8.43789C9.30847 8.65443 9.18587 8.9485 9.18515 9.25543V12.8448C10.417 13.2209 11.1093 14.5207 10.7314 15.7474C10.5842 16.2226 10.289 16.6382 9.88876 16.9336C9.48856 17.229 9.00439 17.3887 8.50697 17.3894C7.2192 17.3914 6.17349 16.3533 6.17143 15.071C6.1713 14.5667 6.33528 14.076 6.63861 13.6731C6.94193 13.2702 7.36812 12.9769 7.8528 12.8376V9.25577C7.8528 7.88503 8.96846 6.77348 10.3454 6.77348C11.7216 6.77348 12.8376 7.88503 12.8376 9.25577V14.2419C12.8379 14.3941 12.8682 14.5448 12.9267 14.6852C12.9853 14.8257 13.0709 14.9533 13.1787 15.0607C13.2866 15.1681 13.4145 15.2532 13.5552 15.3111C13.6959 15.3691 13.8467 15.3987 13.9989 15.3984C14.151 15.3987 14.3018 15.3691 14.4425 15.3111C14.5832 15.2532 14.7112 15.1681 14.819 15.0607C14.9268 14.9533 15.0125 14.8257 15.071 14.6852C15.1295 14.5448 15.1598 14.3941 15.1601 14.2419V11.0595C13.9275 10.6845 13.2339 9.38537 13.6107 8.15828C13.7576 7.68271 14.0528 7.2666 14.4531 6.9708C14.8534 6.675 15.3378 6.51503 15.8355 6.51429ZM8.50697 14.0715C7.95497 14.0715 7.50755 14.5173 7.50755 15.0665C7.50782 15.1975 7.53388 15.3271 7.58425 15.448C7.63463 15.5689 7.70832 15.6787 7.80112 15.7712C7.89393 15.8636 8.00403 15.9368 8.12514 15.9867C8.24625 16.0366 8.376 16.0621 8.50697 16.0618C9.05897 16.0618 9.5064 15.6161 9.5064 15.0665C9.50577 14.8021 9.40012 14.5487 9.2127 14.3621C9.02529 14.1755 8.77143 14.071 8.50697 14.0715ZM15.8355 7.84114C15.2835 7.84114 14.8361 8.28686 14.8361 8.83646C14.8368 9.10092 14.9424 9.3543 15.1298 9.54088C15.3172 9.72746 15.5711 9.83197 15.8355 9.83143C16.3875 9.83143 16.835 9.38571 16.835 8.83646C16.8347 8.70548 16.8086 8.57584 16.7583 8.45493C16.7079 8.33403 16.6342 8.22423 16.5414 8.13181C16.4486 8.03939 16.3385 7.96615 16.2174 7.91627C16.0963 7.8664 15.9665 7.84087 15.8355 7.84114Z" fill="#5F96F5"/>
</svg>
