<svg width="150" height="120" viewBox="0 0 150 120" fill="none" xmlns="http://www.w3.org/2000/svg">
<g clip-path="url(#clip0_461_23577)">
<path opacity="0.8" fill-rule="evenodd" clip-rule="evenodd" d="M45.9139 11.3947C46.9135 8.25067 47.8438 6.29317 48.7032 5.52142C51.0831 3.38542 54.3736 4.54792 55.0732 4.71442C57.5307 5.30092 56.7316 1.44142 58.8401 0.656923C60.2453 0.134173 61.4009 0.773173 62.3078 2.57392C63.1107 0.893923 64.3342 0.124423 65.9783 0.261673C68.4449 0.469423 69.308 8.75767 72.6973 6.94342C76.0874 5.12842 80.2433 4.71367 82.0186 7.41067C82.4023 7.99417 82.5493 7.08892 85.1592 3.99817C87.769 0.906673 90.3713 -0.455327 95.71 1.34467C98.1374 2.16217 100.134 4.37842 101.701 7.99267C101.701 13.1512 105.515 16.2052 113.143 17.1524C124.585 18.5737 115.703 30.8129 101.701 34.3972C87.6974 37.9822 55.4576 39.9172 37.9624 30.8602C26.2989 24.8234 28.9494 18.3344 45.9132 11.3947H45.9139Z" fill="url(#paint0_linear_461_23577)"/>
<path d="M74.6052 56.9797C86.2573 56.9797 95.7031 54.8045 95.7031 52.1212C95.7031 49.4379 86.2573 47.2627 74.6052 47.2627C62.9532 47.2627 53.5073 49.4379 53.5073 52.1212C53.5073 54.8045 62.9532 56.9797 74.6052 56.9797Z" fill="url(#paint1_linear_461_23577)"/>
<path opacity="0.675" fill-rule="evenodd" clip-rule="evenodd" d="M110.224 58.1837C94.3612 62.1422 40.2147 57.6144 34.4515 55.5467C31.6465 54.5394 29.1181 52.6457 26.8671 49.8647C26.6151 49.5537 26.4568 49.1782 26.4103 48.7815C26.3638 48.3848 26.4311 47.9831 26.6044 47.6228C26.7777 47.2625 27.0499 46.9584 27.3896 46.7455C27.7293 46.5327 28.1226 46.4198 28.524 46.4199H123.142C125.106 51.6234 120.8 55.5444 110.224 58.1837Z" fill="url(#paint2_linear_461_23577)"/>
<path d="M90.795 39.1005L83.5799 30.7065C83.4093 30.5063 83.1972 30.345 82.9582 30.2337C82.7193 30.1224 82.459 30.0636 82.1951 30.0615H66.6809C66.1487 30.0615 65.6429 30.3045 65.2961 30.7065L58.0811 39.1005V43.7085H90.795V39.1005Z" fill="url(#paint3_linear_461_23577)"/>
<path d="M88.7505 43.8782L82.4356 36.5672C82.2829 36.3946 82.0947 36.2567 81.8837 36.1629C81.6727 36.0691 81.4439 36.0215 81.2128 36.0235H67.6632C67.1981 36.0235 66.7435 36.2155 66.4405 36.5672L60.1255 43.8782V47.8937H88.7505V43.8782Z" fill="url(#paint4_linear_461_23577)"/>
<path d="M90.795 48.9889C90.795 49.6286 90.5055 50.2039 90.0486 50.5894L89.9559 50.6644C89.5937 50.9375 89.1515 51.0851 88.697 51.0844H60.1798C59.9219 51.0844 59.6754 51.0379 59.4478 50.9524L59.3347 50.9074C58.9616 50.7423 58.6447 50.4731 58.4222 50.1325C58.1997 49.7919 58.0812 49.3944 58.0811 48.9881V39.1504H66.0183C66.895 39.1504 67.6014 39.8681 67.6014 40.7389V40.7501C67.6014 41.6216 68.316 42.3244 69.1927 42.3244H79.6833C80.1047 42.324 80.5088 42.1575 80.807 41.8613C81.1053 41.5651 81.2734 41.1634 81.2746 40.7441C81.2746 39.8696 81.9817 39.1504 82.8577 39.1504H90.7957L90.795 48.9889Z" fill="url(#paint5_linear_461_23577)"/>
<path d="M12.014 77.3699C11.37 77.4259 10.684 77.4819 9.956 77.5379V76.4319H12.14V75.6059H9.956V74.6819H9.032V75.6059H7.408C7.758 75.1439 8.094 74.6119 8.402 74.0239H12.238V73.1279H8.822C8.934 72.8759 9.032 72.6239 9.13 72.3719L8.122 72.2039C8.01 72.5119 7.884 72.8199 7.758 73.1279H5.812V74.0239H7.31C6.974 74.6539 6.596 75.1859 6.204 75.6339L6.428 76.4319H9.032V77.5939C8.08 77.6499 7.058 77.6919 5.994 77.7479L6.12 78.6439C7.128 78.5879 8.108 78.5179 9.032 78.4619V79.4699H9.956V78.3919C10.67 78.3219 11.356 78.2519 12.014 78.1959V77.3699ZM13.974 76.4459H15.794V79.4839H16.76V76.4459H18.244V75.5639H14.044V74.1079C15.556 73.9399 16.816 73.6179 17.852 73.1699L17.208 72.4139C16.228 72.8619 14.856 73.1699 13.12 73.3379V75.5359C13.092 76.7959 12.756 77.8739 12.14 78.7839L12.84 79.5119C13.442 78.6439 13.82 77.6219 13.974 76.4459ZM16.676 79.8899H7.492V85.1539H8.528V84.6079H15.64V85.1539H16.676V79.8899ZM8.528 83.7399V82.6479H15.64V83.7399H8.528ZM8.528 81.8359V80.7439H15.64V81.8359H8.528ZM20.862 73.0719V74.0519H24.88V74.9899C24.866 75.8579 24.81 76.6839 24.698 77.4399H19.924V78.4059H24.53C24.348 79.2879 24.096 80.0859 23.76 80.7859C23.004 82.2139 21.674 83.3479 19.742 84.2159L20.302 85.1119C22.248 84.2719 23.648 83.0819 24.516 81.5699C24.992 80.6739 25.342 79.6239 25.566 78.4059H26.7V83.5019C26.7 84.4539 27.148 84.9299 28.072 84.9299H30.34C30.928 84.9299 31.348 84.8039 31.614 84.5519C31.922 84.2439 32.132 83.4179 32.244 82.0459L31.292 81.7379C31.222 82.8299 31.096 83.4739 30.9 83.6979C30.746 83.8799 30.494 83.9779 30.158 83.9779H28.38C27.932 83.9779 27.708 83.7399 27.708 83.2919V78.4059H32.048V77.4399H25.72C25.818 76.6839 25.874 75.8579 25.902 74.9899V74.0519H30.914V73.0719H20.862ZM42.212 75.4239H44.284C44.228 77.3139 43.934 78.9659 43.388 80.3799C42.828 79.2039 42.38 77.7899 42.03 76.1519L42.212 75.4239ZM42.926 81.3879C42.282 82.5779 41.428 83.5439 40.336 84.2999L40.854 85.1399C41.904 84.3839 42.772 83.4459 43.444 82.3259C44.144 83.5019 44.984 84.4539 45.964 85.1539L46.51 84.3279C45.502 83.6419 44.648 82.6759 43.92 81.4159C44.704 79.7639 45.138 77.7619 45.208 75.4239H46.118V74.4579H42.422C42.534 73.8419 42.646 73.1699 42.73 72.4559L41.75 72.2879C41.47 74.9479 40.91 77.0619 40.084 78.6299L40.714 79.3999C41.008 78.8959 41.288 78.3219 41.54 77.6779C41.918 79.0779 42.38 80.3099 42.926 81.3879ZM36.29 78.8259C36.192 79.1059 36.08 79.3999 35.954 79.7079H33.91V80.5899H35.562C35.282 81.1499 34.96 81.7239 34.596 82.3399C35.282 82.5919 35.926 82.8579 36.542 83.1239C35.73 83.5859 34.736 83.9639 33.588 84.2719L34.064 85.1119C35.464 84.7199 36.626 84.2019 37.55 83.5579C38.376 83.9219 39.09 84.2999 39.706 84.6639L40.252 83.8799C39.636 83.5439 38.992 83.2359 38.32 82.9279C39.048 82.2559 39.566 81.4579 39.874 80.5339V79.7079H36.948C37.032 79.4559 37.13 79.2039 37.228 78.9379L36.29 78.8259ZM37.396 82.5359C36.892 82.3259 36.36 82.1299 35.8 81.9339C36.08 81.5139 36.332 81.0659 36.556 80.5899H38.964C38.628 81.3179 38.096 81.9759 37.396 82.5359ZM35.016 72.5819L34.218 72.8479C34.554 73.3799 34.862 73.9819 35.156 74.6679L35.884 74.3319C35.632 73.7159 35.352 73.1279 35.016 72.5819ZM39.272 72.5399C39.02 73.1279 38.656 73.7159 38.208 74.3179L38.922 74.6819C39.37 74.0939 39.72 73.4919 40 72.8759L39.272 72.5399ZM33.938 75.0039V75.8859H35.926C35.506 76.6559 34.75 77.3559 33.672 77.9859L34.162 78.7979C35.366 77.9859 36.206 77.0339 36.668 75.9279V78.5879H37.606V76.7679C38.11 77.1039 38.712 77.5519 39.412 78.1119L39.93 77.3279C39.146 76.8519 38.362 76.4179 37.606 76.0399V75.8859H40.154V75.0039H37.606V72.3299H36.668V75.0039H33.938ZM49.296 85.0279C50.08 85.0279 50.472 84.6079 50.472 83.7959V79.7079C50.906 79.5119 51.34 79.3159 51.774 79.0919V78.0979C51.354 78.3219 50.92 78.5319 50.472 78.7279V75.9699H51.816V75.0039H50.472V72.3579H49.492V75.0039H47.812V75.9699H49.492V79.1339C48.876 79.3579 48.232 79.5539 47.588 79.7079L47.84 80.6879C48.386 80.5199 48.932 80.3239 49.492 80.1139V83.5439C49.492 83.9359 49.31 84.1459 48.96 84.1459C48.624 84.1459 48.26 84.1179 47.896 84.0759L48.106 85.0279H49.296ZM53.482 78.8399H56.338V80.5619H54V85.1539H54.938V84.4679H58.732V85.1539H59.67V80.5619H57.318V78.8399H60.314V77.9299H57.318V76.2779H59.95V72.8759H52.572V77.2579C52.558 80.1979 52.054 82.6059 51.06 84.4539L51.844 85.1539C52.768 83.3339 53.314 81.2339 53.482 78.8399ZM56.338 76.2779V77.9299H53.538C53.538 77.7059 53.552 77.4819 53.552 77.2579V76.2779H56.338ZM54.938 83.5719V81.4579H58.732V83.5719H54.938ZM58.97 73.8139V75.3679H53.552V73.8139H58.97ZM63.604 82.0879C63.324 82.0879 63.114 82.1579 62.946 82.3259C62.778 82.4799 62.694 82.6899 62.694 82.9559C62.694 83.1939 62.778 83.4039 62.946 83.5719C63.114 83.7399 63.31 83.8239 63.548 83.8239C63.688 83.8239 63.8 83.7959 63.856 83.7679C63.856 84.1039 63.758 84.4119 63.548 84.7059C63.324 84.9859 63.03 85.1959 62.666 85.3219V86.0079C63.254 85.8539 63.744 85.5459 64.108 85.0979C64.472 84.6219 64.654 84.0759 64.654 83.4599C64.654 83.0539 64.556 82.7319 64.374 82.4799C64.178 82.2139 63.912 82.0879 63.604 82.0879ZM83.596 72.3159V73.2259H80.208V74.0519H83.596V74.9899H80.768V75.8019H83.596V76.7539H79.816V77.5939H88.384V76.7539H84.562V75.8019H87.53V74.9899H84.562V74.0519H88.034V73.2259H84.562V72.3159H83.596ZM81.846 81.1219H86.368V82.1439H81.846V81.1219ZM86.368 80.3379H81.846V79.3019H86.368V80.3379ZM81.846 82.9279H86.368V83.7259C86.368 84.0479 86.186 84.2159 85.85 84.2159L84.73 84.1739L84.968 85.0699H86.144C86.928 85.0699 87.334 84.6919 87.334 83.9359V78.4759H80.88V85.1539H81.846V82.9279ZM77.282 72.4699L76.568 73.1559C77.576 73.9119 78.374 74.6259 78.962 75.2979L79.648 74.5979C79.004 73.8839 78.22 73.1699 77.282 72.4699ZM75.588 76.5999V77.5659H77.59V83.1239C77.59 83.3619 77.478 83.5719 77.268 83.7679L77.66 84.6639C78.528 84.0339 79.368 83.3059 80.152 82.4939L79.886 81.4299C79.41 81.9199 78.976 82.3539 78.556 82.7459V76.5999H75.588ZM92.318 75.4239H95.608V78.0699H89.854V79.0359H93.718C93.592 80.4639 93.27 81.5279 92.738 82.2279C92.136 83.0119 91.128 83.6979 89.7 84.2579L90.4 85.1539C91.94 84.4819 93.046 83.6699 93.704 82.7179C94.264 81.9059 94.614 80.6879 94.754 79.0359H97.358V83.3199C97.358 84.3979 97.834 84.9439 98.786 84.9439H100.69C101.138 84.9299 101.474 84.7899 101.726 84.5379C101.978 84.2159 102.174 83.2779 102.286 81.7379L101.32 81.4299C101.264 82.7459 101.152 83.5159 100.97 83.7399C100.83 83.8939 100.648 83.9779 100.424 83.9779H99.08C98.618 83.9779 98.394 83.6979 98.394 83.1379V79.0359H102.216V78.0699H96.63V75.4239H101.25V74.4579H96.63V72.3299H95.608V74.4579H92.752C92.976 73.9119 93.186 73.3379 93.368 72.7219L92.346 72.5119C91.898 74.0939 91.156 75.5359 90.134 76.8519L91.1 77.4539C91.548 76.8379 91.954 76.1659 92.318 75.4239ZM104.764 72.5399L104.078 73.1979C105.072 73.9819 105.856 74.7239 106.43 75.4239L107.13 74.7239C106.486 73.9959 105.702 73.2679 104.764 72.5399ZM112.898 84.9019H116.146L116.398 83.8939C116.02 83.9219 115.488 83.9359 114.816 83.9499C114.116 83.9639 113.43 83.9779 112.758 83.9779C111.666 83.9779 110.742 83.9639 110.014 83.9499C109.174 83.9219 108.544 83.8099 108.11 83.6139C107.718 83.4319 107.354 83.1379 107.018 82.7319C106.906 82.6059 106.794 82.4939 106.682 82.4099V77.1739H103.756V78.0979H105.744V82.3539C105.156 82.6059 104.498 83.3339 103.742 84.5239L104.498 85.2099C105.282 83.8939 105.842 83.2499 106.192 83.2499C106.36 83.2499 106.542 83.3619 106.738 83.5999C107.172 84.1039 107.662 84.4539 108.208 84.6219C108.768 84.7759 109.51 84.8599 110.406 84.8739C111.302 84.8879 112.142 84.9019 112.898 84.9019ZM111.694 72.2739V74.0659H109.846C110.014 73.6179 110.168 73.1559 110.308 72.6659L109.342 72.4699C109.006 73.7299 108.46 74.8919 107.704 75.9419L108.586 76.4879C108.894 76.0399 109.174 75.5639 109.426 75.0319H111.694V77.0339H108.054V78.0139H110.308C110.266 78.8819 110.126 79.6379 109.888 80.2539C109.524 81.0939 108.782 81.7939 107.648 82.3539L108.306 83.1519C109.622 82.4659 110.476 81.5839 110.84 80.5199C111.078 79.8199 111.218 78.9799 111.26 78.0139H112.674V81.9899C112.674 82.2979 112.758 82.5499 112.954 82.7459C113.136 82.9419 113.402 83.0399 113.766 83.0399H114.774C115.25 83.0259 115.586 82.9139 115.782 82.7179C115.992 82.4939 116.146 81.8079 116.23 80.6459L115.348 80.3519C115.292 81.3459 115.18 81.9059 115.012 82.0319C114.9 82.1159 114.76 82.1579 114.564 82.1579H114.06C113.752 82.1579 113.612 82.0179 113.612 81.7659V78.0139H115.964V77.0339H112.674V75.0319H115.474V74.0659H112.674V72.2739H111.694ZM122.782 72.8759V73.7859H123.482C123.874 74.8499 124.504 75.7319 125.386 76.4459C124.518 76.8659 123.482 77.2019 122.292 77.4819L122.768 78.3359C124.126 77.9999 125.302 77.5799 126.282 77.0479C127.29 77.6359 128.578 78.0419 130.118 78.2519L130.482 77.3559C129.208 77.1879 128.116 76.8939 127.22 76.4739C128.284 75.7179 129.012 74.8079 129.418 73.7159V72.8759H122.782ZM124.476 73.7859H128.354C127.92 74.6259 127.234 75.3399 126.282 75.9419C125.456 75.3819 124.854 74.6539 124.476 73.7859ZM119.268 85.0279C120.094 85.0279 120.514 84.6219 120.514 83.8099V79.7919C121.06 79.5679 121.592 79.3299 122.11 79.0779V78.0559C121.578 78.3219 121.046 78.5739 120.514 78.7979V75.9699H122.082V75.0039H120.514V72.3579H119.478V75.0039H117.77V75.9699H119.478V79.1759C118.848 79.3859 118.204 79.5679 117.546 79.7219L117.798 80.7299C118.358 80.5619 118.918 80.3799 119.478 80.1839V83.5439C119.478 83.9079 119.282 84.1039 118.918 84.1039C118.568 84.1039 118.204 84.0759 117.84 84.0479L118.05 85.0279H119.268ZM123.02 79.3439V80.2679H125.82V81.8639H122.306V82.8019H125.82V85.0139H126.8V82.8019H130.272V81.8639H126.8V80.2679H129.558V79.3439H126.8V78.1119H125.82V79.3439H123.02ZM135.886 73.4779V74.3739H137.93V75.4239H138.868V74.3739H141.122V75.4239H142.074V74.3739H144.244V73.4779H142.074V72.3579H141.122V73.4779H138.868V72.3579H137.93V73.4779H135.886ZM139.82 82.2699C140.632 83.4459 141.934 84.4119 143.754 85.1959L144.426 84.3979C142.774 83.8099 141.542 83.0399 140.73 82.0879H144.272V81.1639H140.24C140.324 80.8419 140.408 80.4919 140.464 80.0999H143.334V75.8579H136.628V80.0999H139.568C139.498 80.4639 139.414 80.8279 139.302 81.1639H135.62V82.0879H138.882C138.77 82.2839 138.63 82.4659 138.49 82.6479C137.874 83.3619 136.88 83.9079 135.48 84.2859L135.844 85.1259C137.454 84.6639 138.574 84.0339 139.218 83.2219C139.442 82.9419 139.652 82.6199 139.82 82.2699ZM134.528 77.9859C134.892 78.5599 135.34 79.3019 135.858 80.2259L136.39 79.4279C135.746 78.4899 135.13 77.6499 134.528 76.9219V75.9979H135.998V75.0879H134.528V72.3719H133.576V75.0879H131.952V75.9979H133.576V76.0819C133.156 77.7899 132.456 79.3019 131.49 80.6459L131.924 81.7379C132.596 80.6599 133.142 79.4559 133.576 78.1399V85.1119H134.528V77.9859ZM142.424 79.3159H137.538V78.3639H142.424V79.3159ZM137.538 77.6079V76.6699H142.424V77.6079H137.538ZM23.06 94.4699V98.1799H21.562V94.7499H20.568V99.8879C20.554 102.8 20.218 104.928 19.574 106.258L20.33 106.93C20.932 105.81 21.31 104.214 21.478 102.114H23.228V107.098H24.222V101.148H21.534C21.548 100.742 21.562 100.322 21.562 99.8879V99.1739H24.866V98.1799H24.04V94.4699H23.06ZM26.588 99.3279H27.05C27.372 101.204 27.932 102.8 28.73 104.102C28.002 104.97 27.12 105.698 26.07 106.272L26.56 107.168C27.624 106.594 28.548 105.852 29.318 104.956C30.018 105.88 30.9 106.608 31.95 107.154L32.454 106.272C31.46 105.768 30.62 105.068 29.934 104.144C30.83 102.814 31.446 101.176 31.768 99.2299V98.3759H26.588V96.1779C28.618 96.0939 30.466 95.8139 32.118 95.3379L31.614 94.4279C29.85 94.9879 27.862 95.2819 25.664 95.3099V100.868C25.608 103.192 25.23 105.026 24.53 106.342L25.23 107.084C26.07 105.544 26.532 103.472 26.588 100.868V99.3279ZM27.96 99.3279H30.788C30.536 100.812 30.046 102.128 29.346 103.248C28.73 102.156 28.268 100.854 27.96 99.3279ZM35.604 104.088C35.324 104.088 35.114 104.158 34.946 104.326C34.778 104.48 34.694 104.69 34.694 104.956C34.694 105.194 34.778 105.404 34.946 105.572C35.114 105.74 35.31 105.824 35.548 105.824C35.688 105.824 35.8 105.796 35.856 105.768C35.856 106.104 35.758 106.412 35.548 106.706C35.324 106.986 35.03 107.196 34.666 107.322V108.008C35.254 107.854 35.744 107.546 36.108 107.098C36.472 106.622 36.654 106.076 36.654 105.46C36.654 105.054 36.556 104.732 36.374 104.48C36.178 104.214 35.912 104.088 35.604 104.088ZM48.12 94.9599V95.9119H53.496V97.3539H49.31V102.66H47.7V103.612H49.31V107.154H50.29V103.612H57.71V105.46C57.71 105.936 57.5 106.174 57.094 106.174L55.778 106.132L56.044 107.112H57.416C58.256 107.112 58.69 106.636 58.69 105.684V103.612H60.3V102.66H58.69V97.3539H54.504V95.9119H59.894V94.9599H48.12ZM50.29 102.66V100.882H53.496V102.66H50.29ZM54.504 102.66V100.882H57.71V102.66H54.504ZM50.29 99.9859V98.2779H53.496V99.9859H50.29ZM54.504 98.2779H57.71V99.9859H54.504V98.2779ZM62.792 94.5399L62.106 95.1979C63.1 95.9959 63.884 96.7379 64.444 97.4239L65.172 96.7099C64.528 95.9819 63.73 95.2679 62.792 94.5399ZM70.926 106.902H74.132L74.37 105.894C74.006 105.922 73.474 105.936 72.802 105.95C72.116 105.964 71.444 105.978 70.786 105.978C69.708 105.978 68.798 105.964 68.07 105.95C67.258 105.922 66.628 105.81 66.208 105.614C65.816 105.432 65.466 105.138 65.13 104.732C65.018 104.606 64.906 104.494 64.794 104.41V99.1739H61.854V100.098H63.856V104.354C63.282 104.606 62.624 105.32 61.882 106.496L62.638 107.182C63.408 105.894 63.954 105.25 64.29 105.25C64.458 105.25 64.64 105.362 64.822 105.6C65.256 106.104 65.746 106.454 66.292 106.622C66.852 106.776 67.566 106.86 68.462 106.874C69.344 106.888 70.17 106.902 70.926 106.902ZM66.138 96.5279V97.4659H67.79V98.5719C67.79 99.1599 67.748 99.7199 67.678 100.252H65.648V101.204H67.496C67.188 102.52 66.586 103.5 65.704 104.13L66.306 104.942C67.384 104.13 68.112 102.884 68.476 101.204H70.968V105.222H71.948V101.204H74.174V100.252H71.948V97.4659H73.726V96.5279H71.948V94.3159H70.968V96.5279H68.756V94.3019H67.79V96.5279H66.138ZM68.756 97.4659H70.968V100.252H68.644C68.714 99.6639 68.756 99.0199 68.756 98.3479V97.4659ZM80.95 95.2119V96.2059H87.656V95.2119H80.95ZM80.572 98.7679V99.7619H84.982V105.628C84.982 105.992 84.744 106.174 84.296 106.174C83.68 106.174 83.05 106.146 82.378 106.104L82.588 107.098H84.646C85.542 107.098 86.004 106.692 86.004 105.88V99.7619H88.272V98.7679H80.572ZM78.738 94.4419C78.08 95.7579 77.03 96.9339 75.574 97.9699L75.868 98.9779C77.604 97.7879 78.864 96.4159 79.648 94.8619L78.738 94.4419ZM79.396 97.6339C78.612 99.1879 77.366 100.56 75.658 101.764L75.952 102.772C76.624 102.31 77.226 101.82 77.786 101.316V107.154H78.78V100.294C79.396 99.5939 79.9 98.8379 80.306 98.0539L79.396 97.6339ZM102.356 103.402L101.362 103.08C101.32 104.2 101.25 104.956 101.138 105.334C101.026 105.726 100.774 105.922 100.382 105.922H98.184C97.89 105.908 97.75 105.656 97.75 105.18V100.588H101.572V94.9179H96.532V95.8699H100.592V99.6079H96.77V105.544C96.77 106.426 97.106 106.874 97.778 106.874H100.55C101.222 106.874 101.656 106.65 101.88 106.23C102.104 105.796 102.258 104.858 102.356 103.402ZM89.7 94.9039V95.8559H91.59V97.4799H90.064V107.098H90.96V106.342H94.95V107.098H95.846V97.4799H94.25V95.8559H96.07V94.9039H89.7ZM90.96 105.39V104.032H94.95V105.39H90.96ZM91.786 98.4039V99.3139C91.772 100.602 91.52 101.526 91.016 102.114L91.548 102.604C92.136 101.904 92.444 100.812 92.472 99.3139V98.4039H93.354V100.924C93.354 101.568 93.648 101.89 94.236 101.89H94.95V103.108H90.96V98.4039H91.786ZM92.458 97.4799V95.8559H93.382V97.4799H92.458ZM94.95 101.106H94.404C94.166 101.106 94.054 100.98 94.054 100.742V98.4039H94.95V101.106ZM103.994 98.2779V99.0479H109.328C109.272 99.3139 109.23 99.5799 109.174 99.8459H105.772V106.02H103.742V106.832H116.272V106.02H114.242V99.8459H110.182C110.238 99.5939 110.28 99.3279 110.336 99.0479H116.02V98.2779H110.448L110.532 97.4659H115.068V94.8479H104.932V97.4659H109.524L109.44 98.2779H103.994ZM106.752 106.02V105.096H113.248V106.02H106.752ZM106.752 104.466V103.584H113.248V104.466H106.752ZM106.752 102.94V102.058H113.248V102.94H106.752ZM106.752 101.428V100.546H113.248V101.428H106.752ZM114.116 96.7519H112.03V95.5899H114.116V96.7519ZM111.106 96.7519H108.894V95.5899H111.106V96.7519ZM107.984 96.7519H105.898V95.5899H107.984V96.7519ZM119.856 95.7579L120.066 103.066H120.934L121.158 95.7579H119.856ZM120.5 104.088C120.262 104.088 120.066 104.158 119.898 104.326C119.73 104.48 119.66 104.676 119.66 104.914C119.66 105.152 119.73 105.348 119.898 105.516C120.066 105.67 120.262 105.754 120.5 105.754C120.738 105.754 120.948 105.67 121.116 105.516C121.27 105.362 121.354 105.166 121.354 104.914C121.354 104.676 121.27 104.48 121.116 104.326C120.948 104.158 120.738 104.088 120.5 104.088Z" fill="black" fill-opacity="0.85"/>
</g>
<defs>
<linearGradient id="paint0_linear_461_23577" x1="76.6639" y1="27.9586" x2="76.6639" y2="-6.30402" gradientUnits="userSpaceOnUse">
<stop stop-color="#DEDEDE" stop-opacity="0"/>
<stop offset="1" stop-color="#A9A9A9" stop-opacity="0.3"/>
</linearGradient>
<linearGradient id="paint1_linear_461_23577" x1="72.4068" y1="56.9797" x2="72.4068" y2="47.2627" gradientUnits="userSpaceOnUse">
<stop stop-color="white" stop-opacity="0"/>
<stop offset="1" stop-color="#96A1C5" stop-opacity="0.373"/>
</linearGradient>
<linearGradient id="paint2_linear_461_23577" x1="74.9998" y1="59.7537" x2="74.9998" y2="43.7965" gradientUnits="userSpaceOnUse">
<stop stop-color="white" stop-opacity="0"/>
<stop offset="1" stop-color="#919191" stop-opacity="0.15"/>
</linearGradient>
<linearGradient id="paint3_linear_461_23577" x1="74.438" y1="30.0615" x2="74.438" y2="36.1959" gradientUnits="userSpaceOnUse">
<stop stop-color="#5389F5"/>
<stop offset="1" stop-color="#416FDC"/>
</linearGradient>
<linearGradient id="paint4_linear_461_23577" x1="78.258" y1="47.8937" x2="78.258" y2="35.3924" gradientUnits="userSpaceOnUse">
<stop stop-color="#DCE9FF"/>
<stop offset="1" stop-color="#B6CFFF"/>
</linearGradient>
<linearGradient id="paint5_linear_461_23577" x1="74.4384" y1="39.1504" x2="74.4384" y2="51.0844" gradientUnits="userSpaceOnUse">
<stop stop-color="#7CA5F7"/>
<stop offset="1" stop-color="#C4D6FC"/>
</linearGradient>
<clipPath id="clip0_461_23577">
<rect width="150" height="119.507" fill="white" transform="translate(0 0.246094)"/>
</clipPath>
</defs>
</svg>
