<svg width="48" height="48" viewBox="0 0 48 48" fill="none" xmlns="http://www.w3.org/2000/svg">
<rect width="48" height="48" rx="24" fill="#9254DE"/>
<rect width="48" height="48" rx="24" fill="white" fill-opacity="0.2"/>
<g clip-path="url(#clip0_1035_27970)">
<path d="M31.6429 30.4487C31.6473 30.442 31.654 30.4353 31.6585 30.4286C33.1205 28.6897 34 26.4487 34 24C34 21.5513 33.1205 19.3103 31.6607 17.5714C31.6562 17.5647 31.6496 17.5603 31.6451 17.5536C31.6205 17.5246 31.5982 17.4978 31.5737 17.471C31.5647 17.4598 31.5558 17.4509 31.5469 17.4397L31.4554 17.3348L31.4531 17.3326C31.4196 17.2946 31.3839 17.2567 31.3504 17.2188L31.3482 17.2165C31.2768 17.1406 31.2054 17.0647 31.1317 16.9911L31.1295 16.9888L31.0223 16.8817L31.0156 16.875C30.9821 16.8415 30.9487 16.8103 30.9152 16.779C30.904 16.7679 30.8929 16.7567 30.8795 16.7455C30.8571 16.7232 30.8348 16.7031 30.8125 16.683C30.8058 16.6763 30.7969 16.6696 30.7902 16.6607C29.0089 15.0089 26.6228 14 24 14C21.3772 14 18.9911 15.0089 17.2076 16.6607C17.2009 16.6674 17.192 16.6741 17.1853 16.683C17.1629 16.7031 17.1406 16.7254 17.1183 16.7478C17.1071 16.7589 17.096 16.7701 17.0826 16.7813C17.0491 16.8125 17.0156 16.846 16.9821 16.8772L16.9754 16.8839L16.8683 16.9911L16.8661 16.9933C16.7924 17.067 16.721 17.1429 16.6496 17.2188L16.6473 17.221C16.6116 17.2589 16.5781 17.2969 16.5446 17.3348L16.5424 17.3371C16.5112 17.3705 16.4799 17.4062 16.4509 17.442C16.442 17.4531 16.433 17.4621 16.4241 17.4732C16.3996 17.5 16.3772 17.529 16.3527 17.5558C16.3482 17.5625 16.3415 17.567 16.3371 17.5737C14.8795 19.3103 14 21.5513 14 24C14 26.4487 14.8795 28.6897 16.3393 30.4286C16.3438 30.4353 16.3504 30.442 16.3549 30.4487L16.4241 30.5312C16.433 30.5424 16.442 30.5513 16.4509 30.5625L16.5424 30.6674C16.5424 30.6696 16.5446 30.6696 16.5446 30.6719C16.5781 30.7098 16.6116 30.7478 16.6473 30.7835L16.6496 30.7857C16.721 30.8616 16.7924 30.9375 16.8638 31.0112L16.8661 31.0134C16.9018 31.0491 16.9353 31.0848 16.971 31.1183L16.9777 31.125C17.0513 31.1987 17.1272 31.2701 17.2031 31.3393C18.9911 32.9911 21.3772 34 24 34C26.6228 34 29.0089 32.9911 30.7924 31.3393C30.8685 31.2696 30.9429 31.1981 31.0156 31.125L31.0223 31.1183C31.058 31.0826 31.0938 31.0491 31.1272 31.0134L31.1295 31.0112C31.2031 30.9375 31.2746 30.8616 31.3438 30.7857L31.346 30.7835C31.3795 30.7455 31.4152 30.7098 31.4487 30.6719C31.4487 30.6696 31.4509 30.6696 31.4509 30.6674C31.4821 30.6339 31.5134 30.5982 31.5424 30.5625C31.5513 30.5513 31.5603 30.5424 31.5692 30.5312C31.5944 30.5043 31.619 30.4768 31.6429 30.4487ZM31.7344 27.2656C31.4263 27.9933 31.0201 28.6674 30.5246 29.279C29.9665 28.7967 29.3563 28.3782 28.7054 28.0312C28.9643 26.9844 29.125 25.8348 29.1674 24.625H32.3705C32.3036 25.5379 32.0893 26.4241 31.7344 27.2656ZM32.3705 23.375H29.1674C29.125 22.1652 28.9643 21.0156 28.7054 19.9688C29.3594 19.6205 29.9688 19.2009 30.5246 18.721C31.6017 20.0468 32.2461 21.6713 32.3705 23.375ZM27.2656 16.2656C28.1518 16.6406 28.9576 17.1585 29.6674 17.8103C29.2551 18.1614 28.8112 18.4737 28.3415 18.7433C27.9911 17.7388 27.5424 16.8661 27.0201 16.1674C27.1027 16.1987 27.1853 16.2321 27.2656 16.2656ZM25.2433 31.904C25.0379 32.0647 24.8326 32.1875 24.625 32.2701V28.1295C25.5107 28.1913 26.3817 28.3885 27.2076 28.7143C27.0223 29.2634 26.808 29.7701 26.5603 30.2277C26.1719 30.9509 25.7165 31.529 25.2433 31.904ZM26.5603 17.7723C26.8058 18.2321 27.0223 18.7388 27.2076 19.2857C26.3817 19.6115 25.5107 19.8087 24.625 19.8705V15.7321C24.8304 15.8147 25.0379 15.9353 25.2433 16.0982C25.7165 16.471 26.1719 17.0491 26.5603 17.7723ZM24.625 26.8772V24.625H27.9174C27.8817 25.6116 27.7589 26.5692 27.5536 27.4777L27.5469 27.5045C26.6101 27.1492 25.625 26.9378 24.625 26.8772ZM24.625 23.375V21.1228C25.6473 21.0603 26.6295 20.8438 27.5469 20.4955L27.5536 20.5223C27.7589 21.4308 27.8817 22.3862 27.9174 23.375H24.625ZM23.375 24.625V26.8772C22.3527 26.9397 21.3705 27.1562 20.4531 27.5045L20.4464 27.4777C20.2411 26.5692 20.1183 25.6138 20.0826 24.625H23.375ZM20.0826 23.375C20.1183 22.3884 20.2411 21.4308 20.4464 20.5223L20.4531 20.4955C21.3705 20.8438 22.3504 21.0603 23.375 21.1228V23.375H20.0826ZM23.375 28.1295V32.2679C23.1696 32.1853 22.9621 32.0647 22.7567 31.9018C22.2835 31.529 21.8259 30.9487 21.4375 30.2254C21.192 29.7656 20.9754 29.2589 20.7902 28.7121C21.6205 28.3862 22.4844 28.192 23.375 28.1295ZM23.375 19.8705C22.4893 19.8087 21.6183 19.6115 20.7924 19.2857C20.9777 18.7366 21.192 18.2299 21.4397 17.7723C21.8281 17.0491 22.2835 16.4688 22.7589 16.096C22.9643 15.9353 23.1696 15.8125 23.3772 15.7299V19.8705H23.375ZM20.7344 16.2656C20.817 16.2321 20.8973 16.1987 20.9799 16.1674C20.4576 16.8661 20.0089 17.7388 19.6585 18.7433C19.1897 18.4754 18.7455 18.1629 18.3326 17.8103C19.0424 17.1585 19.8482 16.6406 20.7344 16.2656ZM16.2656 20.7344C16.5737 20.0067 16.9799 19.3326 17.4754 18.721C18.0312 19.2009 18.6406 19.6205 19.2946 19.9688C19.0357 21.0156 18.875 22.1652 18.8326 23.375H15.6295C15.6964 22.4621 15.9107 21.5759 16.2656 20.7344ZM15.6295 24.625H18.8326C18.875 25.8348 19.0357 26.9844 19.2946 28.0312C18.6437 28.3782 18.0335 28.7967 17.4754 29.279C16.3983 27.9532 15.7539 26.3287 15.6295 24.625ZM20.7344 31.7344C19.8482 31.3594 19.0424 30.8415 18.3326 30.1897C18.7455 29.8371 19.1897 29.5268 19.6585 29.2567C20.0089 30.2612 20.4576 31.1339 20.9799 31.8326C20.8973 31.8013 20.8147 31.7679 20.7344 31.7344ZM27.2656 31.7344C27.183 31.7679 27.1027 31.8013 27.0201 31.8326C27.5424 31.1339 27.9911 30.2612 28.3415 29.2567C28.8103 29.5246 29.2545 29.8371 29.6674 30.1897C28.9615 30.8388 28.149 31.3613 27.2656 31.7344Z" fill="white"/>
</g>
<defs>
<clipPath id="clip0_1035_27970">
<rect width="20" height="20" fill="white" transform="translate(14 14)"/>
</clipPath>
</defs>
</svg>
