<svg width="8" height="19" viewBox="0 0 8 19" fill="none" xmlns="http://www.w3.org/2000/svg">
<path d="M0 1.58333C0 2.00326 0.158035 2.40599 0.43934 2.70292C0.720644 2.99985 1.10218 3.16667 1.5 3.16667C1.89782 3.16667 2.27936 2.99985 2.56066 2.70292C2.84196 2.40599 3 2.00326 3 1.58333C3 1.16341 2.84196 0.76068 2.56066 0.463748C2.27936 0.166815 1.89782 0 1.5 0C1.10218 0 0.720644 0.166815 0.43934 0.463748C0.158035 0.76068 0 1.16341 0 1.58333ZM0 9.5C0 9.91993 0.158035 10.3227 0.43934 10.6196C0.720644 10.9165 1.10218 11.0833 1.5 11.0833C1.89782 11.0833 2.27936 10.9165 2.56066 10.6196C2.84196 10.3227 3 9.91993 3 9.5C3 9.08007 2.84196 8.67735 2.56066 8.38041C2.27936 8.08348 1.89782 7.91667 1.5 7.91667C1.10218 7.91667 0.720644 8.08348 0.43934 8.38041C0.158035 8.67735 0 9.08007 0 9.5ZM0 17.4167C0 17.8366 0.158035 18.2393 0.43934 18.5363C0.720644 18.8332 1.10218 19 1.5 19C1.89782 19 2.27936 18.8332 2.56066 18.5363C2.84196 18.2393 3 17.8366 3 17.4167C3 16.9967 2.84196 16.594 2.56066 16.2971C2.27936 16.0001 1.89782 15.8333 1.5 15.8333C1.10218 15.8333 0.720644 16.0001 0.43934 16.2971C0.158035 16.594 0 16.9967 0 17.4167Z" fill="black"/>
<path d="M5 1.58333C5 2.00326 5.15803 2.40599 5.43934 2.70292C5.72064 2.99985 6.10218 3.16667 6.5 3.16667C6.89782 3.16667 7.27936 2.99985 7.56066 2.70292C7.84196 2.40599 8 2.00326 8 1.58333C8 1.16341 7.84196 0.76068 7.56066 0.463748C7.27936 0.166815 6.89782 0 6.5 0C6.10218 0 5.72064 0.166815 5.43934 0.463748C5.15803 0.76068 5 1.16341 5 1.58333ZM5 9.5C5 9.91993 5.15803 10.3227 5.43934 10.6196C5.72064 10.9165 6.10218 11.0833 6.5 11.0833C6.89782 11.0833 7.27936 10.9165 7.56066 10.6196C7.84196 10.3227 8 9.91993 8 9.5C8 9.08007 7.84196 8.67735 7.56066 8.38041C7.27936 8.08348 6.89782 7.91667 6.5 7.91667C6.10218 7.91667 5.72064 8.08348 5.43934 8.38041C5.15803 8.67735 5 9.08007 5 9.5ZM5 17.4167C5 17.8366 5.15803 18.2393 5.43934 18.5363C5.72064 18.8332 6.10218 19 6.5 19C6.89782 19 7.27936 18.8332 7.56066 18.5363C7.84196 18.2393 8 17.8366 8 17.4167C8 16.9967 7.84196 16.594 7.56066 16.2971C7.27936 16.0001 6.89782 15.8333 6.5 15.8333C6.10218 15.8333 5.72064 16.0001 5.43934 16.2971C5.15803 16.594 5 16.9967 5 17.4167Z" fill="black"/>
</svg>
