<svg width="40" height="40" viewBox="0 0 40 40" fill="none" xmlns="http://www.w3.org/2000/svg">
<g clip-path="url(#clip0_1553_28982)">
<rect x="12.3585" y="0.706619" width="38" height="15.8998" transform="rotate(47.1291 12.3585 0.706619)" fill="#FFF6F7"/>
<path d="M10.6845 19.8777L10.8315 19.8832C10.9959 19.7543 11.2338 19.6281 11.5452 19.5047L12.7505 18.7762C12.8386 18.7182 12.9076 18.6778 12.9576 18.6551C13.0075 18.6324 13.1217 18.5323 13.3001 18.3548L13.3308 18.3243C13.4906 18.1662 13.5853 18.079 13.6147 18.0628C13.6461 18.0455 13.7053 18.0201 13.7925 17.9865L14.0158 18.4183C14.0484 18.5299 14.2654 18.6362 14.6667 18.737C15.068 18.8379 15.3244 18.8719 15.4361 18.8393C15.5478 18.8066 15.7219 18.7456 15.9584 18.6562C16.1949 18.5668 16.3767 18.4631 16.5039 18.3451L16.8103 18.0251C16.8612 17.9779 16.9729 17.9452 17.1454 17.9271L17.298 17.2884L17.2517 17.0473L17.1456 16.4358C17.0993 16.3605 17.0353 16.266 16.9536 16.1525C16.8238 16.0127 16.7049 15.9101 16.5968 15.8447L15.5823 15.402C15.546 15.3884 15.4986 15.3436 15.44 15.2678C15.3815 15.192 15.3227 15.1223 15.2637 15.0587L14.9422 15.2861C14.8705 15.2344 14.8265 15.0977 14.8102 14.8762C14.7939 14.6547 14.6859 14.4236 14.4862 14.183C14.2865 13.9423 14.0532 13.7803 13.7863 13.6967C13.5193 13.6131 13.3709 13.5616 13.341 13.5421C13.311 13.5225 13.3037 13.4701 13.3192 13.3848L14.5435 13.1357C14.5808 13.1248 14.8168 13.0477 15.2517 12.9043L15.2858 12.9792L15.4137 13.4994C15.4119 13.5485 15.4341 13.6107 15.4804 13.686L15.1263 13.8017L14.922 13.8494C14.9093 13.8612 14.9025 13.8793 14.9016 13.9038L14.9874 14.0727L15.1834 14.2457L15.2869 14.4337L15.3959 14.4745C15.4077 14.4872 15.4492 14.5256 15.5205 14.5896C15.5917 14.6536 15.7 14.7129 15.8452 14.7674L16.5915 14.9976C16.7485 15.0649 16.8489 15.0901 16.8924 15.0733C16.936 15.0565 16.9955 15.0249 17.0709 14.9786C17.109 14.9432 17.1508 14.8926 17.1962 14.8268C17.2416 14.761 17.2443 14.4389 17.2045 13.8606C16.9521 13.7162 16.7469 13.6227 16.589 13.58L16.5018 13.4478L15.9598 13.17C15.7928 13.041 15.6793 12.957 15.6194 12.918L15.6399 12.8635C15.6408 12.839 15.7338 12.8118 15.919 12.7818C16.1043 12.7519 16.3519 12.6936 16.662 12.6069C16.9333 12.5311 17.1357 12.4739 17.2694 12.4352L17.3225 12.4198C17.4528 12.3817 17.7394 12.3463 18.1825 12.3137C18.286 12.5016 18.2816 12.7837 18.1694 13.16C18.0573 13.5364 17.9771 13.877 17.9289 14.1821L17.689 15.6828L17.5528 16.3773C17.4474 16.9012 17.4505 17.3125 17.5621 17.6112L18.1122 18.6626C18.1784 18.8614 18.2174 18.9672 18.2292 18.9799L18.4743 19.3204L18.6772 19.8066C18.7325 19.9682 18.8433 20.1258 19.0094 20.2792C19.1746 20.4572 19.3262 20.5058 19.4642 20.425C19.5024 20.3896 19.5369 20.2866 19.5678 20.1159L19.681 19.0523C19.6683 18.7327 19.6012 18.3927 19.4796 18.0322L18.8737 16.5001C18.7857 16.2268 18.7599 15.9313 18.7962 15.6135L18.8849 14.7147L19.0813 12.4023L19.1603 12.258L19.4531 12.3057L19.6043 12.2008C19.6551 12.1536 19.6949 12.0753 19.7235 11.9659C19.7521 11.8565 19.7396 11.6965 19.6861 11.4859C19.6326 11.2752 19.6126 11.1517 19.6262 11.1154L19.6549 10.8403C19.634 10.7414 19.5932 10.6846 19.5323 10.6701L19.3294 10.681L19.0734 10.6346C18.988 10.6192 18.8827 10.6459 18.7574 10.7149L19.0298 10.8171L18.9875 10.9628C18.9739 10.9991 18.8634 11.0012 18.6559 10.9689C18.4485 10.9366 18.1464 10.9745 17.7496 11.0825L16.7677 11.2485L16.1358 11.4091L14.9482 11.6595L12.9394 12.2108C12.7787 12.2416 12.4882 12.2983 12.0678 12.3809C11.6474 12.4635 11.3859 12.4814 11.2834 12.4346C11.1808 12.3878 11.0759 12.3195 10.9688 12.2296L10.9116 12.2827L11.1539 12.6967L11.4617 12.837L11.5475 13.0059C11.6328 13.0214 11.7263 13.0647 11.828 13.136C11.9297 13.2073 12.1943 13.2693 12.6219 13.322L12.6737 13.416L12.3332 13.6611C12.3087 13.6602 12.2199 13.7366 12.0669 13.8905C11.9139 14.0444 11.7475 14.3113 11.5677 14.6912C11.3879 15.0711 11.4854 15.5013 11.8603 15.9816C11.883 16.0315 11.9247 16.0638 11.9856 16.0783L12.578 15.9899L13.2235 15.9586L13.2998 15.8878L13.5939 15.8988C13.8055 15.8207 13.9571 15.7865 14.0488 15.796C14.1405 15.8056 14.2531 15.8312 14.3865 15.873L14.3103 15.9438L14.0447 16.1549C13.8803 16.2838 13.7734 16.3534 13.7239 16.3639C13.6744 16.3743 13.6315 16.3727 13.5952 16.3591L13.538 16.4122L13.5516 16.5416L12.0221 18.068L11.9267 18.1565L11.7701 18.4084L11.5603 18.6031L11.3097 18.9068C11.1953 19.013 11.144 19.0725 11.1558 19.0852L10.976 19.4651L10.7076 19.7497C10.6822 19.7733 10.6745 19.816 10.6845 19.8777ZM14.914 17.5311C14.7919 17.5143 14.6673 17.3992 14.5402 17.1859L15.6639 16.1782C16.0615 16.3771 16.3915 16.5796 16.6539 16.7858L16.4632 16.9628C16.3742 17.0454 16.2612 17.1148 16.1241 17.1711L15.6392 17.3372C15.2779 17.4833 15.0361 17.5479 14.914 17.5311ZM12.6245 14.7397L12.6286 14.6294C12.6168 14.6167 12.6794 14.5822 12.8165 14.5259L13.044 14.3503L13.0998 14.3339L13.6404 14.6486L12.6245 14.7397ZM19.8824 29.9771L19.9437 29.8137L20.2419 29.7143L20.7363 29.2908C20.9624 29.152 21.1356 29.0326 21.2559 28.9327C21.3762 28.8329 21.4868 28.748 21.5876 28.6781L21.9485 28.3786C21.9739 28.355 21.9932 28.3311 22.0064 28.3071C22.0196 28.283 22.0398 28.2347 22.067 28.162L22.1773 28.1661L22.4838 27.8462L22.541 27.7931C22.5673 27.7449 22.5928 27.7213 22.6173 27.7222L22.8216 27.6746C22.8588 27.6637 22.941 27.5993 23.0681 27.4813L23.3337 27.2702C23.4735 27.1404 23.562 27.07 23.5993 27.0592L24.1059 26.8018C24.0941 26.7891 24.1073 26.7651 24.1454 26.7297L24.2557 26.7338L24.4083 26.5922L24.539 26.5418C24.5517 26.53 24.6087 26.483 24.7099 26.4009C24.8112 26.3187 24.9431 26.2377 25.1056 26.1578C25.3543 26.4003 25.6233 26.5944 25.9124 26.7401C26.2015 26.8859 26.3736 26.9629 26.4285 26.971C26.4834 26.9792 26.5232 26.9838 26.5477 26.9847L26.6008 27.0419C26.6126 27.0546 26.6503 27.0314 26.7138 26.9724L26.7357 26.3841L26.7235 26.218C26.6999 26.1925 26.7793 26.2016 26.9618 26.2452L27.5283 26.3584L28.4203 26.6308C28.5428 26.6354 28.6252 26.6477 28.6674 26.6677C28.7096 26.6876 28.7598 26.7417 28.8179 26.8297L29.0766 26.8025L29.1543 26.695L29.3463 26.4812C29.5007 26.2905 29.5784 26.1001 29.5793 25.9099C29.5802 25.7197 29.5523 25.4793 29.4956 25.1888C29.4389 24.8983 29.3849 24.6999 29.3337 24.5936C29.2824 24.4874 29.2288 24.3596 29.173 24.2103C29.1172 24.0609 29.0721 23.9549 29.0376 23.8923L28.5052 23.357C28.4815 23.3315 28.4707 23.2943 28.4725 23.2453L28.8157 22.9267L28.9097 22.8749C28.9351 22.8513 28.9701 22.736 29.0146 22.529C29.0591 22.322 29.0846 22.1328 29.0909 21.9612C29.0973 21.7896 29.0381 21.5664 28.9133 21.2918C28.7885 21.0171 28.7184 20.8396 28.703 20.7593C28.6876 20.6789 28.6774 20.6233 28.6724 20.5924C28.6674 20.5616 28.6059 20.4826 28.4879 20.3555C28.2863 20.1639 28.1311 20.0476 28.0222 20.0068L27.9813 20.1157C27.9559 20.1393 27.9738 20.2351 28.035 20.4031C28.0963 20.571 28.143 20.717 28.1753 20.8409C28.2075 20.9648 28.2576 21.1017 28.3257 21.2515L28.2058 21.5048L28.0764 21.5184L27.8667 21.7131C27.7141 21.8547 27.5811 21.9664 27.4676 22.0481C27.3541 22.1298 27.1784 22.2337 26.9405 22.3599C26.7608 22.2427 26.5915 22.1751 26.4326 22.1569L25.8892 21.9158C25.695 21.8595 25.5774 21.8029 25.5365 21.7462C25.4957 21.6894 25.4662 21.6576 25.448 21.6508C25.4299 21.644 25.3958 21.652 25.3459 21.6747L24.8748 20.976L24.8367 21.0114C24.7867 21.034 24.8117 21.1884 24.9115 21.4744L25.0122 22.233L25.0966 22.4386L25.1265 22.6238C25.1564 22.809 25.2404 22.9441 25.3784 23.029C25.5164 23.1139 25.6394 23.1891 25.7474 23.2545L25.7052 23.4002L25.5526 23.5418L25.3661 23.6085L24.8294 24.1777C24.7795 24.2003 24.7055 24.2099 24.6074 24.2062L24.444 24.1449L24.316 24.1218C24.2797 24.1081 24.2313 24.0879 24.171 24.0611C24.1106 24.0343 23.9805 23.9835 23.7808 23.9085C23.5811 23.8336 23.3605 23.7426 23.119 23.6354L23.3942 23.167L23.796 22.7585L23.8382 22.6128L24.2931 22.2615C24.3203 22.1888 24.3447 21.9473 24.3661 21.537C24.3875 21.1266 24.1939 20.6377 23.7854 20.0702L23.6371 19.6044L23.5431 19.6561L23.5703 19.9149C23.5576 19.9267 23.5256 20.0452 23.4742 20.2703C23.4229 20.4955 23.4285 20.7565 23.4911 21.0534L22.9736 21.6049C22.693 21.889 22.4968 22.1302 22.3851 22.3286C22.2734 22.527 22.1885 22.7478 22.1304 22.9911L21.9819 23.5195C21.9138 23.7011 21.8688 23.8375 21.847 23.9287C21.8252 24.0199 21.8592 24.1777 21.9491 24.402C22.0389 24.6262 22.0897 24.7447 22.1015 24.7574L22.1818 25.0734C22.2036 25.1478 22.2676 25.2423 22.3738 25.3567L22.4365 25.1565C22.4529 25.0466 22.6544 25.0725 23.0412 25.2342C23.1665 25.1652 23.3076 25.1643 23.4647 25.2315L23.1569 25.5883L22.0305 26.6695L21.8942 26.8669C21.8688 26.8905 21.7923 26.9674 21.6647 27.0977C21.5372 27.228 21.3889 27.4188 21.22 27.6703L20.3864 28.7992C20.4127 28.751 20.4196 28.7329 20.4068 28.7447C20.3941 28.7565 20.3342 28.8831 20.227 29.1246L20.0063 29.6135C19.9555 29.6607 19.8788 29.7438 19.7762 29.8627L19.8824 29.9771ZM26.6297 24.7785L26.5766 24.7213L26.6542 24.6137L26.8599 24.5293L27.184 24.2284L27.3352 24.1235L27.5463 23.892C27.5963 23.8694 27.7415 23.9239 27.9821 24.0555C28.2227 24.1872 28.3552 24.2535 28.3797 24.2544L28.5922 24.4832C28.6639 24.535 28.7199 24.5954 28.7603 24.6644C28.8007 24.7334 28.8263 24.7865 28.8372 24.8237L28.3606 24.7692L28.2898 24.6929L28.0501 24.7024L27.2602 24.6546C27.2112 24.6528 27.1186 24.6678 26.9824 24.6995C26.8462 24.7313 26.7286 24.7576 26.6297 24.7785Z" fill="#FF4053"/>
<rect x="12.3585" y="0.706619" width="38" height="15.8998" transform="rotate(47.1291 12.3585 0.706619)" stroke="#FF4053"/>
</g>
<defs>
<clipPath id="clip0_1553_28982">
<rect width="40" height="40" fill="white"/>
</clipPath>
</defs>
</svg>
