<svg width="32" height="14" viewBox="0 0 32 14" fill="none" xmlns="http://www.w3.org/2000/svg">
<g clip-path="url(#clip0_6_2797)">
<path d="M0 2C0 0.89543 0.895431 0 2 0H30C31.1046 0 32 0.895431 32 2V12C32 13.1046 31.1046 14 30 14H2C0.895431 14 0 13.1046 0 12V2Z" fill="#FFECE8"/>
<path d="M8.376 6.688V7.44H15.616V6.688H8.376ZM18.784 9.024C18.072 9.296 17.24 9.52 16.296 9.68L16.392 10.416C17.288 10.248 18.08 10.024 18.784 9.744V9.024ZM17.712 3.416C17.408 4.264 17.048 5.04 16.64 5.744C16.544 5.88 16.44 5.968 16.32 6.016L16.512 6.712C16.928 6.664 17.336 6.608 17.736 6.552C17.344 7.16 17.016 7.584 16.76 7.832C16.664 7.928 16.552 8 16.416 8.048L16.616 8.736C17.4 8.64 18.224 8.464 19.088 8.208V7.52C18.56 7.68 18.048 7.816 17.544 7.912C18.008 7.36 18.592 6.48 19.288 5.28L18.624 5.032C18.464 5.328 18.304 5.608 18.152 5.864C17.848 5.912 17.536 5.944 17.224 5.976C17.64 5.392 18.04 4.632 18.44 3.704L17.712 3.416ZM19.904 4.424V4.768C19.888 7.312 19.376 9.152 18.376 10.304L18.944 10.8C19.696 9.936 20.2 8.72 20.456 7.168C20.68 7.84 20.992 8.456 21.384 9.016C20.952 9.464 20.416 9.84 19.776 10.144L20.2 10.84C20.856 10.536 21.424 10.136 21.896 9.648C22.28 10.08 22.736 10.472 23.264 10.824L23.752 10.184C23.224 9.864 22.76 9.496 22.36 9.088C22.888 8.352 23.24 7.432 23.416 6.344V5.92H22.424C22.544 5.432 22.664 4.856 22.792 4.184V3.712H19.176V4.424H19.904ZM21.832 8.488C21.224 7.696 20.816 6.776 20.608 5.728C20.624 5.424 20.64 5.104 20.64 4.768V4.424H22.016C21.84 5.368 21.688 6.088 21.552 6.584H22.656C22.504 7.296 22.232 7.928 21.832 8.488Z" fill="#F53F3F"/>
</g>
<defs>
<clipPath id="clip0_6_2797">
<path d="M0 2C0 0.89543 0.895431 0 2 0H30C31.1046 0 32 0.895431 32 2V12C32 13.1046 31.1046 14 30 14H2C0.895431 14 0 13.1046 0 12V2Z" fill="white"/>
</clipPath>
</defs>
</svg>
