<svg width="32" height="14" viewBox="0 0 32 14" fill="none" xmlns="http://www.w3.org/2000/svg">
<g clip-path="url(#clip0_6_1380)">
<path d="M0 2C0 0.89543 0.895431 0 2 0H30C31.1046 0 32 0.895431 32 2V12C32 13.1046 31.1046 14 30 14H2C0.895431 14 0 13.1046 0 12V2Z" fill="#E8F3FF"/>
<path d="M8.984 4.072V4.632H15.032V4.072H8.984ZM9.52 6.84V7.4H14.488V6.84H9.52ZM8.392 9.8V10.376H15.608V9.8H8.392ZM18.784 9.112C18.08 9.392 17.256 9.616 16.32 9.784L16.392 10.344C17.288 10.176 18.08 9.944 18.784 9.656V9.112ZM17.808 3.456C17.472 4.368 17.072 5.184 16.616 5.896C16.544 6 16.464 6.072 16.376 6.104L16.52 6.632C16.984 6.576 17.448 6.512 17.912 6.44C17.464 7.16 17.08 7.664 16.76 7.968C16.688 8.032 16.6 8.088 16.496 8.128L16.648 8.648C17.424 8.552 18.24 8.384 19.088 8.128V7.608C18.512 7.784 17.928 7.928 17.352 8.032C17.848 7.48 18.464 6.552 19.216 5.256L18.712 5.072C18.544 5.368 18.384 5.648 18.232 5.92C17.848 5.984 17.464 6.032 17.08 6.072C17.512 5.48 17.936 4.68 18.352 3.672L17.808 3.456ZM19.992 4.336V4.768C19.976 7.352 19.448 9.224 18.408 10.392L18.832 10.768C19.64 9.856 20.168 8.552 20.408 6.864C20.656 7.68 21.024 8.416 21.504 9.064C21.048 9.544 20.48 9.952 19.808 10.28L20.128 10.808C20.816 10.472 21.408 10.056 21.888 9.544C22.288 10.008 22.776 10.424 23.336 10.792L23.696 10.312C23.136 9.96 22.648 9.568 22.232 9.12C22.808 8.36 23.176 7.424 23.344 6.32V6H22.328C22.456 5.488 22.584 4.872 22.712 4.152V3.792H19.2V4.336H19.992ZM21.84 8.664C21.168 7.808 20.728 6.792 20.528 5.624C20.544 5.352 20.552 5.064 20.552 4.768V4.336H22.12C21.952 5.288 21.8 6.008 21.656 6.504H22.768C22.608 7.328 22.304 8.048 21.84 8.664Z" fill="#1776ff"/>
</g>
<defs>
<clipPath id="clip0_6_1380">
<path d="M0 2C0 0.89543 0.895431 0 2 0H30C31.1046 0 32 0.895431 32 2V12C32 13.1046 31.1046 14 30 14H2C0.895431 14 0 13.1046 0 12V2Z" fill="white"/>
</clipPath>
</defs>
</svg>
