<svg width="44" height="44" viewBox="0 0 44 44" fill="none" xmlns="http://www.w3.org/2000/svg">
<path d="M39 5L33.4232 6.49429L37.5057 10.5768L39 5ZM34.3964 8.89645L31.5631 11.7298L32.2702 12.4369L35.1036 9.60355L34.3964 8.89645ZM28.7298 14.5631L25.8964 17.3964L26.6036 18.1036L29.4369 15.2702L28.7298 14.5631ZM23.0631 20.2298L20.2298 23.0631L20.9369 23.7702L23.7702 20.9369L23.0631 20.2298ZM17.3964 25.8964L14.5631 28.7298L15.2702 29.4369L18.1036 26.6036L17.3964 25.8964ZM11.7298 31.5631L8.89644 34.3964L9.60355 35.1036L12.4369 32.2702L11.7298 31.5631ZM6.06311 37.2298L4.64645 38.6464L5.35355 39.3536L6.77022 37.9369L6.06311 37.2298Z" fill="#CECECE"/>
</svg>
