<svg xmlns="http://www.w3.org/2000/svg" xmlns:xlink="http://www.w3.org/1999/xlink" viewBox="0 0 495.5 395.02"><defs><style>.cls-1{font-size:20.19px;fill:#cecece;font-family:PingFangSC-Light-GBpc-EUC-H, PingFang SC;}.cls-14,.cls-2,.cls-23,.cls-24{opacity:0.4;}.cls-2{fill:url(#未命名的渐变_6);}.cls-3{opacity:0.8;fill:url(#未命名的渐变_6-2);}.cls-4{fill:url(#未命名的渐变_6-3);}.cls-5{fill:url(#未命名的渐变_6-4);}.cls-6{fill:url(#未命名的渐变_17);}.cls-7{fill:url(#未命名的渐变_17-2);}.cls-8{opacity:0.6;}.cls-9{fill:url(#未命名的渐变_17-3);}.cls-10{fill:url(#未命名的渐变_2);}.cls-11{fill:#c6d0e0;}.cls-12{fill:url(#未命名的渐变_2-2);}.cls-13{fill:url(#未命名的渐变_2-3);}.cls-15{fill:url(#未命名的渐变_17-4);}.cls-16{fill:url(#未命名的渐变_2-4);}.cls-17{fill:url(#未命名的渐变_2-5);}.cls-18{fill:url(#未命名的渐变_2-6);}.cls-19,.cls-20,.cls-36{fill:#fff;}.cls-19{isolation:isolate;}.cls-19,.cls-36{opacity:0.5;}.cls-21{fill:url(#未命名的渐变_6-5);}.cls-22{fill:url(#未命名的渐变_6-6);}.cls-23{fill:url(#未命名的渐变_6-7);}.cls-24{fill:url(#未命名的渐变_6-8);}.cls-25{opacity:0.3;fill:url(#未命名的渐变_6-9);}.cls-26{fill:url(#未命名的渐变_21);}.cls-27{fill:url(#未命名的渐变_5);}.cls-28{fill:url(#未命名的渐变_22);}.cls-29{fill:url(#未命名的渐变_2-7);}.cls-30{fill:url(#未命名的渐变_2-8);}.cls-31,.cls-37{fill:none;}.cls-31{stroke:#b2bbc9;stroke-miterlimit:10;stroke-dasharray:12;}.cls-32{fill:url(#未命名的渐变_22-2);}.cls-33{fill:url(#未命名的渐变_22-3);}.cls-34{fill:url(#未命名的渐变_2-9);}.cls-35{fill:url(#未命名的渐变_12);}</style><linearGradient id="未命名的渐变_6" x1="-71.41" y1="-926.3" x2="-70.58" y2="-908.16" gradientTransform="matrix(0.61, 0.79, -0.79, 0.61, -332.47, 893.95)" gradientUnits="userSpaceOnUse"><stop offset="0" stop-color="#c6d0e0"/><stop offset="1" stop-color="#ccd4e3" stop-opacity="0"/></linearGradient><linearGradient id="未命名的渐变_6-2" x1="249.82" y1="92.74" x2="247.01" y2="231.9" gradientTransform="matrix(1, 0, 0, 1, 0, 0)" xlink:href="#未命名的渐变_6"/><linearGradient id="未命名的渐变_6-3" x1="39.55" y1="222.76" x2="39.08" y2="257.43" gradientTransform="matrix(1, 0, 0, 1, 0, 0)" xlink:href="#未命名的渐变_6"/><linearGradient id="未命名的渐变_6-4" x1="39.38" y1="222.75" x2="38.91" y2="257.43" gradientTransform="matrix(1, 0, 0, 1, 0, 0)" xlink:href="#未命名的渐变_6"/><linearGradient id="未命名的渐变_17" x1="-566.05" y1="735.7" x2="-566.05" y2="792.87" gradientTransform="matrix(1, 0, 0, -1, 702.36, 977.06)" gradientUnits="userSpaceOnUse"><stop offset="0" stop-color="#dfe2e5" stop-opacity="0"/><stop offset="1" stop-color="#d7dce2" stop-opacity="0.7"/></linearGradient><linearGradient id="未命名的渐变_17-2" x1="-550.68" y1="749.47" x2="-550.68" y2="797.69" xlink:href="#未命名的渐变_17"/><linearGradient id="未命名的渐变_17-3" x1="-616.29" y1="748.14" x2="-616.29" y2="792.41" xlink:href="#未命名的渐变_17"/><linearGradient id="未命名的渐变_2" x1="-616.38" y1="791.12" x2="-616.38" y2="830.67" gradientTransform="matrix(1, 0, 0, -1, 702.36, 977.06)" gradientUnits="userSpaceOnUse"><stop offset="0" stop-color="#c6d0e0"/><stop offset="1" stop-color="#eff2f6"/></linearGradient><linearGradient id="未命名的渐变_2-2" x1="-607.81" y1="825.51" x2="-627.81" y2="845.51" xlink:href="#未命名的渐变_2"/><linearGradient id="未命名的渐变_2-3" x1="-604.23" y1="815.97" x2="-615.83" y2="836.07" xlink:href="#未命名的渐变_2"/><linearGradient id="未命名的渐变_17-4" x1="-287.82" y1="703" x2="-287.82" y2="723.29" xlink:href="#未命名的渐变_17"/><linearGradient id="未命名的渐变_2-4" x1="-287.86" y1="722.7" x2="-287.86" y2="740.83" xlink:href="#未命名的渐变_2"/><linearGradient id="未命名的渐变_2-5" x1="-284.16" y1="738.8" x2="-292.73" y2="747.37" xlink:href="#未命名的渐变_2"/><linearGradient id="未命名的渐变_2-6" x1="-282.73" y1="734.28" x2="-287.87" y2="743.18" xlink:href="#未命名的渐变_2"/><linearGradient id="未命名的渐变_6-5" x1="362.94" y1="176.78" x2="362.47" y2="249.37" gradientTransform="matrix(1, 0, 0, 1, 0, 0)" xlink:href="#未命名的渐变_6"/><linearGradient id="未命名的渐变_6-6" x1="362.74" y1="176.75" x2="362.27" y2="249.38" gradientTransform="matrix(1, 0, 0, 1, 0, 0)" xlink:href="#未命名的渐变_6"/><linearGradient id="未命名的渐变_6-7" x1="-152.83" y1="-870.13" x2="-151.6" y2="-843.27" xlink:href="#未命名的渐变_6"/><linearGradient id="未命名的渐变_6-8" x1="38.48" y1="107.3" x2="39.7" y2="134.21" gradientTransform="matrix(1, 0, 0, 1, 0, 0)" xlink:href="#未命名的渐变_6"/><linearGradient id="未命名的渐变_6-9" x1="406.24" y1="96.12" x2="406.95" y2="111.74" gradientTransform="matrix(1, 0, 0, 1, 0, 0)" xlink:href="#未命名的渐变_6"/><linearGradient id="未命名的渐变_21" x1="-478.47" y1="809.29" x2="-534.82" y2="711.69" gradientTransform="matrix(1, 0, 0, -1, 702.36, 977.06)" gradientUnits="userSpaceOnUse"><stop offset="0" stop-color="#c6d0e0"/><stop offset="1" stop-color="#d7dde2"/></linearGradient><linearGradient id="未命名的渐变_5" x1="-413.57" y1="718.99" x2="-496.73" y2="802.15" gradientTransform="matrix(1, 0, 0, -1, 702.36, 977.06)" gradientUnits="userSpaceOnUse"><stop offset="0" stop-color="#c6d0e0"/><stop offset="1" stop-color="#dfe4ea"/></linearGradient><linearGradient id="未命名的渐变_22" x1="-412.37" y1="720.18" x2="-480.52" y2="788.32" gradientTransform="matrix(1, 0, 0, -1, 702.36, 977.06)" gradientUnits="userSpaceOnUse"><stop offset="0" stop-color="#a7b1c1"/><stop offset="1" stop-color="#c6d0e0"/></linearGradient><linearGradient id="未命名的渐变_2-7" x1="-464.94" y1="710.98" x2="-548.2" y2="794.25" xlink:href="#未命名的渐变_2"/><linearGradient id="未命名的渐变_2-8" x1="-491.57" y1="759.63" x2="-537.5" y2="805.57" xlink:href="#未命名的渐变_2"/><linearGradient id="未命名的渐变_22-2" x1="-425.88" y1="849.02" x2="-444.48" y2="867.62" xlink:href="#未命名的渐变_22"/><linearGradient id="未命名的渐变_22-3" x1="-444.23" y1="838.85" x2="-448.36" y2="842.99" xlink:href="#未命名的渐变_22"/><linearGradient id="未命名的渐变_2-9" x1="-426.09" y1="849.7" x2="-444.23" y2="867.83" xlink:href="#未命名的渐变_2"/><linearGradient id="未命名的渐变_12" x1="-446.56" y1="841.64" x2="-442.39" y2="841.64" gradientTransform="matrix(1, 0, 0, -1, 702.36, 977.06)" gradientUnits="userSpaceOnUse"><stop offset="0" stop-color="#b3bece"/><stop offset="1" stop-color="#cad3dd"/></linearGradient></defs><g id="图层_2" data-name="图层 2"><g id="图层_1-2" data-name="图层 1"><text class="cls-1" transform="translate(151.69 327.19)">暂无图谱信息</text><path class="cls-2" d="M350.27,289.3l-1.79-4.13a1.28,1.28,0,0,0-.93-.74l-4.41-.87a1.27,1.27,0,0,1-.6-2.21l3.37-3a1.3,1.3,0,0,0,.42-1.11l-.54-4.47a1.28,1.28,0,0,1,1.92-1.25l3.87,2.28a1.26,1.26,0,0,0,1.19.06l4.08-1.89a1.28,1.28,0,0,1,1.79,1.43l-1,4.39A1.31,1.31,0,0,0,358,279l3.07,3.29a1.28,1.28,0,0,1-.82,2.15l-4.48.43a1.27,1.27,0,0,0-1,.65l-2.19,3.93A1.28,1.28,0,0,1,350.27,289.3Z"/><path class="cls-3" d="M24.89,199.58S64.8,111,138.21,160.12s115.61-55.06,144.06-33,16.52-53.22,84.88,0,61.93,29.36,93.59,49.55-22.94,49.09-22.94,49.09l-86.71,37.62L231.34,309.69,34.06,297.3Z"/><rect class="cls-4" x="38.05" y="248.97" width="2.11" height="12.41" rx="1.06"/><path class="cls-5" d="M47.83,243c0,4.81-3.91,7.8-8.72,7.8s-8.72-3-8.72-7.8,3.9-18.08,8.72-18.08S47.83,238.21,47.83,243Z"/><polygon class="cls-6" points="144.8 240.89 127.82 241.35 129.2 184.28 133.28 184.19 144.8 240.89"/><polygon class="cls-7" points="165.44 227.59 137.91 227.59 139.29 180.52 153.93 179.37 165.44 227.59"/><g class="cls-8"><polygon class="cls-9" points="86.53 228.92 82.4 185.79 86.07 184.65 89.74 185.75 88.82 228.92 86.53 228.92"/><path class="cls-10" d="M83.78,146.38s1.69,23.77-.46,35.1c-.37,1.83-1.84,3.9-.92,4.36s1.19-.83,3.49-.83c1.14,0,3.39,1.29,3.85.83s-.5-1.75-1.15-4.68c-1.46-6.93-3.67-20.6-2.06-34.78Z"/><path class="cls-11" d="M89,152.94c0,5.6-7.34,8.31-12.94,8.31s-9.27-5.46-9.27-11.06S72.72,140,78.36,140,89,147.34,89,152.94Z"/><path class="cls-12" d="M99.06,143.77c0,7.25-9.46,10.69-16.66,10.69s-11.88-7.07-11.88-14.27,7.66-13.08,14.86-13.08S99.06,136.52,99.06,143.77Z"/><path class="cls-13" d="M89.56,161.15c-5.19,0-9.5-5.64-9.5-11.14s6.88-10.65,12.07-10.65,12.66,3.86,11.74,13.58S94.79,161.15,89.56,161.15Z"/></g><g class="cls-14"><polygon class="cls-15" points="414.72 274.05 413.06 254.29 414.54 253.76 416.02 254.26 415.65 274.05 414.72 274.05"/><path class="cls-16" d="M413.61,236.22s.69,10.9-.18,16.09c-.15.84-.74,1.79-.37,2s.48-.38,1.4-.38c.47,0,1.37.59,1.56.38s-.21-.8-.47-2.15a59.45,59.45,0,0,1-.83-15.94Z"/><path class="cls-11" d="M415.72,239.23c0,2.57-3,3.81-5.21,3.81s-3.74-2.51-3.74-5.07a4.88,4.88,0,0,1,4.66-4.67C413.71,233.3,415.72,236.66,415.72,239.23Z"/><path class="cls-17" d="M419.77,235c0,3.33-3.81,4.9-6.71,4.9s-4.79-3.23-4.79-6.54a6.26,6.26,0,0,1,6-6C417.16,227.39,419.77,231.7,419.77,235Z"/><path class="cls-18" d="M415.94,243c-2.09,0-3.83-2.58-3.83-5.11S414.89,233,417,233s5.1,1.76,4.73,6.22S418.05,243,415.94,243Z"/></g><polygon class="cls-19" points="202.13 164.09 167.37 157.87 167.37 149.57 202.13 155.79 202.13 164.09"/><path class="cls-20" d="M120.71,199l1.82-1.64a8.23,8.23,0,0,0,7.28,2.19l1.27,2.36A8.72,8.72,0,0,1,120.71,199Z"/><polygon class="cls-20" points="161.18 200.31 164.82 203.22 165.82 201.85 162.18 198.94 161.18 200.31"/><g class="cls-8"><rect class="cls-21" x="359.82" y="219.69" width="5.48" height="32.19" rx="2.3"/><path class="cls-22" d="M385.17,204.25c0,12.49-10.12,20.23-22.61,20.23S340,216.74,340,204.25s10.12-46.88,22.61-46.88S385.17,191.77,385.17,204.25Z"/></g><path class="cls-23" d="M252,266.56l-2.65-6.11a1.88,1.88,0,0,0-1.38-1.11l-6.53-1.28a1.89,1.89,0,0,1-.89-3.28l5-4.41a1.9,1.9,0,0,0,.63-1.65l-.81-6.61a1.9,1.9,0,0,1,2.85-1.86l5.73,3.38a1.91,1.91,0,0,0,1.77.09l6-2.81a1.9,1.9,0,0,1,2.65,2.14l-1.45,6.5a1.89,1.89,0,0,0,.46,1.7l4.54,4.88a1.89,1.89,0,0,1-1.21,3.17l-6.63.64a1.92,1.92,0,0,0-1.48,1l-3.23,5.82A1.9,1.9,0,0,1,252,266.56Z"/><circle class="cls-24" cx="39.11" cy="121.12" r="14.22"/><circle class="cls-25" cx="406.6" cy="104.15" r="8.26"/><path class="cls-26" d="M220.87,274.74l-58.93-12.61-1.4-86.38,56.24-12.09Z"/><path class="cls-27" d="M287,259.9l-66.1,14.89-4-111.08,69.36,7.11Z"/><path class="cls-28" d="M227.2,276.29,287,259.9l-.78-89.08-59,12.61v92.86Z"/><path class="cls-29" d="M227.2,276.29h-.1l-66.25-14.37V176.11l66.35,7.32v92.86Z"/><path class="cls-30" d="M212.78,215.44l-66.61-12.09,14.37-27.55,66.77,7.58Z"/><path class="cls-11" d="M305.75,198.47l-57.33,17-21.06-32.06,58.83-12.56Z"/><path class="cls-31" d="M228.71,174.45s-34.5-4.87-40.78-21.32,5.55-25.94,20.39-23.6,11.1,24.53,27.81,22.72c8-.88,8.19-9.7,11.1-14.37a14,14,0,0,1,8.82-6"/><path class="cls-32" d="M260,136.37l4.15,4,22.21-27.08v-.93l-40.73,9.33v.94l7.42,6.95,28.64-13.9-25.89,16.6Z"/><path class="cls-33" d="M255.79,132.27v8.15l4.15-4v-.93Z"/><path class="cls-34" d="M260,135.44l4.15,4.05,22.21-27.08-40.73,9.33,7.42,7,28.64-13.91-25.89,16.6Z"/><path class="cls-35" d="M255.79,131.34v8.15l4.15-4.05Z"/><path class="cls-36" d="M262.25,223l1.65,4.85a1.41,1.41,0,0,0,1.64.93l5.33-.9c1.68-.28,2.38,1.77,1,3l-4.31,3.89a2,2,0,0,0-.63,2.06l1.65,4.84c.52,1.53-1.31,3.18-2.67,2.41l-4.31-2.44a1.79,1.79,0,0,0-2,.35l-4.3,3.89c-1.36,1.23-3.19.19-2.67-1.51l1.65-5.4a1.56,1.56,0,0,0-.63-1.85l-4.31-2.44c-1.36-.76-.66-3.05,1-3.34l5.33-.89a2.17,2.17,0,0,0,1.65-1.49l1.65-5.4C259.47,221.87,261.73,221.49,262.25,223Z"/><rect class="cls-37" width="495.5" height="395.02"/></g></g></svg>