<svg width="11" height="11" viewBox="0 0 11 11" fill="none" xmlns="http://www.w3.org/2000/svg">
<path d="M4.6618 6.28577H6.3382C8.50776 6.28577 10.2667 8.04467 10.2667 10.2142C10.2667 10.6484 9.91466 11 9.4809 11H1.5191C1.3107 11 1.11084 10.9172 0.963479 10.7699C0.816119 10.6225 0.733334 10.4226 0.733334 10.2142C0.733334 8.04467 2.49223 6.28577 4.6618 6.28577ZM5.5 5.5C3.9644 5.5 2.71957 4.26873 2.71957 2.75C2.71957 1.23127 3.9644 0 5.5 0C7.0356 0 8.28043 1.23127 8.28043 2.75C8.28043 4.26873 7.0356 5.5 5.5 5.5Z" fill="#A8A8A8"/>
</svg>
