<svg width="32" height="32" viewBox="0 0 32 32" fill="none" xmlns="http://www.w3.org/2000/svg">
<path fill-rule="evenodd" clip-rule="evenodd" d="M30.7879 9.57422V5.80918C30.7879 5.80918 30.8167 4.2301 28.5847 4H1.99636C1.53198 4.02531 1.08964 4.20618 0.740583 4.5135C0.391523 4.82082 0.156072 5.23669 0.0721441 5.69413L0.0117185 9.55984L30.7879 9.57422ZM0.0603906 25.832L0 13.5388H30.7876V25.6681C30.7876 25.6681 30.6726 27.7102 28.6592 27.9978H1.976C1.976 27.9978 0.376781 27.9029 0.0603906 25.832ZM20.2662 24.1178H22.5241V21.8743H20.2662V24.1178ZM23.0418 24.1178H25.2968V21.8743H23.0418V24.1178ZM25.8433 24.1178H28.0983V21.8743H25.8433V24.1178Z" fill="#91D5FF"/>
</svg>
