<svg width="46" height="46" viewBox="0 0 46 46" fill="none" xmlns="http://www.w3.org/2000/svg">
<rect x="1" y="1" width="44" height="44" rx="22" fill="white"/>
<path fill-rule="evenodd" clip-rule="evenodd" d="M32.7045 18.7831V16.3123C32.7045 16.3123 32.7234 15.276 31.2587 15.125H13.8101C13.5054 15.1416 13.2151 15.2603 12.986 15.462C12.7569 15.6637 12.6024 15.9366 12.5473 16.2368L12.5077 18.7736L32.7045 18.7831ZM12.5396 29.4523L12.5 21.3848H32.7044V29.3447C32.7044 29.3447 32.6289 30.6848 31.3076 30.8736H13.7967C13.7967 30.8736 12.7473 30.8113 12.5396 29.4523ZM25.7997 28.3273H27.2814V26.855H25.7997V28.3273ZM27.6212 28.3273H29.101V26.855H27.6212V28.3273ZM29.4597 28.3273H30.9395V26.855H29.4597V28.3273Z" fill="#FADB14"/>
<rect x="1" y="1" width="44" height="44" rx="22" stroke="#FADB14" stroke-width="2"/>
</svg>
