<svg width="46" height="46" viewBox="0 0 46 46" fill="none" xmlns="http://www.w3.org/2000/svg">
<rect x="1" y="1" width="44" height="44" rx="22" fill="white"/>
<path d="M29.701 18.4602L26.0146 14.8193L26.026 18.4602H29.701Z" fill="#B7EB8F"/>
<path d="M25.3093 19.1548V14.4785H16.0137V31.5224H29.9856V19.1548H25.3093V19.1548ZM18.8467 20.486C18.8467 20.395 18.9264 20.3153 19.0174 20.3153H24.0464C24.1374 20.3153 24.217 20.395 24.217 20.486V21.1686C24.217 21.2597 24.1374 21.3393 24.0464 21.3393H19.0174C18.9264 21.3393 18.8467 21.2597 18.8467 21.1686V20.486ZM26.9818 26.9372C26.9818 27.0282 26.9022 27.1078 26.8112 27.1078H19.0174C18.9264 27.1078 18.8467 27.0282 18.8467 26.9372V26.2545C18.8467 26.1635 18.9264 26.0838 19.0174 26.0838H26.8112C26.9022 26.0838 26.9818 26.1635 26.9818 26.2545V26.9372V26.9372ZM26.9818 24.0358C26.9818 24.1269 26.9022 24.2065 26.8112 24.2065H19.0174C18.9264 24.2065 18.8467 24.1269 18.8467 24.0358V23.3532C18.8467 23.2622 18.9264 23.1825 19.0174 23.1825H26.8112C26.9022 23.1825 26.9818 23.2622 26.9818 23.3532V24.0358V24.0358Z" fill="#B7EB8F"/>
<rect x="1" y="1" width="44" height="44" rx="22" stroke="#B7EB8F" stroke-width="2"/>
</svg>
