<svg width="32" height="32" viewBox="0 0 32 32" fill="none" xmlns="http://www.w3.org/2000/svg">
<path fill-rule="evenodd" clip-rule="evenodd" d="M28.821 8.11128L16.0004 2.28613L3.17985 8.11128C2.63528 8.3587 2.28613 8.90099 2.28613 9.4987V10.8576H29.7147V9.4987C29.7147 9.20604 29.6304 8.91958 29.4719 8.67355C29.3134 8.42751 29.0874 8.23231 28.821 8.11128ZM29.7147 29.7147V26.6673C29.7147 26.2631 29.5541 25.8754 29.2683 25.5896C28.9825 25.3038 28.5949 25.1433 28.1907 25.1433L27.4291 25.1433V13.1433H23.5868V25.1433H21.2811V13.1433H17.4388V25.1433H15.1336V13.1433H11.2913V25.1433H8.98562V13.1433H5.14334V25.1433L3.81013 25.1433C3.40594 25.1433 3.01831 25.3038 2.7325 25.5896C2.4467 25.8754 2.28613 26.2631 2.28613 26.6673V29.7147H29.7147Z" fill="#FA8C16"/>
</svg>
