<svg width="16" height="16" viewBox="0 0 16 16" fill="" xmlns="http://www.w3.org/2000/svg">
<path fill-rule="evenodd" clip-rule="evenodd" d="M14.4105 4.05515L8.00021 1.14258L1.58992 4.05515C1.31764 4.17886 1.14307 4.45001 1.14307 4.74886V5.42829H14.8574V4.74886C14.8573 4.60253 14.8152 4.4593 14.736 4.33628C14.6567 4.21327 14.5437 4.11567 14.4105 4.05515ZM14.8574 14.8569V13.3331C14.8574 13.1311 14.7771 12.9372 14.6342 12.7943C14.4913 12.6514 14.2974 12.5711 14.0954 12.5711L13.7145 12.5712V6.57115H11.7934V12.5712H10.6405V6.57115H8.71938V12.5712H7.56681V6.57115H5.64567V12.5712H4.49281V6.57115H2.57167V12.5712L1.90507 12.5711C1.70297 12.5711 1.50915 12.6514 1.36625 12.7943C1.22335 12.9372 1.14307 13.1311 1.14307 13.3331V14.8569H14.8574Z" fill="" fill-opacity=""/>
</svg>
