<svg width="14" height="14" viewBox="0 0 14 14" fill="" xmlns="http://www.w3.org/2000/svg">
<path d="M11.75 10.9981H11.375V5.68561C11.375 3.48092 9.74531 1.65905 7.625 1.35592V0.748108C7.625 0.402795 7.34531 0.123108 7 0.123108C6.65469 0.123108 6.375 0.402795 6.375 0.748108V1.35592C4.25469 1.65905 2.625 3.48092 2.625 5.68561V10.9981H2.25C1.97344 10.9981 1.75 11.2215 1.75 11.4981V11.9981C1.75 12.0669 1.80625 12.1231 1.875 12.1231H5.25C5.25 13.0887 6.03438 13.8731 7 13.8731C7.96563 13.8731 8.75 13.0887 8.75 12.1231H12.125C12.1938 12.1231 12.25 12.0669 12.25 11.9981V11.4981C12.25 11.2215 12.0266 10.9981 11.75 10.9981ZM7 12.8731C6.58594 12.8731 6.25 12.5372 6.25 12.1231H7.75C7.75 12.5372 7.41406 12.8731 7 12.8731ZM3.75 10.9981V5.68561C3.75 4.81686 4.0875 4.00123 4.70156 3.38717C5.31563 2.77311 6.13125 2.43561 7 2.43561C7.86875 2.43561 8.68438 2.77311 9.29844 3.38717C9.9125 4.00123 10.25 4.81686 10.25 5.68561V10.9981H3.75Z" fill="" fill-opacity=""/>
</svg>
