<svg width="16" height="16" viewBox="0 0 16 16" fill="" xmlns="http://www.w3.org/2000/svg">
<path d="M10 1.81342V14.4801H2.66667C2.26667 14.4801 2 14.2134 2 13.8134V3.68009C2 3.34676 2.2 3.08009 2.53333 3.01342L9.2 1.34676C9.53333 1.28009 9.86667 1.48009 10 1.81342ZM10.6667 7.81342L13.6 8.94676C13.8667 9.08009 14 9.28009 14 9.54676V13.8134C14 14.2134 13.7333 14.4801 13.3333 14.4801H10.6667V7.81342ZM7.33333 8.48009H4.66667C4.26667 8.48009 4 8.74676 4 9.14676C4 9.48009 4.26667 9.74676 4.6 9.81343H7.33333C7.73333 9.81343 8 9.54676 8 9.14676C8 8.74676 7.73333 8.48009 7.33333 8.48009ZM7.33333 5.14676H4.66667C4.26667 5.14676 4 5.41342 4 5.81342C4 6.14676 4.26667 6.41342 4.6 6.48009H7.33333C7.73333 6.48009 8 6.21342 8 5.81342C8 5.41342 7.73333 5.14676 7.33333 5.14676Z" fill=""/>
</svg>
