<svg width="16" height="16" viewBox="0 0 16 16" fill="" xmlns="http://www.w3.org/2000/svg">
<path d="M13.9195 12.0213C13.6981 10.6784 12.5053 9.71593 11.1463 9.782C9.7874 9.84808 8.69455 10.9249 8.60705 12.282C5.86597 12.1963 4.89276 11.5552 5.05169 10.2516C5.11062 9.76415 5.40526 9.50343 5.94633 9.37665C6.2749 9.29986 6.63919 9.28915 6.96954 9.3195C6.9999 9.32308 7.03204 9.32486 7.0624 9.32843C7.26419 9.37665 7.46954 9.41772 7.6749 9.44986C8.28383 9.54986 8.90347 9.59986 9.49276 9.56772C11.1499 9.47843 12.2785 8.74808 12.3356 7.19808C12.391 5.69629 11.3588 4.632 9.69455 3.9195C9.16062 3.69093 8.59454 3.51415 8.02847 3.38022C7.77312 3.3195 7.55883 3.27843 7.3999 3.25165C7.25883 1.89629 6.12312 0.862361 4.76062 0.851647C3.39812 0.840932 2.24454 1.85343 2.08026 3.207C1.91597 4.56058 2.79455 5.8195 4.11955 6.13379C5.44455 6.44808 6.79633 5.71772 7.25704 4.43558C7.4249 4.46593 7.59097 4.49986 7.75704 4.53915C8.26062 4.657 8.76419 4.81415 9.22847 5.01415C10.491 5.55343 11.1803 6.26593 11.1481 7.15522C11.1195 7.95165 10.5481 8.3195 9.43026 8.38022C8.93919 8.407 8.40169 8.36415 7.87133 8.27665C7.72312 8.25165 7.5874 8.22665 7.46776 8.19986C7.39812 8.18558 7.3499 8.17308 7.32847 8.16772L7.27312 8.157C7.23383 8.15165 7.16776 8.14272 7.08205 8.13379C6.63562 8.09272 6.15169 8.107 5.68026 8.21593C4.69455 8.44629 4.00347 9.05879 3.8749 10.1052C3.59455 12.3588 5.27847 13.4034 8.80347 13.4784C9.32312 14.7356 10.7035 15.4052 12.0106 15.032C13.3195 14.6588 14.141 13.3641 13.9195 12.0213ZM4.73383 5.01772C4.53848 5.01771 4.34504 4.97922 4.16456 4.90445C3.98408 4.82968 3.8201 4.72009 3.68197 4.58195C3.54385 4.44381 3.43428 4.27981 3.35953 4.09932C3.28478 3.91884 3.24632 3.72539 3.24633 3.53004C3.24634 3.33469 3.28483 3.14125 3.3596 2.96077C3.43437 2.78029 3.54395 2.61631 3.6821 2.47818C3.82024 2.34005 3.98424 2.23049 4.16473 2.15574C4.34521 2.08099 4.53866 2.04253 4.73401 2.04254C5.12854 2.04256 5.50691 2.19931 5.78587 2.47831C6.06483 2.7573 6.22153 3.13568 6.22151 3.53022C6.22149 3.92475 6.06473 4.30312 5.78574 4.58208C5.50675 4.86104 5.12836 5.01774 4.73383 5.01772ZM11.2785 13.9427C11.0831 13.9427 10.8897 13.9042 10.7092 13.8294C10.5287 13.7547 10.3647 13.6451 10.2266 13.507C10.0885 13.3688 9.97892 13.2048 9.90418 13.0243C9.82943 12.8438 9.79096 12.6504 9.79097 12.455C9.79099 12.2597 9.82947 12.0662 9.90424 11.8858C9.97901 11.7053 10.0886 11.5413 10.2267 11.4032C10.3649 11.2651 10.5289 11.1555 10.7094 11.0807C10.8899 11.006 11.0833 10.9675 11.2787 10.9675C11.6732 10.9676 12.0515 11.1243 12.3305 11.4033C12.6095 11.6823 12.7662 12.0607 12.7662 12.4552C12.7661 12.8498 12.6094 13.2281 12.3304 13.5071C12.0514 13.786 11.673 13.9427 11.2785 13.9427Z" fill="" fill-opacity=""/>
</svg>
