<svg width="15" height="14" viewBox="0 0 15 14" fill="" xmlns="http://www.w3.org/2000/svg">
<g clip-path="url(#clip0_1006_35283)">
<path d="M14.0508 11.8141V2.18594C14.4883 2.03125 14.8008 1.61406 14.8008 1.125C14.8008 0.503125 14.2977 0 13.6758 0C13.1867 0 12.7695 0.3125 12.6148 0.75H2.98672C2.83203 0.3125 2.41484 0 1.92578 0C1.30391 0 0.800781 0.503125 0.800781 1.125C0.800781 1.61406 1.11328 2.03125 1.55078 2.18594V11.8141C1.11328 11.9688 0.800781 12.3859 0.800781 12.875C0.800781 13.4969 1.30391 14 1.92578 14C2.41484 14 2.83203 13.6875 2.98672 13.25H12.6148C12.7695 13.6875 13.1867 14 13.6758 14C14.2977 14 14.8008 13.4969 14.8008 12.875C14.8008 12.3859 14.4883 11.9688 14.0508 11.8141ZM13.6758 0.75C13.8836 0.75 14.0508 0.917188 14.0508 1.125C14.0508 1.33281 13.8836 1.5 13.6758 1.5C13.468 1.5 13.3008 1.33281 13.3008 1.125C13.3008 0.917188 13.468 0.75 13.6758 0.75ZM1.92578 13.25C1.71797 13.25 1.55078 13.0828 1.55078 12.875C1.55078 12.6672 1.71797 12.5 1.92578 12.5C2.13359 12.5 2.30078 12.6672 2.30078 12.875C2.30078 13.0828 2.13359 13.25 1.92578 13.25ZM1.92578 1.5C1.71797 1.5 1.55078 1.33281 1.55078 1.125C1.55078 0.917188 1.71797 0.75 1.92578 0.75C2.13359 0.75 2.30078 0.917188 2.30078 1.125C2.30078 1.33281 2.13359 1.5 1.92578 1.5ZM12.9258 12.125H2.67578V1.875H12.9258V12.125ZM13.6758 13.25C13.468 13.25 13.3008 13.0828 13.3008 12.875C13.3008 12.6672 13.468 12.5 13.6758 12.5C13.8836 12.5 14.0508 12.6672 14.0508 12.875C14.0508 13.0828 13.8836 13.25 13.6758 13.25Z" fill="" fill-opacity=""/>
<path d="M4.30043 6.40815H11.3004C11.4379 6.40815 11.5504 6.29565 11.5504 6.15815V3.40815C11.5504 3.27065 11.4379 3.15815 11.3004 3.15815H4.30043C4.16293 3.15815 4.05043 3.27065 4.05043 3.40815V6.15815C4.05043 6.29565 4.16293 6.40815 4.30043 6.40815ZM5.17543 4.28315H10.4254V5.28315H5.17543V4.28315ZM4.30043 10.8456H11.3004C11.4379 10.8456 11.5504 10.7331 11.5504 10.5956V7.84565C11.5504 7.70815 11.4379 7.59565 11.3004 7.59565H4.30043C4.16293 7.59565 4.05043 7.70815 4.05043 7.84565V10.5956C4.05043 10.7331 4.16293 10.8456 4.30043 10.8456ZM5.17543 8.72065H10.4254V9.72065H5.17543V8.72065Z" fill="" fill-opacity=""/>
</g>
<defs>
<clipPath id="clip0_1006_35283">
<rect width="14" height="14" fill="white" transform="translate(0.800781)"/>
</clipPath>
</defs>
</svg>
