<svg width="14" height="14" viewBox="0 0 14 14" fill="" xmlns="http://www.w3.org/2000/svg">
<path d="M3.87714 8.24065C3.92558 8.28909 4.00527 8.28909 4.05371 8.24065L5.64433 6.65003L6.98964 7.9969C7.03808 8.04534 7.11777 8.04534 7.16621 7.9969L10.7021 4.45784C10.7506 4.4094 10.7506 4.32972 10.7021 4.28128L10.1271 3.70628C10.1037 3.68302 10.0719 3.66997 10.0389 3.66997C10.0058 3.66997 9.97408 3.68302 9.95058 3.70628L7.07871 6.58128L5.73339 5.2344C5.7099 5.21114 5.67818 5.19809 5.64511 5.19809C5.61205 5.19809 5.58033 5.21114 5.55683 5.2344L3.30214 7.48909C3.27888 7.51258 3.26583 7.54431 3.26583 7.57737C3.26583 7.61043 3.27888 7.64216 3.30214 7.66565L3.87714 8.24065Z" fill="#1776ff" fill-opacity=""/>
<path d="M13.1243 1.5H7.56177V0.5C7.56177 0.43125 7.50552 0.375 7.43677 0.375H6.56177C6.49302 0.375 6.43677 0.43125 6.43677 0.5V1.5H0.874268C0.597705 1.5 0.374268 1.72344 0.374268 2V10.125C0.374268 10.4016 0.597705 10.625 0.874268 10.625H6.44302V11.125L3.86802 12.8141C3.85433 12.8229 3.84254 12.8345 3.83331 12.8479C3.82409 12.8614 3.81762 12.8765 3.81428 12.8925C3.81094 12.9085 3.8108 12.925 3.81385 12.941C3.81691 12.957 3.8231 12.9723 3.83208 12.9859L4.30552 13.7234V13.725C4.34302 13.7828 4.42114 13.7984 4.47896 13.7609L6.99927 12.1078L9.51958 13.7609C9.57739 13.7984 9.65552 13.7828 9.69302 13.725V13.7234L10.1665 12.9859C10.1843 12.9583 10.1905 12.9248 10.1837 12.8926C10.177 12.8605 10.1579 12.8322 10.1305 12.8141L7.56177 11.1297V10.625H13.1243C13.4008 10.625 13.6243 10.4016 13.6243 10.125V2C13.6243 1.72344 13.4008 1.5 13.1243 1.5ZM12.4993 9.5H1.49927V2.625H12.4993V9.5Z" fill="" fill-opacity=""/>
</svg>
