<svg width="14" height="14" viewBox="0 0 14 14" fill="" xmlns="http://www.w3.org/2000/svg">
<g clip-path="url(#clip0_1801_35356)">
<path fill-rule="evenodd" clip-rule="evenodd" d="M2.71706 3.48862V10.4822C2.8984 10.5487 3.06314 10.654 3.19973 10.7906C3.33632 10.9272 3.44156 11.0918 3.50812 11.2732H4.47275V12.1703H3.50812C3.43534 12.3762 3.31155 12.5602 3.14839 12.7054C2.98522 12.8505 2.78801 12.9518 2.57505 13.0001C2.36209 13.0483 2.14036 13.0419 1.93059 12.9813C1.72081 12.9206 1.52979 12.8079 1.37539 12.6535C1.22098 12.4991 1.10818 12.3081 1.04756 12.0983C0.986945 11.8885 0.980473 11.6668 1.02872 11.4538C1.07697 11.2409 1.17835 11.0437 1.32346 10.8805C1.46857 10.7173 1.65265 10.5935 1.85852 10.5208V3.48862C1.57378 3.38562 1.33425 3.18591 1.18168 2.92435C1.02912 2.66279 0.97325 2.35595 1.02378 2.05739C1.0743 1.75883 1.22803 1.4875 1.45817 1.29071C1.6883 1.09391 1.98024 0.984176 2.28302 0.980603C2.55039 0.976703 2.81211 1.05772 3.03052 1.21199C3.24892 1.36626 3.41276 1.58579 3.49847 1.83908H10.5017C10.604 1.55214 10.8043 1.31055 11.0674 1.15694C11.3304 1.00332 11.6393 0.947593 11.9395 0.999503C12.2396 1.05141 12.5118 1.20763 12.708 1.44066C12.9042 1.6737 13.0118 1.96855 13.0118 2.27317C13.0118 2.5778 12.9042 2.87265 12.708 3.10569C12.5118 3.33872 12.2396 3.495 11.9395 3.54691C11.6393 3.59882 11.3304 3.54303 11.0674 3.38941C10.8043 3.2358 10.604 2.99421 10.5017 2.70727H3.49847C3.43467 2.8875 3.33138 3.05116 3.1962 3.18635C3.06101 3.32153 2.89729 3.42483 2.71706 3.48862Z" fill=""/>
<path fill-rule="evenodd" clip-rule="evenodd" d="M12.2862 5.67896L11.3216 4.8783C11.2543 4.81832 11.1757 4.77243 11.0904 4.7433C11.0051 4.71417 10.9149 4.70239 10.825 4.70868C10.7351 4.71497 10.6474 4.73919 10.567 4.77992C10.4866 4.82065 10.4152 4.87707 10.3569 4.94583L6.1222 9.83651C6.05347 9.91764 6.00398 10.0133 5.97748 10.1162L5.77495 11.322C5.75952 11.4917 5.80698 11.6612 5.90836 11.7982C6.00975 11.9351 6.15793 12.03 6.32474 12.0648H6.38267C6.46239 12.0795 6.54411 12.0795 6.62383 12.0648L7.78134 11.6789C7.88718 11.6493 7.98359 11.5929 8.06112 11.515L12.3247 6.59531C12.4296 6.45683 12.4841 6.28666 12.4791 6.113C12.4704 5.9495 12.4017 5.795 12.2862 5.67896ZM7.46305 10.8397L6.7974 11.0712L6.9228 10.3864L9.89394 6.94262L10.4341 7.42494L7.46305 10.8397ZM11.0321 6.72072L10.5017 6.2384L10.926 5.75609L11.4663 6.21915L11.0321 6.72072Z" fill="#1776ff"/>
</g>
<defs>
<clipPath id="clip0_1801_35356">
<rect width="12" height="12" fill="" transform="translate(1 1)"/>
</clipPath>
</defs>
</svg>
