<svg width="13" height="14" viewBox="0 0 13 14" fill="" xmlns="http://www.w3.org/2000/svg">
<path d="M4.375 5.28302H10.1368C10.1718 5.28302 10.2054 5.29693 10.2302 5.3217C10.255 5.34647 10.2689 5.38007 10.2689 5.41509V6.20755C10.2689 6.24258 10.255 6.27617 10.2302 6.30094C10.2054 6.32571 10.1718 6.33962 10.1368 6.33962H4.375C4.33997 6.33962 4.30638 6.32571 4.28161 6.30094C4.25684 6.27617 4.24292 6.24258 4.24292 6.20755V5.41509C4.24292 5.38007 4.25684 5.34647 4.28161 5.3217C4.30638 5.29693 4.33997 5.28302 4.375 5.28302ZM4.375 7.92453H8.63443C8.66946 7.92453 8.70306 7.93844 8.72783 7.96321C8.75259 7.98798 8.76651 8.02157 8.76651 8.0566V8.84906C8.76651 8.88409 8.75259 8.91768 8.72783 8.94245C8.70306 8.96722 8.66946 8.98113 8.63443 8.98113H4.375C4.33997 8.98113 4.30638 8.96722 4.28161 8.94245C4.25684 8.91768 4.24292 8.88409 4.24292 8.84906V8.0566C4.24292 8.02157 4.25684 7.98798 4.28161 7.96321C4.30638 7.93844 4.33997 7.92453 4.375 7.92453ZM3.30189 3.30189V12.8113H11.2264V3.30189H3.30189ZM2.64151 2.11321H11.8868C12.1786 2.11321 12.4151 2.34974 12.4151 2.64151V13.4717C12.4151 13.7635 12.1786 14 11.8868 14H2.64151C2.34974 14 2.11321 13.7635 2.11321 13.4717V2.64151C2.11321 2.34974 2.34974 2.11321 2.64151 2.11321ZM1.18868 1.18868V12.1509C1.18868 12.186 1.17476 12.2196 1.15 12.2443C1.12523 12.2691 1.09163 12.283 1.0566 12.283H0.132075C0.0970469 12.283 0.063453 12.2691 0.038684 12.2443C0.0139151 12.2196 0 12.186 0 12.1509V0.528302C0 0.236531 0.236531 0 0.528302 0H10.9623C10.9973 0 11.0309 0.0139151 11.0557 0.038684C11.0804 0.063453 11.0943 0.0970469 11.0943 0.132075V1.0566C11.0943 1.09163 11.0804 1.12523 11.0557 1.15C11.0309 1.17476 10.9973 1.18868 10.9623 1.18868H1.18868Z" fill="" fill-opacity=""/>
</svg>
