<svg width="14" height="14" viewBox="0 0 14 14" fill="" xmlns="http://www.w3.org/2000/svg">
<g clip-path="url(#clip0_1801_35331)">
<path d="M4.02642 3.39648H9.31276C9.32781 3.39648 9.3427 3.39945 9.3566 3.4052C9.37049 3.41096 9.38312 3.4194 9.39375 3.43003C9.40439 3.44067 9.41283 3.45329 9.41858 3.46719C9.42434 3.48109 9.4273 3.49598 9.4273 3.51102V4.17181C9.42739 4.20073 9.41654 4.2286 9.39693 4.24984C9.37732 4.27109 9.3504 4.28413 9.32158 4.28635H4.03523C4.02135 4.28635 4.0076 4.28362 3.99477 4.2783C3.98194 4.27299 3.97029 4.2652 3.96047 4.25539C3.95065 4.24557 3.94287 4.23391 3.93755 4.22109C3.93224 4.20826 3.92951 4.19451 3.92951 4.18063V3.50221C3.92941 3.47563 3.93933 3.44999 3.95729 3.4304C3.97525 3.41081 3.99993 3.3987 4.02642 3.39648Z" fill=""/>
<path d="M6.56389 5.37891H4.03525C3.972 5.37891 3.92072 5.43019 3.92072 5.49344V6.14543C3.92072 6.20868 3.972 6.25996 4.03525 6.25996H6.56389C6.62714 6.25996 6.67842 6.20868 6.67842 6.14543V5.49344C6.67842 5.43019 6.62714 5.37891 6.56389 5.37891Z" fill=""/>
<path d="M5.89421 11.6785H2.81051V1.98683H10.5198V6.39212C10.5198 6.4225 10.5318 6.45163 10.5533 6.47311C10.5748 6.49459 10.6039 6.50661 10.6343 6.50661H11.4008C11.4312 6.50661 11.4604 6.49459 11.4819 6.47311C11.5034 6.45163 11.5154 6.4225 11.5154 6.39212V1.44053C11.5154 1.32369 11.469 1.21168 11.3864 1.12906C11.3038 1.04645 11.1917 1 11.0748 1H2.26426C2.14742 1 2.03541 1.04645 1.95279 1.12906C1.87018 1.21168 1.82373 1.32369 1.82373 1.44053V12.2599C1.82373 12.3768 1.87018 12.4888 1.95279 12.5715C2.03541 12.6541 2.14742 12.7005 2.26426 12.7005H5.89421C5.92459 12.7005 5.95382 12.6884 5.9753 12.6669C5.99678 12.6454 6.00875 12.6163 6.00875 12.5859V11.8194C6.01281 11.8023 6.01298 11.7845 6.00907 11.7674C6.00517 11.7503 5.99734 11.7344 5.98627 11.7207C5.9752 11.7071 5.96114 11.6962 5.94519 11.6888C5.92924 11.6815 5.91176 11.678 5.89421 11.6785Z" fill=""/>
<path d="M11.9559 10.4973H9.97353V9.98624C10.3284 9.88042 10.6335 9.65043 10.8328 9.33824C11.032 9.02606 11.1122 8.65255 11.0587 8.28607C11.0053 7.91959 10.8217 7.58461 10.5415 7.34236C10.2614 7.10012 9.90336 6.9668 9.533 6.9668C9.16265 6.9668 8.80475 7.10012 8.52461 7.34236C8.24446 7.58461 8.06086 7.91959 8.00739 8.28607C7.95393 8.65255 8.0341 9.02606 8.23336 9.33824C8.43262 9.65043 8.73756 9.88042 9.09247 9.98624V10.4973H7.1101C7.05168 10.4973 6.99567 10.5205 6.95436 10.5618C6.91305 10.6031 6.88983 10.6591 6.88983 10.7175V12.8056C6.88983 12.864 6.91305 12.9201 6.95436 12.9614C6.99567 13.0027 7.05168 13.0259 7.1101 13.0259H11.9559C12.0143 13.0259 12.0704 13.0027 12.1118 12.9614C12.1531 12.9201 12.1762 12.864 12.1762 12.8056V10.7175C12.1762 10.6591 12.1531 10.6031 12.1118 10.5618C12.0704 10.5205 12.0143 10.4973 11.9559 10.4973ZM8.83704 8.51489C8.83529 8.37686 8.87456 8.24144 8.94997 8.12582C9.02538 8.0102 9.13356 7.91963 9.26058 7.8656C9.3876 7.81157 9.52776 7.79651 9.66336 7.82236C9.79895 7.84822 9.92381 7.91381 10.022 8.01079C10.1203 8.10778 10.1874 8.23175 10.215 8.367C10.2426 8.50226 10.2293 8.64267 10.1769 8.77037C10.1245 8.89807 10.0353 9.00727 9.92062 9.08415C9.80597 9.16103 9.67104 9.20212 9.533 9.20214C9.4401 9.20217 9.34813 9.18358 9.26251 9.1475C9.1769 9.11142 9.09937 9.05855 9.0345 8.99203C8.96964 8.92552 8.91883 8.8467 8.8849 8.76021C8.85098 8.67372 8.83469 8.5813 8.83704 8.48843V8.51489ZM11.3216 12.1713H7.73572V11.3431H11.3216V12.1713Z" fill="#1776ff"/>
</g>
<defs>
<clipPath id="clip0_1801_35331">
<rect width="10.3524" height="12" fill="" transform="translate(1.82379 1)"/>
</clipPath>
</defs>
</svg>
