<svg width="15" height="14" viewBox="0 0 15 14" fill="" xmlns="http://www.w3.org/2000/svg">
<g clip-path="url(#clip0_1160_17134)">
<path d="M9.7541 5.92305H4.8791C4.81035 5.92305 4.7541 5.9793 4.7541 6.04805V6.98555C4.7541 7.0543 4.81035 7.11055 4.8791 7.11055H9.7541C9.82285 7.11055 9.8791 7.0543 9.8791 6.98555V6.04805C9.8791 5.9793 9.82285 5.92305 9.7541 5.92305ZM14.1916 12.548L11.9104 10.2668C13.8182 7.94023 13.6854 4.49336 11.5041 2.31367C9.1916 -0.000390649 5.43535 -0.000390649 3.11348 2.31367C0.799414 4.63555 0.799414 8.3918 3.11348 10.7043C5.29316 12.8855 8.74004 13.0184 11.0666 11.1105L13.3479 13.3918C13.3979 13.4355 13.4775 13.4355 13.5197 13.3918L14.1916 12.7199C14.2354 12.6777 14.2354 12.598 14.1916 12.548ZM10.676 9.87617C8.81973 11.7309 5.81348 11.7309 3.95723 9.87617C2.10254 8.01992 2.10254 5.01367 3.95723 3.15742C5.81348 1.30273 8.81973 1.30273 10.676 3.15742C12.5307 5.01367 12.5307 8.01992 10.676 9.87617Z" fill="" fill-opacity=""/>
</g>
<defs>
<clipPath id="clip0_1160_17134">
<rect width="14" height="14" fill="white" transform="translate(0.80127)"/>
</clipPath>
</defs>
</svg>
