<svg width="14" height="14" viewBox="0 0 14 14" fill="" xmlns="http://www.w3.org/2000/svg">
<path d="M6.24907 8.94668C4.72329 7.66426 3.29048 6.45977 1.82349 5.22656C3.28091 4.00156 4.71509 2.79844 6.21899 1.53516V3.24551C7.03794 3.34805 7.81177 3.39316 8.56099 3.54902C10.1182 3.87168 11.3596 4.62773 11.901 6.23555C12.6831 8.55566 11.7561 11.1273 9.67251 12.407C9.6438 12.4248 9.60825 12.4344 9.53442 12.4645C9.81333 12.124 10.0827 11.8342 10.3096 11.5129C10.7581 10.8813 11.0192 10.1785 11.0493 9.39648C11.0766 8.69102 10.7635 8.17832 10.1729 7.82012C9.48247 7.40039 8.70864 7.25137 7.92388 7.18574C7.37974 7.14063 6.83013 7.17754 6.24907 7.17754V8.94668Z" fill="" fill-opacity=""/>
</svg>
