<svg width="14" height="14" viewBox="0 0 14 14" fill="" xmlns="http://www.w3.org/2000/svg">
<g clip-path="url(#clip0_1801_35402)">
<path d="M7.0042 1L1.85535 2.66898V7.90127C1.90887 9.22986 2.47431 10.4862 3.43326 11.4073C4.39222 12.3284 5.67035 12.8428 7.00002 12.8428C8.32969 12.8428 9.60783 12.3284 10.5668 11.4073C11.5257 10.4862 12.0911 9.22986 12.1446 7.90127V2.75246L7.0042 1ZM11.1767 7.85955C11.1767 8.96616 10.7371 10.0274 9.95457 10.8099C9.17208 11.5924 8.11081 12.032 7.0042 12.032C5.89759 12.032 4.83632 11.5924 4.05383 10.8099C3.27135 10.0274 2.83174 8.96616 2.83174 7.85955V3.43675L7.0042 1.96804L11.1767 3.43675V7.85955Z" fill=""/>
<path d="M6.86229 9.60353L5.27675 7.38378L4.9513 7.80938H3.65784V6.97488H4.5424L5.31013 5.99018L6.62028 7.83441L7.95547 4.24609L9.35742 6.97488H10.3338V7.80938H8.84838L8.08065 6.31563L6.86229 9.60353Z" fill="#1776ff"/>
</g>
<defs>
<clipPath id="clip0_1801_35402">
<rect width="10.2893" height="12" fill="" transform="translate(1.85535 1)"/>
</clipPath>
</defs>
</svg>
