<svg width="14" height="14" viewBox="0 0 14 14" fill="" xmlns="http://www.w3.org/2000/svg">
<path d="M4.42108 1.26H4.28108C4.35808 1.26 4.42108 1.197 4.42108 1.12V1.26H9.74109V1.12C9.74109 1.197 9.80409 1.26 9.88109 1.26H9.74109V2.52H11.0011V1.12C11.0011 0.50225 10.4988 0 9.88109 0H4.28108C3.66333 0 3.16108 0.50225 3.16108 1.12V2.52H4.42108V1.26ZM13.2411 2.52H0.921084C0.611334 2.52 0.361084 2.77025 0.361084 3.08V3.64C0.361084 3.717 0.424084 3.78 0.501084 3.78H1.55808L1.99033 12.9325C2.01833 13.5293 2.51183 14 3.10858 14H11.0536C11.6521 14 12.1438 13.531 12.1718 12.9325L12.6041 3.78H13.6611C13.7381 3.78 13.8011 3.717 13.8011 3.64V3.08C13.8011 2.77025 13.5508 2.52 13.2411 2.52ZM10.9188 12.74H3.24333L2.81983 3.78H11.3423L10.9188 12.74Z" fill="" fill-opacity=""/>
</svg>
