<svg width="15" height="14" viewBox="0 0 15 14" fill="" xmlns="http://www.w3.org/2000/svg">
<g clip-path="url(#clip0_1160_17139)">
<path d="M1.4248 9.375H4.89356C5.17012 9.375 5.39356 9.59844 5.39356 9.875V13.375C5.39356 13.5125 5.28105 13.625 5.14355 13.625H4.39356C4.25605 13.625 4.14355 13.5125 4.14355 13.375V10.625H1.4248C1.2873 10.625 1.1748 10.5125 1.1748 10.375V9.625C1.1748 9.4875 1.2873 9.375 1.4248 9.375Z" fill="" fill-opacity=""/>
<path d="M4.39356 0.375H5.14355C5.28105 0.375 5.39356 0.4875 5.39356 0.625V4.125C5.39356 4.40156 5.17012 4.625 4.89356 4.625H1.4248C1.2873 4.625 1.1748 4.5125 1.1748 4.375V3.625C1.1748 3.4875 1.2873 3.375 1.4248 3.375H4.14355V0.625C4.14355 0.4875 4.25605 0.375 4.39356 0.375Z" fill="" fill-opacity=""/>
<path d="M10.7061 9.375H14.1748C14.3123 9.375 14.4248 9.4875 14.4248 9.625V10.375C14.4248 10.5125 14.3123 10.625 14.1748 10.625H11.4561V13.375C11.4561 13.5125 11.3436 13.625 11.2061 13.625H10.4561C10.3186 13.625 10.2061 13.5125 10.2061 13.375V9.875C10.2061 9.59844 10.4295 9.375 10.7061 9.375Z" fill="" fill-opacity=""/>
<path d="M11.4561 3.375H14.1748C14.3123 3.375 14.4248 3.4875 14.4248 3.625V4.375C14.4248 4.5125 14.3123 4.625 14.1748 4.625H10.7061C10.4295 4.625 10.2061 4.40156 10.2061 4.125V0.625C10.2061 0.4875 10.3186 0.375 10.4561 0.375H11.2061C11.3436 0.375 11.4561 0.4875 11.4561 0.625V3.375Z" fill="" fill-opacity=""/>
<path d="M7.80054 8.74902C8.76704 8.74902 9.55054 7.96552 9.55054 6.99902C9.55054 6.03253 8.76704 5.24902 7.80054 5.24902C6.83404 5.24902 6.05054 6.03253 6.05054 6.99902C6.05054 7.96552 6.83404 8.74902 7.80054 8.74902Z" fill="" fill-opacity=""/>
</g>
<defs>
<clipPath id="clip0_1160_17139">
<rect width="14" height="14" fill="white" transform="translate(0.800781)"/>
</clipPath>
</defs>
</svg>
