<svg width="14" height="14" viewBox="0 0 14 14" fill="" xmlns="http://www.w3.org/2000/svg">
<g clip-path="url(#clip0_1801_35443)">
<path d="M8.50209 4.88806C8.17666 4.55675 7.73998 4.35779 7.27643 4.32963C6.81288 4.30147 6.35534 4.44609 5.9922 4.73557C5.62905 5.02505 5.38607 5.43884 5.3102 5.897C5.23432 6.35517 5.33093 6.82518 5.58137 7.21628L4.57156 8.22603C4.5652 8.25066 4.5652 8.27648 4.57156 8.30111C4.56387 8.32555 4.56387 8.35179 4.57156 8.37624L5.01387 8.81849C5.03407 8.83787 5.06095 8.84869 5.08894 8.84869C5.11694 8.84869 5.14392 8.83787 5.16412 8.81849L6.17382 7.80879C6.56492 8.05922 7.03493 8.15583 7.4931 8.07996C7.95127 8.00408 8.3651 7.76105 8.65458 7.39791C8.94406 7.03476 9.08869 6.57722 9.06052 6.11367C9.03236 5.65012 8.8334 5.21349 8.50209 4.88806ZM7.90953 6.95759C7.76354 7.10321 7.57772 7.20227 7.37544 7.24231C7.17317 7.28234 6.96356 7.26154 6.77311 7.18251C6.58265 7.10348 6.41994 6.9698 6.30544 6.79832C6.19093 6.62684 6.12982 6.42525 6.12982 6.21905C6.12982 6.01286 6.19093 5.81127 6.30544 5.63979C6.41994 5.46831 6.58265 5.33463 6.77311 5.2556C6.96356 5.17657 7.17317 5.15577 7.37544 5.1958C7.57772 5.23584 7.76354 5.3349 7.90953 5.48052C8.00667 5.57742 8.0838 5.69255 8.13639 5.81928C8.18897 5.94601 8.21605 6.08185 8.21605 6.21905C8.21605 6.35626 8.18897 6.4921 8.13639 6.61883C8.0838 6.74556 8.00667 6.86069 7.90953 6.95759Z" fill=""/>
<path d="M11.6315 2.53528L7.2003 1.02486C7.13389 1.01515 7.06643 1.01515 7.00003 1.02486C6.93638 1.01561 6.87175 1.01561 6.80811 1.02486L2.37691 2.53528C2.32014 2.55884 2.27126 2.59799 2.23582 2.6482C2.20038 2.69842 2.17982 2.75761 2.17664 2.81898V9.10273C2.18505 9.23431 2.24509 9.35723 2.3436 9.44485L6.84152 12.9414C6.8627 12.9612 6.88763 12.9766 6.91487 12.9867C6.9421 12.9967 6.97103 13.0012 7.00003 12.9998C7.06104 13.0021 7.12061 12.9812 7.16688 12.9414L11.6648 9.44485C11.7582 9.35434 11.8147 9.23246 11.8234 9.10273V2.81898C11.823 2.75803 11.8045 2.69859 11.7703 2.6481C11.7362 2.59761 11.6879 2.55835 11.6315 2.53528ZM10.8888 8.8524L7.00003 11.8816L3.14468 8.8524V3.27794L7.02508 1.95113L10.9138 3.27794L10.8888 8.8524Z" fill=""/>
<path d="M8.50209 4.88806C8.17666 4.55675 7.73998 4.35779 7.27643 4.32963C6.81288 4.30147 6.35534 4.44609 5.9922 4.73557C5.62905 5.02505 5.38607 5.43884 5.3102 5.897C5.23432 6.35517 5.33093 6.82518 5.58137 7.21628L4.57156 8.22603C4.5652 8.25066 4.5652 8.27648 4.57156 8.30111C4.56387 8.32555 4.56387 8.35179 4.57156 8.37624L5.01387 8.81849C5.03407 8.83787 5.06095 8.84869 5.08894 8.84869C5.11694 8.84869 5.14392 8.83787 5.16412 8.81849L6.17382 7.80879C6.56492 8.05922 7.03493 8.15583 7.4931 8.07996C7.95127 8.00408 8.3651 7.76105 8.65458 7.39791C8.94406 7.03476 9.08869 6.57722 9.06052 6.11367C9.03236 5.65012 8.8334 5.21349 8.50209 4.88806ZM7.90953 6.95759C7.76354 7.10321 7.57772 7.20227 7.37544 7.24231C7.17317 7.28234 6.96356 7.26154 6.77311 7.18251C6.58265 7.10348 6.41994 6.9698 6.30544 6.79832C6.19093 6.62684 6.12982 6.42525 6.12982 6.21905C6.12982 6.01286 6.19093 5.81127 6.30544 5.63979C6.41994 5.46831 6.58265 5.33463 6.77311 5.2556C6.96356 5.17657 7.17317 5.15577 7.37544 5.1958C7.57772 5.23584 7.76354 5.3349 7.90953 5.48052C8.00667 5.57742 8.0838 5.69255 8.13639 5.81928C8.18897 5.94601 8.21605 6.08185 8.21605 6.21905C8.21605 6.35626 8.18897 6.4921 8.13639 6.61883C8.0838 6.74556 8.00667 6.86069 7.90953 6.95759Z" fill=""/>
<path d="M8.50209 4.88806C8.17666 4.55675 7.73998 4.35779 7.27643 4.32963C6.81288 4.30147 6.35534 4.44609 5.9922 4.73557C5.62905 5.02505 5.38607 5.43884 5.3102 5.897C5.23432 6.35517 5.33093 6.82518 5.58137 7.21628L4.57156 8.22603C4.5652 8.25066 4.5652 8.27648 4.57156 8.30111C4.56387 8.32555 4.56387 8.35179 4.57156 8.37624L5.01387 8.81849C5.03407 8.83787 5.06095 8.84869 5.08894 8.84869C5.11694 8.84869 5.14392 8.83787 5.16412 8.81849L6.17382 7.80879C6.56492 8.05922 7.03493 8.15583 7.4931 8.07996C7.95127 8.00408 8.3651 7.76105 8.65458 7.39791C8.94406 7.03476 9.08869 6.57722 9.06052 6.11367C9.03236 5.65012 8.8334 5.21349 8.50209 4.88806ZM7.90953 6.95759C7.76354 7.10321 7.57772 7.20227 7.37544 7.24231C7.17317 7.28234 6.96356 7.26154 6.77311 7.18251C6.58265 7.10348 6.41994 6.9698 6.30544 6.79832C6.19093 6.62684 6.12982 6.42525 6.12982 6.21905C6.12982 6.01286 6.19093 5.81127 6.30544 5.63979C6.41994 5.46831 6.58265 5.33463 6.77311 5.2556C6.96356 5.17657 7.17317 5.15577 7.37544 5.1958C7.57772 5.23584 7.76354 5.3349 7.90953 5.48052C8.00667 5.57742 8.0838 5.69255 8.13639 5.81928C8.18897 5.94601 8.21605 6.08185 8.21605 6.21905C8.21605 6.35626 8.18897 6.4921 8.13639 6.61883C8.0838 6.74556 8.00667 6.86069 7.90953 6.95759Z" fill="#1776ff"/>
</g>
<defs>
<clipPath id="clip0_1801_35443">
<rect width="9.64673" height="12" fill="" transform="translate(2.17664 1)"/>
</clipPath>
</defs>
</svg>
