<svg width="14" height="14" viewBox="0 0 14 14" fill="none" xmlns="http://www.w3.org/2000/svg">
<g clip-path="url(#clip0_6_10614)">
<path fill-rule="evenodd" clip-rule="evenodd" d="M14.0051 11.1998C14.0283 11.2303 14.0451 11.2651 14.0548 11.3021C14.0746 11.3768 14.0636 11.4565 14.0244 11.5233L13.3814 12.6233C13.362 12.6566 13.3361 12.6858 13.3053 12.709C13.2744 12.7323 13.2393 12.7492 13.2019 12.7587C13.1645 12.7683 13.1256 12.7703 13.0874 12.7647C13.0492 12.7591 13.0125 12.746 12.9794 12.726L12.4471 12.406C12.3084 12.5062 12.1607 12.5933 12.0061 12.6663V13.3962C12.0061 13.4735 11.9753 13.5477 11.9206 13.6024C11.8659 13.6571 11.7917 13.6878 11.7144 13.6878H10.3144C10.2761 13.6878 10.2382 13.6803 10.2028 13.6656C10.1674 13.651 10.1352 13.6295 10.1081 13.6024C10.0811 13.5753 10.0596 13.5432 10.0449 13.5078C10.0303 13.4724 10.0227 13.4345 10.0227 13.3962V12.7131C9.83314 12.6409 9.69862 12.5482 9.57472 12.4479L9.11692 12.7388C9.08399 12.7597 9.04719 12.7738 9.0087 12.7803C8.97021 12.7868 8.93081 12.7854 8.89285 12.7764C8.85489 12.7673 8.81913 12.7507 8.78769 12.7276C8.75626 12.7045 8.7298 12.6753 8.70987 12.6417L8.05817 11.5468C8.03856 11.5139 8.02563 11.4774 8.02011 11.4395C8.0146 11.4016 8.01661 11.363 8.02602 11.3259C8.03544 11.2888 8.05208 11.2539 8.07499 11.2232C8.0979 11.1925 8.12664 11.1667 8.15955 11.1471L8.63392 10.8644C8.61292 10.7365 8.6023 10.608 8.6023 10.48C8.6021 10.3802 8.60783 10.2805 8.61945 10.1814L8.14544 9.90679C8.07866 9.8681 8.02994 9.80451 8.00995 9.72997C7.98996 9.65542 8.00034 9.57599 8.0388 9.50908L8.67114 8.40914C8.69052 8.37549 8.71643 8.34605 8.74734 8.32254C8.77824 8.29903 8.81353 8.28192 8.85114 8.27221C8.88874 8.26251 8.9279 8.26041 8.96633 8.26603C9.00475 8.27166 9.04167 8.28489 9.07492 8.30496L9.506 8.56583C9.65487 8.44193 9.81459 8.33296 10.0227 8.25059V7.79606C10.0227 7.75776 10.0303 7.71983 10.0449 7.68444C10.0596 7.64906 10.0811 7.61691 10.1081 7.58982C10.1352 7.56274 10.1674 7.54125 10.2028 7.5266C10.2382 7.51194 10.2761 7.50439 10.3144 7.50439H11.7144C11.7527 7.50439 11.7906 7.51194 11.826 7.5266C11.8614 7.54125 11.8935 7.56274 11.9206 7.58982C11.9477 7.61691 11.9692 7.64906 11.9839 7.68444C11.9985 7.71983 12.0061 7.75776 12.0061 7.79606V8.29609C12.1476 8.36469 12.3199 8.46036 12.4836 8.58274L12.9619 8.28921C12.9948 8.26902 13.0314 8.25558 13.0696 8.24966C13.1078 8.24373 13.1467 8.24545 13.1842 8.25471C13.2217 8.26397 13.257 8.28058 13.2881 8.30359C13.3191 8.32659 13.3452 8.35553 13.365 8.38873L14.0165 9.48376C14.036 9.51668 14.049 9.55313 14.0545 9.59104C14.06 9.62895 14.0579 9.66756 14.0485 9.70469C14.0391 9.74182 14.0224 9.77673 13.9995 9.80742C13.9766 9.83811 13.9479 9.86399 13.915 9.88358L13.3833 10.2C13.4071 10.4018 13.4049 10.6057 13.377 10.807L13.92 11.1243C13.953 11.1436 13.982 11.1693 14.0051 11.1998ZM12.5735 11.8012L13.0271 12.0739L13.3741 11.481L12.9064 11.2076C12.8526 11.1762 12.8103 11.1284 12.7857 11.0713C12.7611 11.0141 12.7553 10.9506 12.7694 10.8899C12.8288 10.6337 12.832 10.3675 12.7787 10.1099C12.7664 10.0505 12.7729 9.98869 12.7974 9.93314C12.8219 9.8776 12.8631 9.83107 12.9152 9.80004L13.3663 9.53159L13.0151 8.94114L12.6109 9.18906C12.5565 9.22241 12.4927 9.237 12.4292 9.23062C12.3657 9.22423 12.3061 9.19722 12.2595 9.15371C12.1029 9.00764 11.8635 8.86193 11.603 8.75389C11.5497 8.73181 11.5041 8.69442 11.4721 8.64645C11.44 8.59848 11.4229 8.54208 11.423 8.48439V8.08773H10.6063V8.46188C10.6063 8.52634 10.585 8.589 10.5456 8.64005C10.5062 8.69109 10.4511 8.72764 10.3887 8.74398C10.1022 8.81923 9.95062 8.94441 9.73514 9.14134C9.68868 9.18392 9.62967 9.21028 9.56696 9.21646C9.50425 9.22265 9.44123 9.20833 9.38735 9.17564L9.02837 8.95853L8.68969 9.54781L9.08647 9.77776C9.13992 9.80874 9.18216 9.85589 9.20709 9.91242C9.23202 9.96895 9.23836 10.0319 9.22519 10.0923C9.19905 10.2118 9.18587 10.3422 9.18587 10.48C9.18615 10.6335 9.20598 10.7864 9.2449 10.9349C9.26076 10.996 9.25636 11.0606 9.23235 11.119C9.20835 11.1774 9.16604 11.2264 9.11179 11.2587L8.70882 11.4989L9.05777 12.0852L9.44265 11.8405C9.49518 11.8072 9.55697 11.7915 9.61903 11.7958C9.68108 11.8001 9.74016 11.824 9.78764 11.8642L9.83395 11.9037C10.0156 12.0587 10.1254 12.1524 10.3825 12.2141C10.4462 12.2294 10.503 12.2657 10.5435 12.3171C10.5841 12.3686 10.6062 12.4322 10.6062 12.4977V13.1044H11.4228V12.475C11.4229 12.4163 11.4405 12.3591 11.4736 12.3107C11.5066 12.2622 11.5535 12.2249 11.6081 12.2035C11.8421 12.1117 12.0685 11.9769 12.2291 11.8335C12.2756 11.7921 12.334 11.7666 12.396 11.7608C12.458 11.755 12.5202 11.7691 12.5735 11.8012ZM9.64915 10.4794C9.64915 9.73311 10.2562 9.12598 11.0024 9.12598C11.7487 9.12598 12.3558 9.73311 12.3558 10.4794C12.3558 11.2257 11.7486 11.8328 11.0024 11.8328C10.2562 11.8328 9.64915 11.2257 9.64915 10.4794ZM10.4582 11.0236C10.6025 11.168 10.7982 11.2492 11.0024 11.2494C11.427 11.2494 11.7725 10.904 11.7725 10.4794C11.7723 10.2752 11.6911 10.0795 11.5467 9.93511C11.4023 9.79073 11.2066 9.70953 11.0024 9.70931C10.5778 9.70931 10.2325 10.0548 10.2325 10.4794C10.2327 10.6836 10.3139 10.8793 10.4582 11.0236Z" fill="#1776FF"/>
<path d="M7.79252 12.0496C7.37229 12.0858 6.93595 12.1042 6.49589 12.1042C3.64712 12.1042 1.82922 11.3614 1.82922 10.85C1.82922 10.7847 1.80717 10.7252 1.77089 10.6766V9.1322C2.6691 9.78367 4.59049 10.1208 6.49589 10.1208C6.57324 10.1208 6.64743 10.0901 6.70213 10.0354C6.75682 9.98071 6.78755 9.90652 6.78755 9.82917C6.78755 9.75181 6.75682 9.67763 6.70213 9.62293C6.64743 9.56823 6.57324 9.5375 6.49589 9.5375C3.64712 9.5375 1.82922 8.79468 1.82922 8.28333C1.82912 8.22074 1.80864 8.15989 1.77089 8.10997V6.56553C2.6691 7.21712 4.59049 7.55417 6.49589 7.55417C6.57499 7.55417 6.65362 7.55405 6.73179 7.55277C6.80756 7.55014 6.87932 7.51806 6.9318 7.46334C6.98428 7.40861 7.01334 7.33557 7.01279 7.25976C7.01225 7.18394 6.98214 7.11133 6.92887 7.05737C6.87561 7.00341 6.80339 6.97236 6.72759 6.97083H6.72315C6.64779 6.97083 6.57195 6.97165 6.49589 6.97165C3.64712 6.97165 1.82922 6.22802 1.82922 5.71667C1.82912 5.65408 1.80864 5.59322 1.77089 5.5433V3.99887C2.6691 4.65033 4.59049 4.9875 6.49589 4.9875C8.32242 4.9875 10.1637 4.67775 11.1042 4.07808V6.7375C11.1042 6.81485 11.1349 6.88904 11.1896 6.94374C11.2443 6.99844 11.3185 7.02917 11.3959 7.02917C11.4732 7.02917 11.5474 6.99844 11.6021 6.94374C11.6568 6.88904 11.6876 6.81485 11.6876 6.7375V3.44843C11.725 3.35312 11.7459 3.25383 11.7459 3.15C11.7459 1.94367 9.10479 1.3125 6.49589 1.3125C3.95559 1.3125 1.38565 1.91112 1.2523 3.05632C1.21066 3.10754 1.18781 3.17148 1.18755 3.2375V10.9375C1.18755 11.0381 1.23854 11.1267 1.31589 11.1791C1.74954 12.1708 4.13572 12.6875 6.49589 12.6875C6.95264 12.6875 7.40577 12.6685 7.84269 12.6309C8.0031 12.617 8.1221 12.4757 8.10822 12.3152C8.09434 12.1547 7.95305 12.0368 7.79252 12.0496ZM6.49589 1.89583C9.107 1.89583 10.8509 2.51977 11.1239 3.0177C11.1112 3.0506 11.1045 3.08555 11.1042 3.12083V3.31485C10.7752 3.80695 9.05054 4.40417 6.49589 4.40417C3.64712 4.40417 1.82922 3.66135 1.82922 3.15C1.82922 2.63865 3.64712 1.89583 6.49589 1.89583Z" fill="#5F7292" stroke="#5F7292" stroke-width="0.4"/>
</g>
<defs>
<clipPath id="clip0_6_10614">
<rect width="14" height="14" fill="white"/>
</clipPath>
</defs>
</svg>
