<svg width="15" height="14" viewBox="0 0 15 14" fill="" xmlns="http://www.w3.org/2000/svg">
<g clip-path="url(#clip0_1009_35660)">
<path d="M4.73828 9.49815H5.67578C5.74453 9.49815 5.80078 9.44191 5.80078 9.37315V4.62316C5.80078 4.55441 5.74453 4.49815 5.67578 4.49815H4.73828C4.66953 4.49815 4.61328 4.55441 4.61328 4.62316V9.37315C4.61328 9.44191 4.66953 9.49815 4.73828 9.49815ZM7.80078 8.71691C8.1461 8.71691 8.42578 8.43722 8.42578 8.10753C8.42578 7.74659 8.1461 7.46691 7.80078 7.46691C7.45547 7.46691 7.17578 7.74659 7.17578 8.10753C7.17578 8.43722 7.45547 8.71691 7.80078 8.71691ZM7.80078 6.52941C8.1461 6.52941 8.42578 6.24972 8.42578 5.92003C8.42578 5.55909 8.1461 5.27941 7.80078 5.27941C7.45547 5.27941 7.17578 5.55909 7.17578 5.92003C7.17578 6.24972 7.45547 6.52941 7.80078 6.52941Z" fill="" fill-opacity=""/>
<path d="M13.5508 0.751953H2.05078C1.77422 0.751953 1.55078 0.975391 1.55078 1.25195V12.752C1.55078 13.0285 1.77422 13.252 2.05078 13.252H13.5508C13.8273 13.252 14.0508 13.0285 14.0508 12.752V1.25195C14.0508 0.975391 13.8273 0.751953 13.5508 0.751953ZM12.9258 12.127H2.67578V1.87695H12.9258V12.127Z" fill="" fill-opacity=""/>
<path d="M9.9259 9.49815H10.8634C10.9322 9.49815 10.9884 9.44191 10.9884 9.37315V4.62316C10.9884 4.55441 10.9322 4.49815 10.8634 4.49815H9.9259C9.85715 4.49815 9.8009 4.55441 9.8009 4.62316V9.37315C9.8009 9.44191 9.85715 9.49815 9.9259 9.49815Z" fill="" fill-opacity=""/>
</g>
<defs>
<clipPath id="clip0_1009_35660">
<rect width="14" height="14" fill="white" transform="translate(0.800781)"/>
</clipPath>
</defs>
</svg>
