<svg width="14" height="14" viewBox="0 0 14 14" fill="" xmlns="http://www.w3.org/2000/svg">
<g clip-path="url(#clip0_1801_35343)">
<path d="M9.26491 3.0873L5.37238 5.92578L6.0466 6.85037L9.93913 4.01189L9.26491 3.0873Z" fill=""/>
<path d="M5.82114 7.03169L5.15063 7.95898L9.05453 10.7818L9.72503 9.85453L5.82114 7.03169Z" fill=""/>
<path d="M4.75712 4.68889C4.26447 4.51137 3.72807 4.49539 3.22574 4.64331C2.7234 4.79123 2.28126 5.09535 1.96344 5.51153C1.64561 5.92771 1.46865 6.43431 1.45819 6.95786C1.44774 7.48142 1.60432 7.99469 1.90528 8.42322C2.20624 8.85176 2.63589 9.17327 3.13192 9.34112C3.62794 9.50897 4.16456 9.51444 4.6639 9.35672C5.16324 9.199 5.59935 8.88631 5.90897 8.46399C6.21859 8.04167 6.38566 7.53167 6.38586 7.00801C6.38606 6.50082 6.22971 6.00593 5.93821 5.59087C5.64672 5.17581 5.23427 4.86084 4.75712 4.68889ZM5.21482 7.46192C5.08355 7.78954 4.83052 8.05363 4.5088 8.19877C4.18709 8.34391 3.82168 8.35884 3.48919 8.24044C3.15669 8.12205 2.88296 7.87952 2.72538 7.56371C2.5678 7.2479 2.53861 6.88335 2.64394 6.54649C2.70374 6.37746 2.79636 6.22191 2.91643 6.08876C3.03649 5.95561 3.18167 5.84746 3.34363 5.77055C3.50559 5.69365 3.68112 5.64949 3.86019 5.6406C4.03926 5.63171 4.21836 5.65829 4.38714 5.71878C4.55616 5.77858 4.71169 5.87115 4.84484 5.99121C4.978 6.11128 5.08614 6.25646 5.16305 6.41842C5.23995 6.58038 5.28411 6.75595 5.293 6.93503C5.30189 7.1141 5.27531 7.29314 5.21482 7.46192Z" fill="#1776ff"/>
<path d="M10.0629 4.56306C10.2601 4.63273 10.468 4.66758 10.6771 4.66606C11.1336 4.66357 11.5726 4.48993 11.9072 4.17944C12.2419 3.86895 12.4479 3.44421 12.4845 2.98917C12.5212 2.53413 12.3858 2.08189 12.1051 1.72184C11.8244 1.3618 11.4189 1.12015 10.9687 1.04465C10.5185 0.969142 10.0563 1.0653 9.67354 1.31408C9.29077 1.56286 9.01525 1.94617 8.90144 2.38826C8.78764 2.83036 8.84381 3.29908 9.05887 3.70176C9.27394 4.10444 9.63222 4.41179 10.0629 4.56306ZM9.71968 2.49568C9.78972 2.29757 9.91933 2.12596 10.0907 2.00441C10.2621 1.88285 10.467 1.81729 10.6771 1.81671C10.7941 1.81812 10.91 1.83875 11.0203 1.87776C11.2101 1.94526 11.3757 2.06751 11.496 2.22909C11.6163 2.39067 11.6859 2.5843 11.6962 2.78549C11.7064 2.98667 11.6568 3.18637 11.5536 3.35934C11.4503 3.53231 11.2981 3.67077 11.1161 3.75721C10.9342 3.84366 10.7307 3.87418 10.5314 3.84496C10.332 3.81574 10.1459 3.72807 9.9964 3.59304C9.84692 3.458 9.74081 3.28165 9.69156 3.08632C9.6423 2.89099 9.65211 2.68546 9.71968 2.49568Z" fill=""/>
<path d="M11.3102 9.44453C10.8525 9.28115 10.3486 9.3063 9.90935 9.51447C9.47014 9.72263 9.13157 10.0968 8.96819 10.5545C8.80481 11.0123 8.83001 11.5162 9.03818 11.9554C9.24634 12.3946 9.62042 12.7331 10.0782 12.8965C10.2754 12.9662 10.4832 13.001 10.6923 12.9995C11.1238 12.9999 11.5416 12.8479 11.8719 12.5703C12.2023 12.2927 12.424 11.9073 12.4979 11.4822C12.5718 11.057 12.4932 10.6195 12.2759 10.2467C12.0586 9.87385 11.7166 9.58975 11.3102 9.44453ZM11.6535 11.5119C11.5907 11.6874 11.4808 11.8424 11.336 11.9598C11.1912 12.0772 11.0169 12.1526 10.8322 12.1777C10.6475 12.2029 10.4594 12.1769 10.2884 12.1025C10.1175 12.0281 9.97017 11.9083 9.86265 11.7559C9.75514 11.6036 9.69152 11.4247 9.67868 11.2387C9.66585 11.0527 9.7043 10.8668 9.78987 10.7011C9.87545 10.5355 10.0049 10.3965 10.164 10.2994C10.3231 10.2022 10.5059 10.1506 10.6923 10.1502C10.8093 10.1516 10.9253 10.1722 11.0356 10.2112C11.29 10.3018 11.498 10.4897 11.6139 10.7336C11.7298 10.9775 11.744 11.2575 11.6535 11.5119Z" fill=""/>
</g>
<defs>
<clipPath id="clip0_1801_35343">
<rect width="11.054" height="12" fill="" transform="translate(1.47296 1)"/>
</clipPath>
</defs>
</svg>
