<svg width="14" height="14" viewBox="0 0 14 14" fill="none" xmlns="http://www.w3.org/2000/svg">
<g clip-path="url(#clip0_34_5022)">
<mask id="mask0_34_5022" style="mask-type:luminance" maskUnits="userSpaceOnUse" x="0" y="0" width="14" height="14">
<path d="M14 0H0V14H14V0Z" fill="white"/>
</mask>
<g mask="url(#mask0_34_5022)">
<path d="M13.1197 5.23086C13.5841 5.7793 13.4927 6.57984 12.9133 7.03392C12.5889 7.2812 12.1674 7.36223 11.7744 7.25285L8.14766 11.1406C8.1919 11.2732 8.21402 11.4221 8.21402 11.574C8.21402 12.2839 7.66634 12.8316 6.95644 12.8316C6.25762 12.842 5.6884 12.2728 5.69887 11.574C5.69887 11.5415 5.70108 11.515 5.70772 11.4804L3.52356 10.1882C3.31863 10.3157 3.082 10.3872 2.85865 10.3872C2.15924 10.3981 1.58944 9.82829 1.60035 9.12885C1.60035 8.77507 1.77726 8.41016 2.0559 8.17428L1.53621 5.88176C1.10425 5.78077 0.749679 5.44463 0.64869 5.03478C0.440077 4.36693 0.807176 3.68581 1.48682 3.4735C1.85392 3.36293 2.22323 3.41748 2.53136 3.62462L4.73248 2.32135C4.82756 2.00954 4.96173 1.78618 5.15707 1.62327C5.69592 1.16624 6.45813 1.23996 6.92622 1.79281C7.05153 1.95056 7.13409 2.11569 7.18348 2.30882L11.4891 4.96696C12.0177 4.62271 12.6966 4.73107 13.119 5.23013L13.1197 5.23086ZM7.39799 6.95726C7.33179 7.38071 7.08053 7.75273 6.71245 7.97231L6.67706 8.05413L7.18127 10.4159L7.24024 10.4757L7.28889 10.4882L7.33534 10.5037L7.41642 10.4838L10.8368 6.84373L10.7763 6.71326L7.47023 6.89239L7.39799 6.95726ZM5.80355 8.13374C5.58009 8.11662 5.36481 8.04224 5.17845 7.91775L5.08631 7.92218L3.98796 8.81266L3.9629 8.89519C3.98901 8.97037 4.00271 9.04933 4.00344 9.12885C4.00311 9.16609 3.99766 9.20305 3.98722 9.23875L4.02261 9.32352L6.26352 10.6489L6.37852 10.5663L5.87284 8.19492L5.80355 8.13374ZM3.47269 8.14775L4.5821 7.27791L4.60863 7.19314C4.55979 7.03969 4.53566 6.87945 4.53713 6.71842C4.53713 6.68746 4.54008 6.66608 4.5504 6.62259L4.50617 6.53413L2.65889 5.73949L2.55273 5.82795L3.04588 8.00105L3.11002 8.06002C3.1911 8.07255 3.27072 8.09983 3.39087 8.15659L3.47196 8.14775H3.47269ZM2.94342 4.82985L2.93973 4.89251L2.98618 4.9677L4.84599 5.7734L4.93519 5.75276C5.0922 5.56847 5.28828 5.43726 5.5168 5.36502L5.57061 5.29131V3.68433L5.52785 3.61577C5.38545 3.54215 5.25618 3.44551 5.14527 3.32976L5.14011 3.3246L5.04502 3.30986L2.98765 4.49519L2.94858 4.56816C2.95307 4.6554 2.95134 4.74286 2.94342 4.82985ZM6.81565 3.34155C6.78985 3.37547 6.75667 3.41232 6.7036 3.46466L6.68296 3.48162C6.5746 3.55386 6.51342 3.59219 6.4574 3.61873L6.4139 3.68875V5.29646L6.4655 5.37018C6.80016 5.49034 7.08691 5.73359 7.25646 6.04393L7.32943 6.08373L10.8161 5.86997L10.8515 5.72696L6.91737 3.32165L6.81565 3.34082V3.34155Z" fill="#5F7292"/>
<path d="M7.44811 6.73174C7.44811 6.78002 7.44574 6.82819 7.44101 6.87625C7.43628 6.9243 7.4292 6.972 7.41978 7.01935C7.41036 7.06671 7.39864 7.11349 7.38463 7.1597C7.37061 7.20591 7.35436 7.25131 7.33588 7.29592C7.3174 7.34053 7.29679 7.38413 7.27403 7.42671C7.25126 7.46929 7.22647 7.51066 7.19964 7.55081C7.17282 7.59095 7.14409 7.62969 7.11346 7.66701C7.08283 7.70434 7.05044 7.74007 7.0163 7.77422C6.98215 7.80836 6.94642 7.84075 6.90909 7.87138C6.87177 7.90201 6.83304 7.93074 6.79289 7.95756C6.75274 7.98439 6.71138 8.00918 6.66879 8.03194C6.62621 8.0547 6.58261 8.07532 6.538 8.0938C6.4934 8.11228 6.44799 8.12853 6.40178 8.14254C6.35557 8.15656 6.30879 8.16828 6.26143 8.1777C6.21408 8.18712 6.16638 8.1942 6.11833 8.19893C6.07027 8.20366 6.0221 8.20603 5.97382 8.20603C5.92553 8.20603 5.87736 8.20366 5.82931 8.19893C5.78126 8.1942 5.73355 8.18712 5.6862 8.1777C5.63884 8.16828 5.59206 8.15656 5.54585 8.14254C5.49965 8.12853 5.45424 8.11228 5.40963 8.0938C5.36502 8.07532 5.32143 8.0547 5.27884 8.03194C5.23626 8.00918 5.19489 7.98439 5.15475 7.95756C5.1146 7.93074 5.07586 7.90201 5.03854 7.87138C5.00121 7.84075 4.96548 7.80836 4.93134 7.77422C4.89719 7.74007 4.86481 7.70434 4.83418 7.66701C4.80354 7.62969 4.77482 7.59095 4.74799 7.55081C4.72116 7.51066 4.69637 7.46929 4.67361 7.42671C4.65085 7.38413 4.63023 7.34053 4.61175 7.29592C4.59327 7.25131 4.57703 7.20591 4.56301 7.1597C4.54899 7.11349 4.53727 7.06671 4.52786 7.01935C4.51844 6.972 4.51136 6.9243 4.50663 6.87625C4.50189 6.82819 4.49953 6.78002 4.49953 6.73174C4.49953 6.68345 4.50189 6.63528 4.50663 6.58723C4.51136 6.53918 4.51844 6.49147 4.52786 6.44411C4.53727 6.39676 4.54899 6.34998 4.56301 6.30377C4.57703 6.25757 4.59327 6.21216 4.61175 6.16755C4.63023 6.12294 4.65085 6.07935 4.67361 6.03676C4.69637 5.99418 4.72116 5.95281 4.74799 5.91266C4.77482 5.87252 4.80354 5.83378 4.83418 5.79646C4.86481 5.75913 4.89719 5.7234 4.93134 5.68926C4.96548 5.65511 5.00121 5.62273 5.03854 5.59209C5.07586 5.56146 5.1146 5.53273 5.15475 5.50591C5.19489 5.47908 5.23626 5.45429 5.27884 5.43153C5.32143 5.40877 5.36502 5.38815 5.40963 5.36967C5.45424 5.35119 5.49965 5.33494 5.54585 5.32093C5.59206 5.30691 5.63884 5.29519 5.6862 5.28577C5.73355 5.27635 5.78126 5.26928 5.82931 5.26455C5.87736 5.25981 5.92553 5.25745 5.97382 5.25745C6.0221 5.25745 6.07027 5.25981 6.11833 5.26455C6.16638 5.26928 6.21408 5.27635 6.26143 5.28577C6.30879 5.29519 6.35557 5.30691 6.40178 5.32093C6.44799 5.33494 6.4934 5.35119 6.538 5.36967C6.58261 5.38815 6.62621 5.40877 6.66879 5.43153C6.71138 5.45429 6.75274 5.47908 6.79289 5.50591C6.83304 5.53273 6.87177 5.56146 6.90909 5.59209C6.94642 5.62273 6.98215 5.65511 7.0163 5.68926C7.05044 5.7234 7.08283 5.75913 7.11346 5.79646C7.14409 5.83378 7.17282 5.87252 7.19964 5.91266C7.22647 5.95281 7.25126 5.99418 7.27403 6.03676C7.29679 6.07935 7.3174 6.12294 7.33588 6.16755C7.35436 6.21216 7.37061 6.25757 7.38463 6.30377C7.39864 6.34998 7.41036 6.39676 7.41978 6.44411C7.4292 6.49147 7.43628 6.53918 7.44101 6.58723C7.44574 6.63528 7.44811 6.68345 7.44811 6.73174Z" fill="#1776FF"/>
</g>
</g>
<defs>
<clipPath id="clip0_34_5022">
<rect width="14" height="14" fill="white"/>
</clipPath>
</defs>
</svg>
