<svg width="15" height="14" viewBox="0 0 15 14" fill="" xmlns="http://www.w3.org/2000/svg">
<path d="M14.3608 5.56054C14.3608 5.44551 14.3093 5.3364 14.2205 5.26343L12.007 3.44358C11.9382 3.38703 11.8519 3.35611 11.7628 3.35609H6.97536C6.76288 3.35609 6.59059 3.52838 6.59059 3.74087V13.6152C6.59059 13.8277 6.76288 14 6.97536 14H13.9762C14.1887 14 14.361 13.8277 14.361 13.6152L14.3608 5.56054ZM13.5299 10.7317C13.5299 10.9442 13.3577 11.1165 13.1452 11.1165H7.75658C7.54409 11.1165 7.3718 10.9442 7.3718 10.7317V10.686C7.3718 10.4735 7.54409 10.3012 7.75658 10.3012H13.1452C13.3577 10.3012 13.5299 10.4735 13.5299 10.686V10.7317ZM13.5299 8.68252C13.5299 8.89518 13.3577 9.0673 13.1452 9.0673H7.75658C7.54409 9.0673 7.3718 8.89501 7.3718 8.68252V8.63675C7.3718 8.42426 7.54409 8.25197 7.75658 8.25197H13.1452C13.3577 8.25197 13.5299 8.42426 13.5299 8.63675V8.68252ZM13.5299 6.63346C13.5299 6.84595 13.3577 7.01824 13.1452 7.01824H7.75658C7.54409 7.01824 7.3718 6.84595 7.3718 6.63346V6.58769C7.3718 6.3752 7.54409 6.20291 7.75658 6.20291H13.1452C13.3577 6.20291 13.5299 6.3752 13.5299 6.58769V6.63346ZM8.23054 2.208C8.51043 2.208 8.73727 1.98115 8.73727 1.70127V0.506732C8.73727 0.226847 8.51043 0 8.23054 0H3.83785C3.55796 0 3.33111 0.226847 3.33111 0.506732V1.70127C3.33111 1.98115 3.55796 2.208 3.83785 2.208H8.23054ZM10.6399 1.91967V2.66541H11.6533V1.07512C11.6533 0.795232 11.4265 0.568385 11.1466 0.568385H9.06175V1.58185H10.3021C10.4885 1.58185 10.6399 1.73302 10.6399 1.91967ZM0.415039 3.74729H1.4285V5.90765H0.415039V3.74729ZM0.415039 6.98936H1.4285V9.14973H0.415039V6.98936ZM1.4285 11.5462V10.2314H0.415039V12.3908C0.415039 12.6707 0.641886 12.8975 0.921771 12.8975H2.57423V11.8841H1.76633C1.57985 11.8841 1.4285 11.7329 1.4285 11.5462ZM3.65542 11.8841H5.81782V12.8975H3.65542V11.8841ZM0.415208 1.07512V2.66541H1.42867V1.91967C1.42867 1.73302 1.57985 1.58185 1.76649 1.58185H3.00681V0.568385H0.92194C0.642055 0.568385 0.415208 0.795232 0.415208 1.07512Z" fill="" fill-opacity=""/>
</svg>
