<svg xmlns="http://www.w3.org/2000/svg" xmlns:xlink="http://www.w3.org/1999/xlink" fill="" version="1.1" width="17.660375595092773" height="18" viewBox="0 0 17.660375595092773 18"><defs><clipPath id="master_svg0_1108_08424"><rect x="0" y="0" width="17.660375595092773" height="18" rx="0"/></clipPath></defs><g clip-path="url(#master_svg0_1108_08424)"><g><path d="M5.7926867578125,9.874780224609376C5.6360467578125,9.874240224609375,5.4859567578125,9.811160224609376,5.3751067578125,9.699280224609375L0.2466147578125,4.526080224609375C0.0260343578125,4.298610224609375,0.0260343578125,3.934560224609375,0.2466147578125,3.707090224609375L3.4768567578125,0.39508622460937504C3.7026367578125,0.166279924609375,4.0693167578125,0.166279924609375,4.2950967578125,0.39508622460937504L9.3968867578125,5.499880224609375C9.6240667578125,5.729280224609375,9.6242667578125,6.101400224609375,9.3973367578125,6.331040224609375C9.1703967578125,6.560680224609375,8.8022667578125,6.560880224609375,8.5750767578125,6.331480224609375L3.9451867578125,1.651480224609375L1.4726467578125,4.1192802246093745L6.1737667578125,8.871280224609375C6.3996367578125,9.099710224609375,6.3996367578125,9.469950224609375,6.1737667578125,9.698380224609375C6.0734167578125,9.803830224609374,5.9372267578125,9.866870224609375,5.7926867578125,9.874780224609376Z" fill="" fill-opacity="1"/></g><g><path d="M13.815835078125,18.000033398437502C13.661675078125,17.9993333984375,13.513215078125,17.941013398437498,13.399145078124999,17.836203398437497L7.910936078125,12.2769033984375C7.684964978125,12.048163398437499,7.684964978125,11.6776433984375,7.910936078125,11.4489033984375C8.136663078125,11.2267733984375,8.496330078125,11.2267733984375,8.722057078125,11.4489033984375L13.815835078125,16.5986933984375L16.270565078125,14.1048033984375L11.177685078125,8.9532003984375C10.954385078125,8.7266793984375,10.954705078125,8.3601643984375,11.178415078125,8.1340383984375C11.402115078125,7.9079174984375,11.764705078125,7.9075878984375,11.988805078125,8.1333023984375L17.500165078125,13.6926033984375C17.604645078125,13.8027133984375,17.662745078125,13.949533398437499,17.662205078124998,14.1021033984375C17.663415078125,14.258273398437499,17.605435078124998,14.408993398437499,17.500165078125,14.5233033984375L14.222735078125,17.836203398437497C14.111625078125,17.938363398437502,13.967775078125001,17.9965333984375,13.817615078125,18.000033398437502L13.815835078125,18.000033398437502Z" fill="" fill-opacity="1"/></g><g><path d="M2.6781795625,6.1326153125000005C2.5432285625,6.1165653125,2.4176675625,6.0546853125,2.3220345625,5.9571153125C2.1022906625,5.7289453125000005,2.1022906625,5.3653853125,2.3220345625,5.1372203125L3.1447295625000002,4.3065223125C3.3710465625,4.0800775125,3.7360065625,4.0816211125,3.9604465625,4.3099723125C4.1848765624999995,4.5383223125,4.1840165625,4.9072433125,3.9585265625,5.1345233125L3.1482945625,5.9544253125C3.0263475625,6.0826753125,2.8534925625,6.1481953125,2.6781795625,6.1326153125000005Z" fill="" fill-opacity="1"/></g><g><path d="M4.3680586640625,7.852488603515625C4.1352786640625,7.847868603515625,3.9273766640625,7.704158603515625,3.8386825640625,7.4865586035156255C3.7499830640625,7.268978603515625,3.7973869640625,7.018928603515625,3.9593796640625,6.849889603515625L4.7696086640625,6.030891603515625C4.9964356640625,5.800579803515625,5.3651156640625,5.800058003515625,5.5925756640625,6.029732603515625C5.8200356640625,6.2594016035156255,5.8199156640625,6.632068603515625,5.5923056640625,6.861588603515625L4.7811836640625,7.680588603515625C4.6713506640624995,7.790798603515625,4.5228236640625,7.852598603515625,4.3680586640625,7.852488603515625Z" fill="" fill-opacity="1"/></g><g><path d="M10.423542921875,13.879799736328124C10.270174921875,13.876709736328126,10.124365921875,13.811919736328125,10.018428921875,13.699799736328124C9.796913421875,13.468169736328125,9.796913421875,13.100729736328125,10.018428921875,12.869097736328126L10.828657921875,12.050100136328124C11.057384921875,11.938297736328124,11.331494921875,11.990356446328125,11.504474921875,12.178442736328124C11.677464921875,12.366528736328124,11.708874921875,12.646657736328125,11.581904921875001,12.869097736328126L10.770787921875,13.688099736328125C10.679859921875,13.789099736328126,10.557184921875,13.855239736328125,10.423542921875,13.875299736328126L10.423542921875,13.879799736328124Z" fill="" fill-opacity="1"/></g><g><path d="M12.1721632734375,15.752701982421875C11.9363992734375,15.752661982421875,11.7237042734375,15.609561982421875,11.6326679734375,15.389721982421875C11.5416316734375,15.169891982421875,11.5900463634375,14.916301982421874,11.7554732734375,14.746501982421876L12.5772782734375,13.926602982421874C12.8035902734375,13.700164182421876,13.1685602734375,13.701707782421876,13.3929902734375,13.930058982421874C13.6174202734375,14.158408982421875,13.6165602734375,14.527324982421876,13.3910702734375,14.754603982421875L12.5808432734375,15.573601982421875C12.4746012734375,15.687311982421875,12.3268952734375,15.752051982421875,12.1721632734375,15.752701982421875Z" fill="" fill-opacity="1"/></g><g><path d="M15.205669921875,4.6808962109375L12.750929921875,2.2346922109375C12.531719921875,2.0120270109375,12.177429921875,2.0048666109375,11.949599921875,2.2184932109375C11.942439921875,2.2237582109375,11.935879921875,2.2297952109375,11.930019921875,2.2364942109375L9.040779921875,5.1506962109375L8.220749921875,5.9804962109375L5.769579921875,8.4617962109375L4.958459921875,9.2807862109375L3.060205921875,11.1995862109375C2.845489421875,11.4297962109375,2.845489421875,11.7892762109375,3.060205921875,12.0194862109375L3.622916921875,12.5882662109375L4.970929921874999,13.9508662109375L5.5149399218749995,14.4998662109375C5.624619921875,14.6135662109375,5.7745799218750005,14.6782662109375,5.931629921875,14.6798662109375C6.003529921875,14.6788662109375,6.074569921875,14.6639662109375,6.140859921875,14.6357662109375C6.191769921875,14.6158662109375,6.239249921875,14.5878662109375,6.281539921875,14.5529662109375L6.294899921875,14.5430662109375L6.3367499218750005,14.5034662109375L6.398179921875,14.4413662109375L8.218979921875,12.5927662109375L9.035439921875,11.7656962109375L11.490179921875,9.2744962109375L12.299519921875,8.4527962109375L15.102369921875,5.6087962109375L15.204769921875,5.5043962109375L15.229669921875,5.4800962109375C15.442969921875,5.253306210937501,15.432169921875,4.8941562109375,15.205669921875,4.6808962109375ZM5.9458699218749995,13.2425662109375L4.311169921875,11.5847962109375L12.345809921875,3.5090962109375L14.037469921875,5.1236962109375L5.9458699218749995,13.2425662109375Z" fill="#1776FF" fill-opacity="1"/></g><g><path d="M5.9502738671875,13.24260888671875L5.9324638671875,13.25970888671875L4.2879638671875,11.61000838671875L4.3111131671875,11.58660888671875L5.9502738671875,13.24260888671875Z" fill="" fill-opacity="1"/></g><g><path d="M17.24283640625,2.6568033984375L14.78899640625,0.1755053984375C14.68066640625,0.0593606984375,14.52933640625,-0.0058734115625,14.371416406249999,-0.0044946288625C14.21721640625,-0.0053488155624999995,14.06992640625,0.060093998437500004,13.96629640625,0.1755053984375L11.96386840625,2.1996033984375L11.94962540625,2.2158033984375C11.74351100625,2.4452133984375,11.75014640625,2.7972933984375,11.96475940625,3.0186033984375L14.41949640625,5.4990033984375C14.529166406249999,5.6126533984375,14.679126406249999,5.6774233984375,14.83618640625,5.6790033984375C14.92960640625,5.6775133984375,15.02126640625,5.6531133984375,15.10329640625,5.6079033984375C15.15412640625,5.5805833984375,15.20039640625,5.5453533984375,15.240406406249999,5.5035033984375L17.24283640625,3.4848033984375C17.46355640625,3.2538933984375,17.46355640625,2.8877233984375,17.24283640625,2.6568033984375ZM14.83885640625,4.2597033984375L13.19435640625,2.6100033984375L14.371416406249999,1.4148033984375L15.99276640625,3.0888033984375L14.83885640625,4.2597033984375Z" fill="#1776FF" fill-opacity="1"/></g><g><path d="M6.35994171875,13.65478654296875L3.90520171875,11.17348854296875C3.77893171875,11.03484614296875,3.59030171875,10.97276244296875,3.40748171875,11.00968754296875C3.22719171875,11.03375854296875,3.06858171875,11.14208954296875,2.97922171875,11.30218754296875L0.07307111875,16.86148654296875C-0.05548388125,17.08803654296875,-0.01228628125,17.37429654296875,0.17724271875,17.55178654296875C0.29051571875,17.64650654296875,0.43579271875,17.69297654296875,0.58235671875,17.68138654296875C0.68632171875,17.66946654296875,0.78372671875,17.62402654296875,0.86014971875,17.55178654296875L6.14090171875,14.629486542968749L6.22994171875,14.57908654296875C6.24679171875,14.56912654296875,6.26313171875,14.55831654296875,6.27890171875,14.54668654296875L6.29226171875,14.53678654296875C6.33094171875,14.50759654296875,6.36566171875,14.47340654296875,6.39554171875,14.435086542968751C6.46160171875,14.35169654296875,6.50434171875,14.25193654296875,6.51930171875,14.14618654296875C6.54402171875,13.966296542968749,6.48521171875,13.78495654296875,6.35994171875,13.65478654296875ZM2.01763171875,15.60958654296875L3.62028171875,12.58558654296875L4.96830171875,13.94818654296875L2.01763171875,15.60958654296875Z" fill="#1776FF" fill-opacity="1"/></g><g><path d="M4.994049296875,13.938308740234374L4.971789296875,13.950908740234375L3.623779296875,12.588308440234375L3.639805896875,12.557708740234375L4.994049296875,13.938308740234374Z" fill="" fill-opacity="1"/></g></g></svg>