<svg width="14" height="14" viewBox="0 0 14 14" fill="" xmlns="http://www.w3.org/2000/svg">
<path d="M7.75093 8.94668C9.27671 7.66426 10.7095 6.45977 12.1765 5.22656C10.7191 4.00156 9.28491 2.79844 7.78101 1.53516V3.24551C6.96206 3.34805 6.18823 3.39316 5.43901 3.54902C3.88179 3.87168 2.64038 4.62773 2.09897 6.23555C1.31694 8.55566 2.2439 11.1273 4.32749 12.407C4.3562 12.4248 4.39175 12.4344 4.46558 12.4645C4.18667 12.124 3.91733 11.8342 3.69038 11.5129C3.24194 10.8813 2.98081 10.1785 2.95073 9.39648C2.92339 8.69102 3.23647 8.17832 3.8271 7.82012C4.51753 7.40039 5.29136 7.25137 6.07612 7.18574C6.62026 7.14063 7.16987 7.17754 7.75093 7.17754V8.94668V8.94668Z" fill="" fill-opacity=""/>
</svg>
