<svg width="15" height="14" viewBox="0 0 15 14" fill="" xmlns="http://www.w3.org/2000/svg">
<path d="M5.17578 0.583333H4.00911C3.93176 0.583333 3.85757 0.614062 3.80288 0.668761C3.74818 0.723459 3.71745 0.797645 3.71745 0.875C3.71745 0.952355 3.74818 1.02654 3.80288 1.08124C3.85757 1.13594 3.93176 1.16667 4.00911 1.16667H5.17578C5.25314 1.16667 5.32732 1.13594 5.38202 1.08124C5.43672 1.02654 5.46745 0.952355 5.46745 0.875C5.46745 0.797645 5.43672 0.723459 5.38202 0.668761C5.32732 0.614062 5.25314 0.583333 5.17578 0.583333ZM8.67578 0.583333H7.50911C7.43176 0.583333 7.35757 0.614062 7.30288 0.668761C7.24818 0.723459 7.21745 0.797645 7.21745 0.875C7.21745 0.952355 7.24818 1.02654 7.30288 1.08124C7.35757 1.13594 7.43176 1.16667 7.50911 1.16667H8.67578C8.75314 1.16667 8.82732 1.13594 8.88202 1.08124C8.93672 1.02654 8.96745 0.952355 8.96745 0.875C8.96745 0.797645 8.93672 0.723459 8.88202 0.668761C8.82732 0.614062 8.75314 0.583333 8.67578 0.583333ZM5.17578 9.625H4.00911C3.93176 9.625 3.85757 9.65573 3.80288 9.71043C3.74818 9.76513 3.71745 9.83931 3.71745 9.91667C3.71745 9.99402 3.74818 10.0682 3.80288 10.1229C3.85757 10.1776 3.93176 10.2083 4.00911 10.2083H5.17578C5.25314 10.2083 5.32732 10.1776 5.38202 10.1229C5.43672 10.0682 5.46745 9.99402 5.46745 9.91667C5.46745 9.83931 5.43672 9.76513 5.38202 9.71043C5.32732 9.65573 5.25314 9.625 5.17578 9.625ZM8.67578 9.625H7.50911C7.43176 9.625 7.35757 9.65573 7.30288 9.71043C7.24818 9.76513 7.21745 9.83931 7.21745 9.91667C7.21745 9.99402 7.24818 10.0682 7.30288 10.1229C7.35757 10.1776 7.43176 10.2083 7.50911 10.2083H8.67578C8.75314 10.2083 8.82732 10.1776 8.88202 10.1229C8.93672 10.0682 8.96745 9.99402 8.96745 9.91667C8.96745 9.83931 8.93672 9.76513 8.88202 9.71043C8.82732 9.65573 8.75314 9.625 8.67578 9.625ZM1.38411 7.875C1.38411 7.95235 1.41484 8.02654 1.46954 8.08124C1.52424 8.13594 1.59843 8.16667 1.67578 8.16667C1.75314 8.16667 1.82732 8.13594 1.88202 8.08124C1.93672 8.02654 1.96745 7.95235 1.96745 7.875V6.70833C1.96745 6.63098 1.93672 6.55679 1.88202 6.50209C1.82732 6.4474 1.75314 6.41667 1.67578 6.41667C1.59843 6.41667 1.52424 6.4474 1.46954 6.50209C1.41484 6.55679 1.38411 6.63098 1.38411 6.70833V7.875ZM1.67578 4.66667C1.75314 4.66667 1.82732 4.63594 1.88202 4.58124C1.93672 4.52654 1.96745 4.45235 1.96745 4.375V3.20833C1.96745 3.13098 1.93672 3.05679 1.88202 3.00209C1.82732 2.9474 1.75314 2.91667 1.67578 2.91667C1.59843 2.91667 1.52424 2.9474 1.46954 3.00209C1.41484 3.05679 1.38411 3.13098 1.38411 3.20833V4.375C1.38411 4.45235 1.41484 4.52654 1.46954 4.58124C1.52424 4.63594 1.59843 4.66667 1.67578 4.66667ZM11.0091 6.41667C10.9708 6.41667 10.9329 6.42421 10.8975 6.43887C10.8621 6.45353 10.83 6.47501 10.8029 6.50209C10.7758 6.52918 10.7543 6.56133 10.7396 6.59672C10.725 6.6321 10.7174 6.67003 10.7174 6.70833V7.875C10.7174 7.95235 10.7482 8.02654 10.8029 8.08124C10.8576 8.13594 10.9318 8.16667 11.0091 8.16667C11.0865 8.16667 11.1607 8.13594 11.2154 8.08124C11.2701 8.02654 11.3008 7.95235 11.3008 7.875V6.70833C11.3008 6.67003 11.2932 6.6321 11.2786 6.59672C11.2639 6.56133 11.2424 6.52918 11.2154 6.50209C11.1883 6.47501 11.1561 6.45353 11.1207 6.43887C11.0853 6.42421 11.0474 6.41667 11.0091 6.41667ZM11.3008 3.20833C11.3008 3.13098 11.2701 3.05679 11.2154 3.00209C11.1607 2.9474 11.0865 2.91667 11.0091 2.91667C10.9318 2.91667 10.8576 2.9474 10.8029 3.00209C10.7482 3.05679 10.7174 3.13098 10.7174 3.20833V4.375C10.7174 4.45235 10.7482 4.52654 10.8029 4.58124C10.8576 4.63594 10.9318 4.66667 11.0091 4.66667C11.0865 4.66667 11.1607 4.63594 11.2154 4.58124C11.2701 4.52654 11.3008 4.45235 11.3008 4.375V3.20833ZM10.4258 1.75H11.5924C11.6308 1.75 11.6687 1.74246 11.7041 1.7278C11.7395 1.71314 11.7716 1.69166 11.7987 1.66457C11.8258 1.63749 11.8473 1.60534 11.8619 1.56995C11.8766 1.53456 11.8841 1.49664 11.8841 1.45833V0.291667C11.8841 0.253364 11.8766 0.215437 11.8619 0.180051C11.8473 0.144664 11.8258 0.112511 11.7987 0.0854272C11.7716 0.0583434 11.7395 0.0368594 11.7041 0.0222018C11.6687 0.00754418 11.6308 -1.79542e-09 11.5924 0L10.4258 0C10.3875 0 10.3496 0.00754418 10.3142 0.0222018C10.2788 0.0368594 10.2466 0.0583434 10.2195 0.0854272C10.1925 0.112511 10.171 0.144664 10.1563 0.180051C10.1417 0.215437 10.1341 0.253364 10.1341 0.291667V1.45833C10.1341 1.49664 10.1417 1.53456 10.1563 1.56995C10.171 1.60534 10.1925 1.63749 10.2195 1.66457C10.2466 1.69166 10.2788 1.71314 10.3142 1.7278C10.3496 1.74246 10.3875 1.75 10.4258 1.75ZM2.25911 0H1.09245C1.01509 0 0.940907 0.0307291 0.886208 0.0854272C0.83151 0.140125 0.800781 0.214312 0.800781 0.291667L0.800781 1.45833C0.800781 1.53569 0.83151 1.60987 0.886208 1.66457C0.940907 1.71927 1.01509 1.75 1.09245 1.75H2.25911C2.33647 1.75 2.41066 1.71927 2.46535 1.66457C2.52005 1.60987 2.55078 1.53569 2.55078 1.45833V0.291667C2.55078 0.214312 2.52005 0.140125 2.46535 0.0854272C2.41066 0.0307291 2.33647 0 2.25911 0V0ZM2.25911 9.04167H1.09245C1.05415 9.04167 1.01622 9.04921 0.980832 9.06387C0.945445 9.07853 0.913292 9.10001 0.886208 9.12709C0.859125 9.15418 0.837641 9.18633 0.822983 9.22172C0.808325 9.2571 0.800781 9.29503 0.800781 9.33333V10.5C0.800781 10.5383 0.808325 10.5762 0.822983 10.6116C0.837641 10.647 0.859125 10.6792 0.886208 10.7062C0.913292 10.7333 0.945445 10.7548 0.980832 10.7695C1.01622 10.7841 1.05415 10.7917 1.09245 10.7917H2.25911C2.29742 10.7917 2.33534 10.7841 2.37073 10.7695C2.40612 10.7548 2.43827 10.7333 2.46535 10.7062C2.49244 10.6792 2.51392 10.647 2.52858 10.6116C2.54324 10.5762 2.55078 10.5383 2.55078 10.5V9.33333C2.55078 9.29503 2.54324 9.2571 2.52858 9.22172C2.51392 9.18633 2.49244 9.15418 2.46535 9.12709C2.43827 9.10001 2.40612 9.07853 2.37073 9.06387C2.33534 9.04921 2.29742 9.04167 2.25911 9.04167ZM14.6509 10.5367L9.40087 7.62008C9.34826 7.59006 9.28758 7.57722 9.22733 7.58338C9.16707 7.58954 9.11024 7.61437 9.0648 7.65442C9.01935 7.69447 8.98756 7.74772 8.97387 7.80672C8.96018 7.86573 8.96528 7.92753 8.98845 7.9835L11.3218 13.8168C11.3432 13.8704 11.38 13.9164 11.4275 13.949C11.4751 13.9816 11.5313 13.9994 11.5889 14H11.5924C11.6496 14.0001 11.7054 13.9833 11.7531 13.9519C11.8009 13.9205 11.8383 13.8758 11.8608 13.8232L12.6897 11.8889L14.624 11.06C14.6741 11.0384 14.717 11.0032 14.7481 10.9584C14.7792 10.9137 14.7971 10.8611 14.7999 10.8067C14.8027 10.7523 14.7902 10.6982 14.7639 10.6505C14.7376 10.6028 14.6984 10.5634 14.6509 10.5367Z" fill="" fill-opacity=""/>
</svg>
