<svg width="14" height="14" viewBox="0 0 14 14" fill="" xmlns="http://www.w3.org/2000/svg">
<g clip-path="url(#clip0_1801_35385)">
<path d="M7.00001 8.78076V9.53131C6.99903 9.56401 6.98561 9.5951 6.96248 9.61823C6.93935 9.64136 6.90828 9.65478 6.87559 9.65576H4.00169C3.96832 9.65577 3.93624 9.64279 3.91228 9.61956C3.88832 9.59633 3.87436 9.56467 3.87335 9.53131V8.78076C3.87334 8.76408 3.87668 8.74758 3.88318 8.73222C3.88967 8.71686 3.89919 8.70298 3.91116 8.69137C3.92313 8.67976 3.93732 8.67069 3.95287 8.66467C3.96842 8.65865 3.98503 8.65579 4.00169 8.65631H6.87559C6.90859 8.65631 6.94024 8.66943 6.96358 8.69277C6.98691 8.71611 7.00001 8.74775 7.00001 8.78076Z" fill=""/>
<path d="M4.00169 6.5293H9.99835C10.0317 6.52928 10.0638 6.54226 10.0877 6.56549C10.1117 6.58873 10.1257 6.62039 10.1267 6.65374V7.4043C10.1267 7.42097 10.1234 7.43748 10.1169 7.45284C10.1104 7.46819 10.1009 7.48208 10.0889 7.49369C10.0769 7.50529 10.0627 7.51439 10.0472 7.52041C10.0316 7.52643 10.015 7.52927 9.99835 7.52874H4.00169C3.98503 7.52927 3.96842 7.52643 3.95287 7.52041C3.93732 7.51439 3.92313 7.50529 3.91116 7.49369C3.89919 7.48208 3.88967 7.46819 3.88318 7.45284C3.87668 7.43748 3.87334 7.42097 3.87335 7.4043V6.65374C3.87436 6.62039 3.88832 6.58873 3.91228 6.56549C3.93624 6.54226 3.96832 6.52928 4.00169 6.5293Z" fill=""/>
<path d="M12.3511 3.50779L8.97944 0.147804C8.93356 0.100461 8.87852 0.0629314 8.81768 0.0375266C8.75684 0.0121218 8.69149 -0.0006295 8.62556 2.38978e-05H1.99888C1.86686 2.38978e-05 1.74025 0.0524583 1.6469 0.14581C1.55355 0.239161 1.50111 0.36577 1.50111 0.497789V13.4983C1.5006 13.564 1.51309 13.6292 1.53788 13.69C1.56267 13.7509 1.59925 13.8062 1.64552 13.8528C1.6918 13.8995 1.74685 13.9365 1.8075 13.9618C1.86814 13.987 1.93318 14 1.99888 14H12.0011C12.0668 14 12.1318 13.987 12.1925 13.9618C12.2531 13.9365 12.3082 13.8995 12.3545 13.8528C12.4007 13.8062 12.4373 13.7509 12.4621 13.69C12.4869 13.6292 12.4994 13.564 12.4989 13.4983V3.86169C12.4995 3.79576 12.4868 3.73038 12.4614 3.66955C12.436 3.60871 12.3984 3.55367 12.3511 3.50779ZM8.40778 1.15112L11.3478 4.09501H8.40778V1.15112ZM11.375 12.8761H2.62498V1.12389H7.34221V4.49947C7.34423 4.67315 7.41412 4.83912 7.53694 4.96194C7.65976 5.08476 7.82575 5.15465 7.99943 5.15667H11.375V12.8761Z" fill=""/>
<path d="M7.00001 8.78076V9.53131C6.99903 9.56401 6.98561 9.5951 6.96248 9.61823C6.93935 9.64136 6.90828 9.65478 6.87559 9.65576H4.00169C3.96832 9.65577 3.93624 9.64279 3.91228 9.61956C3.88832 9.59633 3.87436 9.56467 3.87335 9.53131V8.78076C3.87334 8.76408 3.87668 8.74758 3.88318 8.73222C3.88967 8.71686 3.89919 8.70298 3.91116 8.69137C3.92313 8.67976 3.93732 8.67069 3.95287 8.66467C3.96842 8.65865 3.98503 8.65579 4.00169 8.65631H6.87559C6.90859 8.65631 6.94024 8.66943 6.96358 8.69277C6.98691 8.71611 7.00001 8.74775 7.00001 8.78076Z" fill=""/>
<path d="M10.1461 6.65328V7.40383C10.1461 7.4205 10.1428 7.43701 10.1363 7.45237C10.1298 7.46773 10.1203 7.48161 10.1083 7.49322C10.0963 7.50483 10.0822 7.51392 10.0666 7.51994C10.0511 7.52596 10.0345 7.5288 10.0178 7.52828H4.00169C3.98503 7.5288 3.96842 7.52596 3.95287 7.51994C3.93732 7.51392 3.92313 7.50483 3.91116 7.49322C3.89919 7.48161 3.88967 7.46773 3.88318 7.45237C3.87668 7.43701 3.87334 7.4205 3.87335 7.40383V6.65328C3.87436 6.61992 3.88832 6.58826 3.91228 6.56502C3.93624 6.54179 3.96832 6.52881 4.00169 6.52883H9.99835C10.0164 6.52605 10.0349 6.52718 10.0525 6.53213C10.0701 6.53707 10.0865 6.54572 10.1005 6.5575C10.1145 6.56929 10.1258 6.58395 10.1337 6.60046C10.1415 6.61698 10.1458 6.63498 10.1461 6.65328Z" fill=""/>
<path d="M7.00001 8.78076V9.53131C6.99903 9.56401 6.98561 9.5951 6.96248 9.61823C6.93935 9.64136 6.90828 9.65478 6.87559 9.65576H4.00169C3.96832 9.65577 3.93624 9.64279 3.91228 9.61956C3.88832 9.59633 3.87436 9.56467 3.87335 9.53131V8.78076C3.87334 8.76408 3.87668 8.74758 3.88318 8.73222C3.88967 8.71686 3.89919 8.70298 3.91116 8.69137C3.92313 8.67976 3.93732 8.67069 3.95287 8.66467C3.96842 8.65865 3.98503 8.65579 4.00169 8.65631H6.87559C6.90859 8.65631 6.94024 8.66943 6.96358 8.69277C6.98691 8.71611 7.00001 8.74775 7.00001 8.78076Z" fill="#1776ff"/>
<path d="M10.1461 6.65328V7.40383C10.1461 7.4205 10.1428 7.43701 10.1363 7.45237C10.1298 7.46773 10.1203 7.48161 10.1083 7.49322C10.0963 7.50483 10.0822 7.51392 10.0666 7.51994C10.0511 7.52596 10.0345 7.5288 10.0178 7.52828H4.00169C3.98503 7.5288 3.96842 7.52596 3.95287 7.51994C3.93732 7.51392 3.92313 7.50483 3.91116 7.49322C3.89919 7.48161 3.88967 7.46773 3.88318 7.45237C3.87668 7.43701 3.87334 7.4205 3.87335 7.40383V6.65328C3.87436 6.61992 3.88832 6.58826 3.91228 6.56502C3.93624 6.54179 3.96832 6.52881 4.00169 6.52883H9.99835C10.0164 6.52605 10.0349 6.52718 10.0525 6.53213C10.0701 6.53707 10.0865 6.54572 10.1005 6.5575C10.1145 6.56929 10.1258 6.58395 10.1337 6.60046C10.1415 6.61698 10.1458 6.63498 10.1461 6.65328Z" fill="#1776ff"/>
</g>
<defs>
<clipPath id="clip0_1801_35385">
<rect width="14" height="14" fill=""/>
</clipPath>
</defs>
</svg>
