<svg width="15" height="14" viewBox="0 0 15 14" fill="" xmlns="http://www.w3.org/2000/svg">
<g clip-path="url(#clip0_1006_35281)">
<path d="M11.3008 7.59375H4.30078C4.16328 7.59375 4.05078 7.70625 4.05078 7.84375V10.5938C4.05078 10.7312 4.16328 10.8438 4.30078 10.8438H11.3008C11.4383 10.8438 11.5508 10.7312 11.5508 10.5938V7.84375C11.5508 7.70625 11.4383 7.59375 11.3008 7.59375ZM10.4258 9.71875H5.17578V8.71875H10.4258V9.71875ZM13.6758 11.75C13.0539 11.75 12.5508 12.2531 12.5508 12.875C12.5508 13.4969 13.0539 14 13.6758 14C14.2977 14 14.8008 13.4969 14.8008 12.875C14.8008 12.2531 14.2977 11.75 13.6758 11.75ZM13.6758 13.25C13.468 13.25 13.3008 13.0828 13.3008 12.875C13.3008 12.6672 13.468 12.5 13.6758 12.5C13.8836 12.5 14.0508 12.6672 14.0508 12.875C14.0508 13.0828 13.8836 13.25 13.6758 13.25ZM11.3008 3.15625H4.30078C4.16328 3.15625 4.05078 3.26875 4.05078 3.40625V6.15625C4.05078 6.29375 4.16328 6.40625 4.30078 6.40625H11.3008C11.4383 6.40625 11.5508 6.29375 11.5508 6.15625V3.40625C11.5508 3.26875 11.4383 3.15625 11.3008 3.15625ZM10.4258 5.28125H5.17578V4.28125H10.4258V5.28125ZM13.6758 2.25C14.2977 2.25 14.8008 1.74688 14.8008 1.125C14.8008 0.503125 14.2977 0 13.6758 0C13.0539 0 12.5508 0.503125 12.5508 1.125C12.5508 1.74688 13.0539 2.25 13.6758 2.25ZM13.6758 0.75C13.8836 0.75 14.0508 0.917188 14.0508 1.125C14.0508 1.33281 13.8836 1.5 13.6758 1.5C13.468 1.5 13.3008 1.33281 13.3008 1.125C13.3008 0.917188 13.468 0.75 13.6758 0.75ZM1.92578 0C1.30391 0 0.800781 0.503125 0.800781 1.125C0.800781 1.74688 1.30391 2.25 1.92578 2.25C2.54766 2.25 3.05078 1.74688 3.05078 1.125C3.05078 0.503125 2.54766 0 1.92578 0ZM1.92578 1.5C1.71797 1.5 1.55078 1.33281 1.55078 1.125C1.55078 0.917188 1.71797 0.75 1.92578 0.75C2.13359 0.75 2.30078 0.917188 2.30078 1.125C2.30078 1.33281 2.13359 1.5 1.92578 1.5ZM1.92578 11.75C1.30391 11.75 0.800781 12.2531 0.800781 12.875C0.800781 13.4969 1.30391 14 1.92578 14C2.54766 14 3.05078 13.4969 3.05078 12.875C3.05078 12.2531 2.54766 11.75 1.92578 11.75ZM1.92578 13.25C1.71797 13.25 1.55078 13.0828 1.55078 12.875C1.55078 12.6672 1.71797 12.5 1.92578 12.5C2.13359 12.5 2.30078 12.6672 2.30078 12.875C2.30078 13.0828 2.13359 13.25 1.92578 13.25Z" fill="" fill-opacity=""/>
</g>
<defs>
<clipPath id="clip0_1006_35281">
<rect width="14" height="14" fill="white" transform="translate(0.800781)"/>
</clipPath>
</defs>
</svg>
