<svg width="16" height="16" viewBox="0 0 16 16" fill="none" xmlns="http://www.w3.org/2000/svg">
<path d="M8 0C6.41775 0 4.87103 0.469191 3.55543 1.34824C2.23984 2.22729 1.21446 3.47673 0.608961 4.93854C0.00345945 6.40035 -0.154958 8.00888 0.153724 9.56073C0.462406 11.1126 1.22432 12.538 2.34314 13.6569C3.46196 14.7757 4.88743 15.5376 6.43928 15.8463C7.99113 16.155 9.59965 15.9965 11.0615 15.391C12.5233 14.7855 13.7727 13.7602 14.6518 12.4446C15.5308 11.129 16 9.58225 16 8C15.9979 5.87892 15.1543 3.84532 13.6545 2.34548C12.1547 0.845651 10.1211 0.00211791 8 0ZM8 15.256C6.5649 15.256 5.16203 14.8304 3.96879 14.0331C2.77554 13.2358 1.84552 12.1026 1.29633 10.7768C0.747137 9.4509 0.603449 7.99195 0.883423 6.58442C1.1634 5.1769 1.85447 3.88401 2.86924 2.86924C3.88401 1.85447 5.1769 1.1634 6.58442 0.883423C7.99195 0.603449 9.45089 0.747148 10.7767 1.29634C12.1026 1.84553 13.2358 2.77554 14.0331 3.96879C14.8304 5.16203 15.256 6.5649 15.256 8C15.2539 9.92376 14.4887 11.7681 13.1284 13.1284C11.7681 14.4887 9.92376 15.2539 8 15.256ZM9.3568 10.536C8.9616 10.4384 8.6128 11.8496 8.0048 11.6464C7.96927 11.6387 7.93625 11.6222 7.9088 11.5984C8.27396 9.64408 8.74127 7.71022 9.3088 5.8048H9.21281C8.40481 6.0896 7.19681 5.976 6.41121 6.2848V6.5248C7.57921 6.5024 7.2752 7.2128 7.0384 8.0704C6.65335 9.15806 6.34642 10.2718 6.12 11.4032C6.0795 11.5616 6.07675 11.7273 6.11194 11.8869C6.14713 12.0466 6.2193 12.1957 6.32263 12.3224C6.42597 12.4491 6.5576 12.5498 6.70692 12.6163C6.85625 12.6829 7.0191 12.7135 7.1824 12.7056C7.9824 12.7056 8.6624 11.9152 9.0176 11.4512C9.1088 11.3344 9.7504 10.6336 9.3568 10.536ZM8.90081 2.8144C8.70562 2.8144 8.51481 2.87226 8.3525 2.98066C8.19019 3.08907 8.06367 3.24316 7.9889 3.42345C7.91414 3.60374 7.8945 3.80215 7.93246 3.9936C7.97042 4.18506 8.06428 4.36097 8.20219 4.4991C8.34009 4.63722 8.51583 4.73137 8.70723 4.76964C8.89862 4.80791 9.09706 4.78858 9.27748 4.71411C9.45789 4.63964 9.61218 4.51335 9.72085 4.35122C9.82952 4.18909 9.88768 3.99838 9.888 3.8032C9.88821 3.67342 9.86284 3.54488 9.81332 3.42493C9.7638 3.30497 9.69112 3.19595 9.59943 3.10411C9.50774 3.01227 9.39883 2.93941 9.27896 2.8897C9.15908 2.83999 9.03058 2.8144 8.90081 2.8144Z" fill="#1790FA"/>
</svg>
