<svg width="24" height="24" viewBox="0 0 24 24" fill="none" xmlns="http://www.w3.org/2000/svg">
<path d="M16.75 16H16.375V10.6875C16.375 8.48281 14.7453 6.65938 12.625 6.35625V5.75C12.625 5.40469 12.3453 5.125 12 5.125C11.6547 5.125 11.375 5.40469 11.375 5.75V6.35625C9.25469 6.65938 7.625 8.48281 7.625 10.6875V16H7.25C6.97344 16 6.75 16.2234 6.75 16.5V17C6.75 17.0688 6.80625 17.125 6.875 17.125H10.25C10.25 18.0906 11.0344 18.875 12 18.875C12.9656 18.875 13.75 18.0906 13.75 17.125H17.125C17.1938 17.125 17.25 17.0688 17.25 17V16.5C17.25 16.2234 17.0266 16 16.75 16ZM12 17.875C11.5859 17.875 11.25 17.5391 11.25 17.125H12.75C12.75 17.5391 12.4141 17.875 12 17.875Z" fill="#4E5969"/>
<circle cx="12" cy="12" r="11.5" stroke="#4E5969"/>
</svg>
