<svg width="16" height="16" viewBox="0 0 16 16" fill="" xmlns="http://www.w3.org/2000/svg">
<path d="M8.08191 13.9965C5.27531 13.9965 3 14.154 3 12.3552C3 10.8747 3.89306 9.60374 5.41224 8.76715C6.15964 8.35546 7.15638 9.09336 8.08191 9.09336C9.13717 9.09336 10.2205 8.39563 11.0329 8.88547C12.381 9.69844 13.1638 10.8257 13.1638 12.3552C13.1638 14.154 10.8885 13.9965 8.08191 13.9965ZM8.08191 8.51921C6.28168 8.51921 4.8223 7.05983 4.8223 5.25961C4.8223 3.45938 6.28168 2 8.08191 2C9.88213 2 11.3415 3.45938 11.3415 5.25961C11.3415 7.05983 9.88213 8.51921 8.08191 8.51921Z" fill="" fill-opacity=""/>
</svg>
