<svg xmlns="http://www.w3.org/2000/svg" viewBox="0 0 54.1 57.3"><defs><style>.cls-1{}</style></defs><g id="图层_2" data-name="图层 2"><g id="图层_1-2" data-name="图层 1"><path class="cls-1" d="M19.38,7.16a25.92,25.92,0,0,1,5.33.54c.41.09.8.14,1.15.24l1,.28.86.24.7.24,1.28.45-1.33-.26-.72-.15-.87-.12c-.63-.09-1.35-.2-2.16-.25s-1.5-.11-2.34-.11a31.13,31.13,0,0,0-3.48.2,22.78,22.78,0,0,0-7.1,2l-.46.21-.44.25-.89.52c-.29.18-.56.4-.85.6a7.17,7.17,0,0,0-.84.64l-.8.7c-.27.24-.49.52-.75.78l-.37.4c-.12.13-.21.28-.32.42l-.63.84c-.21.35-.42.7-.62,1.05l-.16.27,0,.06,0,0h0v0a.2.2,0,0,1,0-.06l-.06.13-.24.51c-.17.34-.28.71-.43,1.06s-.25.72-.33,1.1A15.16,15.16,0,0,0,3,24.68a20.83,20.83,0,0,0,3.07,9.5,29.42,29.42,0,0,0,7,7.89c.34.28.69.55,1.06.82s.72.52,1.09.77c.74.51,1.44.94,2.28,1.42a34.35,34.35,0,0,0,4.79,2.27,30.33,30.33,0,0,0,10,2h.61a22.26,22.26,0,0,0,8.73-1.66,16.28,16.28,0,0,0,3.76-2.22,14.92,14.92,0,0,0,2.83-2.91,15.29,15.29,0,0,0,2.68-6.73,19.54,19.54,0,0,0,.14-3.1,20.27,20.27,0,0,0-.29-2.65,25,25,0,0,0-1-3.65l-.47-1.27.16.3c.11.2.29.49.48.89A20.63,20.63,0,0,1,52,32.7a18.3,18.3,0,0,1,.17,3.3,16.81,16.81,0,0,1-.61,3.76,13.58,13.58,0,0,1-.71,2c-.16.33-.28.65-.48,1-.08.15-.16.3-.25.45a4.66,4.66,0,0,1-.27.47,16.56,16.56,0,0,1-3,3.61A17.61,17.61,0,0,1,42.69,50a23.82,23.82,0,0,1-10.4,2.33h-.18a32,32,0,0,1-11-1.95A35.76,35.76,0,0,1,15.79,48c-.79-.44-1.69-1-2.49-1.54-.41-.27-.82-.55-1.21-.84s-.8-.59-1.18-.9a31.77,31.77,0,0,1-7.7-8.88,29.18,29.18,0,0,1-1.32-2.62,24.35,24.35,0,0,1-1-2.75A20.92,20.92,0,0,1,0,24.77a17.24,17.24,0,0,1,.79-5.56c.13-.44.32-.87.47-1.29s.36-.84.58-1.24l.32-.59.08-.15,0-.08h0l0,0,0-.07.17-.25.68-1c.27-.35.57-.7.85-1,.14-.17.28-.35.43-.5L5,12.49c.31-.28.59-.59.92-.85l1-.75a10.89,10.89,0,0,1,1-.67c.35-.2.67-.42,1-.6l1-.5c.17-.08.34-.17.51-.24l.52-.2a22.41,22.41,0,0,1,7.79-1.51h.67"/><path class="cls-1" d="M16.84,29l1.63-12.26H9L6.91,33.93a28.87,28.87,0,0,0,6.67,7.47c.3.25.63.51,1,.79h0l.36.26L28.58,24l-.45,14.32H39.89L54.1,16.74H44.67L36.52,29,38.15,0Z"/><path class="cls-1" d="M11.58,46.31c-.45-.33-.85-.63-1.21-.93A34.5,34.5,0,0,1,6,41.22L4,57.3l7.91-10.73-.36-.26"/></g></g></svg>