<svg xmlns="http://www.w3.org/2000/svg" viewBox="0 0 813.65 204.37"><defs><style>.cls-1{}</style></defs><g id="图层_2" data-name="图层 2"><g id="图层_1-2" data-name="图层 1"><polygon class="cls-1" points="12.36 96.76 35.84 96.76 54.46 49.41 79.44 49.41 86.16 34.94 12.11 33.48 4.64 49.41 29.25 50.02 12.36 96.76"/><path class="cls-1" d="M104.84,94.74l19-47.78s10.61-.57,12.39-.29,9.41-2.23,7.72,6.16-17.32,7.82-17.32,7.82l-5,12.86,7,19.84h26.84a132.2,132.2,0,0,0-4.19-14C147.5,68.32,142.86,71,142.86,71l.28-1.68c38.29-11.73,23.76-31.86,23.76-31.86l-64-2-24,59.24Z"/><polygon class="cls-1" points="186.46 93.63 218.88 50.87 217.76 91.95 243.2 91.95 239.01 39.13 208.26 39.13 161.59 93.63 186.46 93.63"/><polygon class="cls-1" points="289.03 63.72 301.33 90.83 330.68 90.83 350.52 40.52 327.6 40.52 316.42 69.88 303.57 39.13 274.77 40.24 253.54 91.95 277.86 90.83 289.03 63.72"/><path class="cls-1" d="M373.72,68.75c15.09,1.68,20.68,4.19,21.24,5.31s2.51,7.55-11.45,8.81-12.87-8.81-12.87-8.81H347.45c-.57,1.4-7,19.29,28.78,17.89S421,77.13,421.52,70.43s-9-9.5-19.29-11.18-18.17-2.52-18.17-5.87,8.39-4.19,15.09-4.19,4.47,6.71,4.47,6.71l24.32-1.68c1.67-15.37-18.73-14-18.73-14-41.07-1.12-47.23,12.59-48.9,15.1S358.63,67.08,373.72,68.75Z"/><path class="cls-1" d="M458.56,97.88l29.71-40.3L487.19,92h28.23l34.1-51.77H526.87L507.32,69.6,511.23,0,460.08,69.6,464,40.18H441.36l-7.1,57.53C188.74,97,0,127.21,0,127.21c133.14-19.39,291.61-23.1,433.16-20.64l-3.82,30.94,22.55-30.58C652,111.2,813.65,127.21,813.65,127.21,692.66,107.09,570.33,99.16,458.56,97.88Z"/><polygon class="cls-1" points="558.46 92.03 590.31 50.31 590.31 91.95 615.19 91.95 610.72 39.13 579.98 39.13 533.87 91.95 558.46 92.03"/><path class="cls-1" d="M667.46,47s23.75-3.36,21.79,5-17.61,8.11-17.61,8.11l-4.74,13.7C669.13,78,673,95,673,95h27.39c-3.63-24.3-12-24.87-12-24.87,16.77-3.36,27.4-16.21,26.56-24.59s-6.43-9.79-6.43-9.79l-60.92,1.4L625.25,93.63h24.59Z"/><path class="cls-1" d="M735.09,96.15,744,74.62a134.75,134.75,0,0,0,21.74-.5c16.61-2,28.56-13.19,31.08-24.93s-10.07-15.37-12.3-15.37-50,2-50,2L711.05,95Zm19-49.07s17.17-4.81,17.86,5.86-20,8.25-23.39,8.25Z"/><path class="cls-1" d="M274.94,167.66H262.2v36.08h6.63V190.06h6.34c9.14,0,15.83-3.62,15.83-11.51C291,170.41,284.31,167.66,274.94,167.66Zm-.4,17.84h-5.71V172.22h5.48c6.69,0,10.17,1.57,10.17,6.33S281.28,185.5,274.54,185.5Z"/><rect class="cls-1" x="316.3" y="167.66" width="6.63" height="36.07"/><polygon class="cls-1" points="357.72 187.27 373.15 187.27 373.15 182.47 357.72 182.47 357.72 172.42 375.94 172.42 375.94 167.66 351.09 167.66 351.09 203.74 376.57 203.74 376.57 198.93 357.72 198.93 357.72 187.27"/><path class="cls-1" d="M431.47,178.1c0-7.79-6.51-10.44-15.19-10.44H402.51v36.08h6.63V189.18h6.79l9.54,14.56H433l-10.28-15.3C428,187,431.47,183.69,431.47,178.1Zm-16,6.52h-6.34v-12.4h6.34c6.11,0,9.42,1.52,9.42,5.88S421.59,184.62,415.48,184.62Z"/><path class="cls-1" d="M473.69,199.42c-7.42,0-12.11-5.24-12.11-13.82s5-13.67,12.28-13.67a12,12,0,0,1,8.23,3.23l3.6-3.62A17.46,17.46,0,0,0,473.75,167c-10.63,0-19,7.06-19,18.82s8.11,18.57,18.68,18.57a17.85,17.85,0,0,0,13.09-5.19L483,195.6A13.11,13.11,0,0,1,473.69,199.42Z"/><polygon class="cls-1" points="517.74 187.27 533.16 187.27 533.16 182.47 517.74 182.47 517.74 172.42 535.96 172.42 535.96 167.66 511.11 167.66 511.11 203.74 536.59 203.74 536.59 198.93 517.74 198.93 517.74 187.27"/></g></g></svg>