<svg width="16" height="16" viewBox="0 0 16 16" fill="" xmlns="http://www.w3.org/2000/svg">
<path d="M8.07122 10.8772C8.07122 10.9558 8.13193 11.0201 8.20515 11.0201H11.5087C11.5819 11.0201 11.6426 10.9558 11.6426 10.8772V10.0201C11.6426 9.94152 11.5819 9.87723 11.5087 9.87723H8.20515C8.13193 9.87723 8.07122 9.94152 8.07122 10.0201V10.8772ZM4.59086 10.9862L8.01943 8.11116C8.08729 8.05402 8.08729 7.94866 8.01943 7.89152L4.59086 5.0183C4.57017 5.0007 4.54485 4.98941 4.51793 4.98577C4.491 4.98213 4.4636 4.98629 4.43897 4.99776C4.41434 5.00923 4.39352 5.02752 4.37898 5.05047C4.36443 5.07342 4.35678 5.10006 4.35693 5.12723V6.24688C4.35693 6.28973 4.37479 6.32902 4.40872 6.3558L6.36943 8.00223L4.40872 9.64866C4.39276 9.66202 4.37987 9.67867 4.37093 9.69747C4.36199 9.71627 4.35722 9.73678 4.35693 9.75759V10.8772C4.35693 10.9987 4.49801 11.0647 4.59086 10.9862ZM14.5712 0.859375H1.42836C1.11229 0.859375 0.856934 1.11473 0.856934 1.4308V14.5737C0.856934 14.8897 1.11229 15.1451 1.42836 15.1451H14.5712C14.8873 15.1451 15.1426 14.8897 15.1426 14.5737V1.4308C15.1426 1.11473 14.8873 0.859375 14.5712 0.859375ZM13.8569 13.8594H2.14265V2.14509H13.8569V13.8594Z" fill=""/>
</svg>
