<svg width="32" height="32" viewBox="0 0 32 32" fill="none" xmlns="http://www.w3.org/2000/svg">
<path d="M21.5938 9.96875H18.3719C18.1 9.96875 17.8578 10.1547 17.7937 10.4266C17.5984 11.2516 16.8594 11.8438 16 11.8438C15.1406 11.8438 14.4016 11.2516 14.2063 10.4266C14.1758 10.2962 14.102 10.1799 13.9971 10.0968C13.8921 10.0137 13.762 9.96852 13.6281 9.96875H10.4062C10.2239 9.96875 10.049 10.0412 9.92011 10.1701C9.79118 10.299 9.71875 10.4739 9.71875 10.6563V14.5938C9.71875 14.7761 9.79118 14.951 9.92011 15.0799C10.049 15.2088 10.2239 15.2813 10.4062 15.2813H11.5781V21.3438C11.5781 21.5261 11.6506 21.701 11.7795 21.8299C11.9084 21.9588 12.0833 22.0313 12.2656 22.0313H19.7344C19.9167 22.0313 20.0916 21.9588 20.2205 21.8299C20.3494 21.701 20.4219 21.5261 20.4219 21.3438V15.2813H21.5938C21.7761 15.2813 21.951 15.2088 22.0799 15.0799C22.2088 14.951 22.2812 14.7761 22.2812 14.5938V10.6563C22.2812 10.4739 22.2088 10.299 22.0799 10.1701C21.951 10.0412 21.7761 9.96875 21.5938 9.96875Z" fill="white"/>
<circle cx="16" cy="16" r="15.5" stroke="white"/>
</svg>
