<svg width="24" height="24" viewBox="0 0 24 24" fill="none" xmlns="http://www.w3.org/2000/svg">
<path d="M17.5938 5.96875H14.3719C14.1 5.96875 13.8578 6.15469 13.7937 6.42656C13.5984 7.25156 12.8594 7.84375 12 7.84375C11.1406 7.84375 10.4016 7.25156 10.2063 6.42656C10.1758 6.29616 10.102 6.17992 9.99707 6.09679C9.89208 6.01365 9.76204 5.96852 9.62813 5.96875H6.40625C6.22391 5.96875 6.04905 6.04118 5.92011 6.17011C5.79118 6.29905 5.71875 6.47391 5.71875 6.65625V10.5938C5.71875 10.7761 5.79118 10.951 5.92011 11.0799C6.04905 11.2088 6.22391 11.2813 6.40625 11.2813H7.57812V17.3438C7.57812 17.5261 7.65056 17.701 7.77949 17.8299C7.90842 17.9588 8.08329 18.0313 8.26562 18.0313H15.7344C15.9167 18.0313 16.0916 17.9588 16.2205 17.8299C16.3494 17.701 16.4219 17.5261 16.4219 17.3438V11.2813H17.5938C17.7761 11.2813 17.951 11.2088 18.0799 11.0799C18.2088 10.951 18.2812 10.7761 18.2812 10.5938V6.65625C18.2812 6.47391 18.2088 6.29905 18.0799 6.17011C17.951 6.04118 17.7761 5.96875 17.5938 5.96875Z" fill="#4E5969"/>
<circle cx="12" cy="12" r="11.5" stroke="#4E5969"/>
</svg>
