<svg width="14" height="14" viewBox="0 0 14 14" fill="" xmlns="http://www.w3.org/2000/svg">
<path d="M12.5936 0.970643H9.37175C9.09988 0.970643 8.85769 1.15658 8.79363 1.42846C8.59832 2.25346 7.85925 2.84564 6.99988 2.84564C6.1405 2.84564 5.40144 2.25346 5.20613 1.42846C5.17566 1.29805 5.10193 1.18181 4.99694 1.09868C4.89196 1.01554 4.76192 0.970414 4.628 0.970643H1.40613C1.22379 0.970643 1.04892 1.04308 0.919992 1.17201C0.791061 1.30094 0.718628 1.47581 0.718628 1.65814V5.59564C0.718628 5.77798 0.791061 5.95285 0.919992 6.08178C1.04892 6.21071 1.22379 6.28314 1.40613 6.28314H2.578V12.3456C2.578 12.528 2.65044 12.7028 2.77937 12.8318C2.9083 12.9607 3.08317 13.0331 3.2655 13.0331H10.7343C10.9166 13.0331 11.0915 12.9607 11.2204 12.8318C11.3493 12.7028 11.4218 12.528 11.4218 12.3456V6.28314H12.5936C12.776 6.28314 12.9508 6.21071 13.0798 6.08178C13.2087 5.95285 13.2811 5.77798 13.2811 5.59564V1.65814C13.2811 1.47581 13.2087 1.30094 13.0798 1.17201C12.9508 1.04308 12.776 0.970643 12.5936 0.970643V0.970643ZM12.1561 5.15814H10.2968V11.9081H3.703V5.15814H1.84363V2.09564H4.23894C4.67957 3.20814 5.76238 3.97064 6.99988 3.97064C8.23738 3.97064 9.32019 3.20814 9.76082 2.09564H12.1561V5.15814Z" fill="" fill-opacity=""/>
</svg>
