<?xml version="1.0" encoding="UTF-8"?>
<svg width="200px" height="34px" viewBox="0 0 200 34" version="1.1" xmlns="http://www.w3.org/2000/svg" xmlns:xlink="http://www.w3.org/1999/xlink">
    <title>STUDIO-LOGO_STUDIO-2备份 8</title>
    <defs>
        <filter id="filter-1">
            <feColorMatrix in="SourceGraphic" type="matrix" values="0 0 0 0 0.090196 0 0 0 0 0.309804 0 0 0 0 0.600000 0 0 0 1.000000 0"></feColorMatrix>
        </filter>
    </defs>
    <g id="检索" stroke="none" stroke-width="1" fill="none" fill-rule="evenodd">
        <g id="STUDIO-LOGO_STUDIO-2备份-8" transform="translate(-813.000000, -257.000000)" filter="url(#filter-1)">
            <g transform="translate(813.000000, 257.000000)" id="编组" fill="#FFFFFF" fill-rule="nonzero">
                <path d="M86.0833333,18.6046512 L92,18.3887043 C91.7896081,18.7775161 91.7896081,19.2457397 92,19.6345515 C92.6281843,20.2024881 93.4764503,20.4640295 94.3166667,20.3488372 C95.1198619,20.3668617 95.9186499,20.2257031 96.6666667,19.9335548 C97.1394468,19.7978948 97.5512444,19.5047308 97.8333333,19.10299 C98,18.8039867 97.9166667,18.5548173 97.6,18.3056478 C96.7292182,17.9260417 95.7985269,17.7011691 94.85,17.641196 C93.1041291,17.5275831 91.4012147,17.0523511 89.85,16.2458472 C89.4717894,16.0344204 89.2024693,15.6717522 89.1100869,15.2494753 C89.0177046,14.8271984 89.1110968,14.3857052 89.3666667,14.0365449 C89.8189591,13.3424518 90.4375769,12.7715604 91.1666667,12.3754153 C92.2082681,11.7984002 93.3324209,11.3838454 94.5,11.1461794 C96.1784345,10.8099112 97.8882069,10.6539812 99.6,10.6810631 C101.412258,10.5577721 103.229166,10.8416078 104.916667,11.5116279 C105.386057,11.730788 105.74749,12.1286293 105.919842,12.6158556 C106.092193,13.1030819 106.061025,13.6388803 105.833333,14.10299 L100,14.3355482 C100.163463,13.932508 100.025053,13.4703733 99.6666667,13.2225914 C99.1030472,12.9289576 98.4669099,12.8021528 97.8333333,12.8571429 C97.2384666,12.8360557 96.6448997,12.9262035 96.0833333,13.1229236 C95.7263894,13.2290411 95.4153996,13.4512741 95.2,13.7541528 C95.0833333,13.9368771 95.2,14.10299 95.3666667,14.2524917 C95.9398552,14.5058818 96.556643,14.6468769 97.1833333,14.6677741 C98.9270293,14.8595773 100.650366,15.2042114 102.333333,15.6976744 C103.077579,15.873719 103.726936,16.3249771 104.15,16.9601329 C104.368479,17.5060251 104.312764,18.1230232 104,18.6212625 C103.463632,19.4805896 102.710903,20.1850023 101.816667,20.6644518 C100.663226,21.3337629 99.4077921,21.8107018 98.1,22.076412 C96.4567702,22.4236059 94.7795284,22.5852006 93.1,22.5581395 C89.7666667,22.5581395 87.6333333,22.1760797 86.7666667,21.4285714 C85.8931904,20.7695842 85.607278,19.5880324 86.0833333,18.6046512 L86.0833333,18.6046512 Z" id="路径"></path>
                <path d="M192.866667,9.2358804 C189.133333,9.36877076 185.4,9.48504983 181.666667,9.58471761 L175.783333,23.372093 L181.833333,23.538206 L183.933333,18.5548173 L187.266667,18.5548173 C189.353892,18.6432191 191.429569,18.2031744 193.3,17.2757475 C194.788013,16.5157681 195.965914,15.2654714 196.633333,13.7375415 C197.253003,12.6931743 197.173848,11.3783098 196.433333,10.4152824 C195.426642,9.60524018 194.15953,9.18623984 192.866667,9.2358804 Z M190.616667,13.9368771 C190.360935,14.464825 189.923165,14.8834522 189.383333,15.1162791 C188.542805,15.4758111 187.629746,15.6350655 186.716667,15.5813953 L185.233333,15.5813953 L186.666667,12.358804 L188.333333,12.2425249 C189.466667,12.2425249 190.183333,12.4086379 190.45,12.7408638 C190.740672,13.070379 190.806237,13.5408832 190.616667,13.9368771 L190.616667,13.9368771 Z" id="形状"></path>
                <path d="M175.316667,9.75083056 L160.133333,10.1162791 L154.683333,22.9069767 L160.733333,23.0232558 L165.266667,12.3754153 L168.016667,12.2259136 C168.746585,12.1381958 169.485868,12.2774386 170.133333,12.6245847 C170.424977,12.9162186 170.479957,13.3682957 170.266667,13.7209302 C170.098993,14.0707374 169.839928,14.3691062 169.516667,14.5847176 C169.162071,14.8404317 168.750099,15.0058137 168.316667,15.0664452 C167.765678,15.1664959 167.209096,15.2330639 166.65,15.2657807 L166.233333,15.2657807 L164.833333,18.5880399 C165.109779,18.8927749 165.299642,19.2655046 165.383333,19.6677741 L166.4,23.2392027 L173.333333,23.255814 L172.433333,19.7508306 C172.327741,19.418258 172.170256,19.1043348 171.966667,18.820598 C171.798468,18.5285018 171.584681,18.2649593 171.333333,18.0398671 C170.915817,17.786017 170.459968,17.6009177 169.983333,17.4916944 C170.79775,17.3819929 171.597213,17.1813981 172.366667,16.8936877 C173.296914,16.5609897 174.160365,16.0660146 174.916667,15.4318937 C175.643998,14.8684788 176.217193,14.1315142 176.583333,13.2890365 C176.950203,12.5571949 176.980603,11.7027474 176.666667,10.9468439 C176.376925,10.3983154 175.897198,9.97330748 175.316667,9.75083056 L175.316667,9.75083056 Z" id="路径"></path>
                <polygon id="路径" points="143.333333 10.3986711 132.1 22.5747508 138.116667 22.5747508 146.033333 13.0232558 145.8 21.6112957 145.8 22.6910299 152.05 22.7906977 151.166667 10.282392"></polygon>
                <path d="M81.2,10.6478405 L78.3333333,17.4750831 L75,10.6146179 L68.0833333,10.6146179 L62.9333333,22.7076412 L68.6833333,22.7076412 L71.5,16.0631229 L74.6166667,22.7076412 C77.0166667,22.7076412 79.4333333,22.7076412 81.8666667,22.7076412 L86.8666667,10.9136213 L81.2,10.6478405 Z" id="路径"></path>
                <polygon id="路径" points="51.6666667 10.3156146 40 23.0066445 46.2166667 22.8903654 54.3166667 13.089701 54.1 21.6777409 54.1 22.7574751 60.35 22.7574751 59.4833333 10.5315615"></polygon>
                <path d="M41.3833333,10.1328904 C36.0833333,10.0221484 30.8444444,9.90586932 25.6666667,9.78405316 L19.8166667,23.5049834 L26,23.3388704 L30.7333333,12.2259136 L33.4166667,12.2259136 C34.139091,12.1458586 34.8692116,12.2786918 35.5166667,12.6079734 C35.8229187,12.8992013 35.8788444,13.3660225 35.65,13.7209302 C35.4933453,14.0777955 35.231852,14.3789616 34.9,14.5847176 C34.5461457,14.8305239 34.1419969,14.9950503 33.7166667,15.0664452 C33.1654174,15.1647657 32.6089381,15.2313213 32.05,15.2657807 L31.6666667,15.2657807 L30.2833333,18.5880399 C30.5594185,18.8908233 30.7442664,19.2650481 30.8166667,19.6677741 L31.7833333,23.255814 L38.65,23.1063123 L37.8166667,19.8837209 C37.7216188,19.5500968 37.5693735,19.2353779 37.3666667,18.9534884 C37.1911651,18.6281886 36.9533413,18.3403619 36.6666667,18.1063123 C36.2537819,17.8550942 35.8038479,17.670113 35.3333333,17.5581395 C36.1477497,17.4484381 36.9472132,17.2478432 37.7166667,16.9601329 C38.6453038,16.6239739 39.5081726,16.1293321 40.2666667,15.4983389 C40.9843541,14.9253941 41.555529,14.1910264 41.9333333,13.3554817 C42.325316,12.6027318 42.3679286,11.7169062 42.05,10.9302326 C41.8807572,10.6245592 41.6544787,10.353927 41.3833333,10.1328904 L41.3833333,10.1328904 Z" id="路径"></path>
                <path d="M6.28333333,9.20265781 L4.61666667,9.20265781 L2.98333333,12.8903654 L9.2,12.8903654 L4.48333333,23.9700997 L10.65,23.7707641 L15.2833333,12.8903654 L21.5,12.8903654 L22.85,9.70099668 C17.2666667,9.55149502 11.75,9.40199336 6.28333333,9.20265781 Z" id="路径"></path>
                <polygon id="路径" points="135.133333 11.8438538 136.1 10.4983389 130.35 10.4983389 129.5 11.7774086 129.5 11.7774086 125.633333 17.4916944 126.033333 10.5315615 126.033333 10.5315615 126.566667 1.36212625 113.75 17.5083056 114.166667 15.1495017 114.166667 15.1495017 115 10.6810631 109.266667 10.6810631 108.516667 16.4451827 106.366667 33.2225914 120.9 14.833887 120.45 22.5581395 127.483333 22.5581395 134.15 13.1727575 135.066667 11.8770764"></polygon>
                <path d="M100,25.9302326 C133.3905,25.8082677 166.766015,27.3606173 200,30.5813953 C173.016667,26.4451827 138.15,23.9368771 100,23.9368771 C61.85,23.9368771 27.0666667,26.4285714 -2.36847579e-14,30.5813953 C33.233985,27.3606173 66.6095004,25.8082677 100,25.9302326 L100,25.9302326 Z" id="路径"></path>
            </g>
        </g>
    </g>
</svg>