<svg width="20" height="20" viewBox="0 0 20 20" fill="none" xmlns="http://www.w3.org/2000/svg">
<path d="M17.6073 9.04777L17.0787 3.46563C17.0519 3.17634 16.8216 2.94777 16.5323 2.9192L10.9502 2.39062H10.943C10.8859 2.39062 10.8412 2.40848 10.8073 2.44241L2.4448 10.8049C2.42825 10.8214 2.41511 10.8411 2.40615 10.8627C2.39719 10.8843 2.39258 10.9074 2.39258 10.9308C2.39258 10.9542 2.39719 10.9773 2.40615 10.999C2.41511 11.0206 2.42825 11.0402 2.4448 11.0567L8.94123 17.5531C8.97516 17.5871 9.0198 17.6049 9.06802 17.6049C9.11623 17.6049 9.16087 17.5871 9.1948 17.5531L17.5573 9.19063C17.593 9.15313 17.6109 9.10134 17.6073 9.04777ZM9.06623 15.7603L4.23766 10.9317L11.3752 3.7942L15.7859 4.21205L16.2037 8.62277L9.06623 15.7603ZM13.0002 5.42634C12.1341 5.42634 11.4287 6.1317 11.4287 6.99777C11.4287 7.86384 12.1341 8.5692 13.0002 8.5692C13.8662 8.5692 14.5716 7.86384 14.5716 6.99777C14.5716 6.1317 13.8662 5.42634 13.0002 5.42634ZM13.0002 7.5692C12.6841 7.5692 12.4287 7.31384 12.4287 6.99777C12.4287 6.6817 12.6841 6.42634 13.0002 6.42634C13.3162 6.42634 13.5716 6.6817 13.5716 6.99777C13.5716 7.31384 13.3162 7.5692 13.0002 7.5692Z" fill="white"/>
</svg>
