<svg width="36" height="36" viewBox="0 0 36 36" fill="none" xmlns="http://www.w3.org/2000/svg">
<path d="M32.9854 28.7757H4.05678C3.87999 28.7757 3.73535 28.9203 3.73535 29.0971V31.5078C3.73535 31.6846 3.87999 31.8292 4.05678 31.8292H32.9854C33.1621 31.8292 33.3068 31.6846 33.3068 31.5078V29.0971C33.3068 28.9203 33.1621 28.7757 32.9854 28.7757ZM13.4987 10.5225H16.4679V24.115C16.4679 24.2917 16.6126 24.4364 16.7894 24.4364H19.2001C19.3769 24.4364 19.5215 24.2917 19.5215 24.115V10.5225H22.4987C22.7679 10.5225 22.9166 10.2132 22.7519 10.0042L18.2519 4.30692C18.2218 4.2685 18.1834 4.23743 18.1395 4.21607C18.0957 4.1947 18.0475 4.18359 17.9987 4.18359C17.95 4.18359 17.9018 4.1947 17.858 4.21607C17.8141 4.23743 17.7757 4.2685 17.7456 4.30692L13.2456 10.0002C13.0809 10.2132 13.2295 10.5225 13.4987 10.5225Z" fill="black" fill-opacity="0.25"/>
</svg>
