<svg width="46" height="46" viewBox="0 0 46 46" fill="none" xmlns="http://www.w3.org/2000/svg">
<rect x="0.75" y="0.75" width="44.5" height="44.5" rx="22.25" fill="#F5222D"/>
<path d="M25.625 14.8802V31.5052H16C15.475 31.5052 15.125 31.1552 15.125 30.6302V17.3302C15.125 16.8927 15.3875 16.5427 15.825 16.4552L24.575 14.2677C25.0125 14.1802 25.45 14.4427 25.625 14.8802V14.8802ZM26.5 22.7552L30.35 24.2427C30.7 24.4177 30.875 24.6802 30.875 25.0302V30.6302C30.875 31.1552 30.525 31.5052 30 31.5052H26.5V22.7552V22.7552ZM22.125 23.6302H18.625C18.1 23.6302 17.75 23.9802 17.75 24.5052C17.75 24.9427 18.1 25.2927 18.5375 25.3802H22.125C22.65 25.3802 23 25.0302 23 24.5052C23 23.9802 22.65 23.6302 22.125 23.6302V23.6302ZM22.125 19.2552H18.625C18.1 19.2552 17.75 19.6052 17.75 20.1302C17.75 20.5677 18.1 20.9177 18.5375 21.0052H22.125C22.65 21.0052 23 20.6552 23 20.1302C23 19.6052 22.65 19.2552 22.125 19.2552V19.2552Z" fill="white"/>
<rect x="0.75" y="0.75" width="44.5" height="44.5" rx="22.25" stroke="#F5222D" stroke-width="1.5"/>
</svg>
