<svg width="32" height="32" viewBox="0 0 32 32" fill="none" xmlns="http://www.w3.org/2000/svg">
<path d="M26.2121 9.0822L20.5947 3.53418L20.6121 9.0822H26.2121Z" fill="#FFD591"/>
<path d="M19.5193 10.1404V3.01465H5.35449V28.9863H26.645V10.1404H19.5193V10.1404ZM9.67155 12.1689C9.67155 12.0302 9.79291 11.9088 9.93161 11.9088H17.5948C17.7335 11.9088 17.8549 12.0302 17.8549 12.1689V13.2091C17.8549 13.3478 17.7335 13.4692 17.5948 13.4692H9.93161C9.79291 13.4692 9.67155 13.3478 9.67155 13.2091V12.1689ZM22.0679 21.9993C22.0679 22.138 21.9465 22.2593 21.8078 22.2593H9.93161C9.79291 22.2593 9.67155 22.138 9.67155 21.9993V20.959C9.67155 20.8203 9.79291 20.699 9.93161 20.699H21.8078C21.9465 20.699 22.0679 20.8203 22.0679 20.959V21.9993V21.9993ZM22.0679 17.5782C22.0679 17.7169 21.9465 17.8383 21.8078 17.8383H9.93161C9.79291 17.8383 9.67155 17.7169 9.67155 17.5782V16.5379C9.67155 16.3992 9.79291 16.2779 9.93161 16.2779H21.8078C21.9465 16.2779 22.0679 16.3992 22.0679 16.5379V17.5782V17.5782Z" fill="#FFD591"/>
</svg>
