<svg width="32" height="32" viewBox="0 0 32 32" fill="none" xmlns="http://www.w3.org/2000/svg">
<path d="M16.1638 27.993C10.5506 27.993 6 28.3079 6 24.7103C6 21.7495 7.78611 19.2075 10.8245 17.5343C12.3193 16.7109 14.3128 18.1867 16.1638 18.1867C18.2743 18.1867 20.4411 16.7913 22.0658 17.7709C24.762 19.3969 26.3276 21.6514 26.3276 24.7103C26.3276 28.3079 21.777 27.993 16.1638 27.993V27.993ZM16.1638 17.0384C12.5634 17.0384 9.6446 14.1197 9.6446 10.5192C9.6446 6.91876 12.5634 4 16.1638 4C19.7643 4 22.683 6.91876 22.683 10.5192C22.683 14.1197 19.7643 17.0384 16.1638 17.0384V17.0384Z" fill="#B1C3FF"/>
</svg>
