<svg width="46" height="46" viewBox="0 0 46 46" fill="none" xmlns="http://www.w3.org/2000/svg">
<rect width="46" height="46" rx="23" fill="#CECECE"/>
<path d="M23.1075 30.8704C19.4238 30.8704 16.4375 31.0771 16.4375 28.7161C16.4375 26.7731 17.6096 25.1049 19.6036 24.0069C20.5845 23.4665 21.8928 24.435 23.1075 24.435C24.4925 24.435 25.9145 23.5193 26.9806 24.1622C28.7501 25.2292 29.7775 26.7087 29.7775 28.7161C29.7775 31.0771 26.7912 30.8704 23.1075 30.8704ZM23.1075 23.6815C20.7447 23.6815 18.8293 21.766 18.8293 19.4032C18.8293 17.0404 20.7447 15.125 23.1075 15.125C25.4703 15.125 27.3857 17.0404 27.3857 19.4032C27.3857 21.766 25.4703 23.6815 23.1075 23.6815Z" fill="white"/>
</svg>
