<svg width="46" height="46" viewBox="0 0 46 46" fill="none" xmlns="http://www.w3.org/2000/svg">
<rect x="1" y="1" width="44" height="44" rx="22" fill="white"/>
<path fill-rule="evenodd" clip-rule="evenodd" d="M31.4135 17.8227L23 14L14.5865 17.8227C14.2291 17.9851 14 18.341 14 18.7332V19.625H32V18.7332C32 18.5412 31.9447 18.3532 31.8407 18.1917C31.7367 18.0303 31.5884 17.9022 31.4135 17.8227ZM32 32V30.0001C32 29.7349 31.8946 29.4805 31.7071 29.2929C31.5195 29.1054 31.2651 29 30.9999 29L30.5 29V21.125H27.9785V29H26.4654V21.125H23.9439V29H22.4312V21.125H19.9097V29H18.3965V21.125H15.875V29H15.0001C14.7349 29 14.4805 29.1054 14.2929 29.2929C14.1054 29.4805 14 29.7349 14 30.0001V32H32Z" fill="#FFADD2"/>
<rect x="1" y="1" width="44" height="44" rx="22" stroke="#FFADD2" stroke-width="2"/>
</svg>
